M48
;DRILL file {KiCad 4.0.5+dfsg1-4} date Fri Feb 15 16:11:49 2019
;FORMAT={-:-/ absolute / metric / decimal}
FMAT,2
METRIC,TZ
T1C0.400
T2C0.600
T3C0.800
T4C1.001
T5C1.016
T6C1.200
T7C1.400
%
G90
G05
M71
T1
X161.544Y-92.71
X161.544Y-102.616
X162.941Y-99.314
X162.941Y-104.521
X162.941Y-106.299
X162.941Y-112.649
X163.068Y-95.885
X163.068Y-101.219
T2
X161.544Y-92.71
X161.544Y-102.616
X162.941Y-99.314
X162.941Y-104.521
X162.941Y-106.299
X162.941Y-112.649
X163.068Y-95.885
X163.068Y-101.219
T3
X172.72Y-93.98
X172.72Y-96.52
X172.72Y-99.06
X172.72Y-101.6
X180.34Y-93.98
X180.34Y-96.52
X180.34Y-99.06
X180.34Y-101.6
T4
X162.687Y-86.36
X165.227Y-86.36
X184.229Y-90.17
X184.229Y-98.425
X184.229Y-102.87
X184.229Y-107.95
X194.231Y-90.17
X194.231Y-98.425
X194.231Y-102.87
X194.231Y-107.95
X199.39Y-92.789
X199.39Y-102.791
T5
X136.398Y-92.773
X136.398Y-95.313
X136.398Y-97.853
X136.398Y-100.393
X136.398Y-102.933
X136.398Y-105.474
X136.398Y-108.013
X136.398Y-110.553
X159.258Y-92.773
X159.258Y-95.313
X159.258Y-97.853
X159.258Y-100.393
X159.258Y-102.933
X159.258Y-105.474
X159.258Y-108.013
X159.258Y-110.553
X175.133Y-85.217
X177.673Y-85.217
T6
X130.937Y-90.297
X130.937Y-92.837
X130.937Y-95.377
X130.937Y-97.917
X130.937Y-100.457
X130.937Y-102.997
X130.937Y-105.537
X130.937Y-108.077
T7
X168.91Y-114.935
X173.91Y-114.935
X178.91Y-114.935
X205.74Y-92.71
X205.74Y-97.79
X205.74Y-102.87
T0
M30
