G04 #@! TF.FileFunction,Copper,L2,Bot,Signal*
%FSLAX46Y46*%
G04 Gerber Fmt 4.6, Leading zero omitted, Abs format (unit mm)*
G04 Created by KiCad (PCBNEW 4.0.5+dfsg1-4) date Fri Feb 15 16:12:20 2019*
%MOMM*%
%LPD*%
G01*
G04 APERTURE LIST*
%ADD10C,0.100000*%
%ADD11C,1.500000*%
%ADD12R,1.998980X1.998980*%
%ADD13R,0.900000X0.800000*%
%ADD14R,1.300000X0.700000*%
%ADD15R,0.700000X1.300000*%
%ADD16C,1.800000*%
%ADD17O,1.600000X1.600000*%
%ADD18R,1.250000X1.500000*%
%ADD19R,1.500000X1.250000*%
%ADD20R,2.032000X2.032000*%
%ADD21O,2.032000X2.032000*%
%ADD22R,1.000000X1.600000*%
%ADD23R,1.900000X2.000000*%
%ADD24C,1.900000*%
%ADD25R,3.600000X2.100000*%
%ADD26O,3.600000X2.100000*%
%ADD27R,2.100000X3.600000*%
%ADD28O,2.100000X3.600000*%
%ADD29R,2.600000X2.000000*%
%ADD30O,2.600000X2.000000*%
%ADD31C,0.600000*%
%ADD32C,0.762000*%
%ADD33C,0.254000*%
G04 APERTURE END LIST*
D10*
D11*
X163068000Y-101219000D03*
X162941000Y-99314000D03*
X163068000Y-95885000D03*
D12*
X194231260Y-107950000D03*
X184228740Y-107950000D03*
X199390000Y-102791260D03*
X199390000Y-92788740D03*
D13*
X167910000Y-94930000D03*
X167910000Y-93030000D03*
X169910000Y-93980000D03*
X167910000Y-104455000D03*
X167910000Y-102555000D03*
X169910000Y-103505000D03*
X167910000Y-100010000D03*
X167910000Y-98110000D03*
X169910000Y-99060000D03*
D14*
X165100000Y-94930000D03*
X165100000Y-93030000D03*
D15*
X177480000Y-93980000D03*
X175580000Y-93980000D03*
D14*
X165100000Y-104455000D03*
X165100000Y-102555000D03*
D15*
X177480000Y-102235000D03*
X175580000Y-102235000D03*
X177480000Y-98425000D03*
X175580000Y-98425000D03*
D16*
X159258000Y-92773500D03*
X159258000Y-95313500D03*
X159258000Y-97853500D03*
X159258000Y-100393500D03*
X159258000Y-102933500D03*
X159258000Y-105473500D03*
X159258000Y-108013500D03*
X159258000Y-110553500D03*
X136398000Y-110553500D03*
X136398000Y-108013500D03*
X136398000Y-105473500D03*
X136398000Y-102933500D03*
X136398000Y-100393500D03*
X136398000Y-97853500D03*
X136398000Y-95313500D03*
X136398000Y-92773500D03*
D17*
X172720000Y-93980000D03*
X172720000Y-96520000D03*
X172720000Y-99060000D03*
X172720000Y-101600000D03*
X180340000Y-101600000D03*
X180340000Y-99060000D03*
X180340000Y-96520000D03*
X180340000Y-93980000D03*
D18*
X165735000Y-111105000D03*
X165735000Y-108605000D03*
X139319000Y-110597000D03*
X139319000Y-108097000D03*
D19*
X177780000Y-105410000D03*
X175280000Y-105410000D03*
D20*
X175133000Y-85217000D03*
D21*
X177673000Y-85217000D03*
D22*
X169315000Y-108585000D03*
X172315000Y-108585000D03*
D12*
X194231260Y-90170000D03*
X184228740Y-90170000D03*
X194231260Y-98425000D03*
X184228740Y-98425000D03*
X194231260Y-102870000D03*
X184228740Y-102870000D03*
D14*
X165227000Y-88712000D03*
X165227000Y-90612000D03*
D23*
X165227000Y-86360000D03*
D24*
X162687000Y-86360000D03*
D14*
X165100000Y-100010000D03*
X165100000Y-98110000D03*
D11*
X161544000Y-92710000D03*
X161544000Y-102616000D03*
X162941000Y-104521000D03*
X162941000Y-106299000D03*
X162941000Y-112649000D03*
D25*
X205740000Y-102870000D03*
D26*
X205740000Y-97790000D03*
X205740000Y-92710000D03*
D27*
X168910000Y-114935000D03*
D28*
X173910000Y-114935000D03*
X178910000Y-114935000D03*
D29*
X130937000Y-108077000D03*
D30*
X130937000Y-105537000D03*
X130937000Y-102997000D03*
X130937000Y-100457000D03*
X130937000Y-97917000D03*
X130937000Y-95377000D03*
X130937000Y-92837000D03*
X130937000Y-90297000D03*
D31*
X163068000Y-101219000D03*
X162941000Y-99314000D03*
X163068000Y-95885000D03*
X162941000Y-104521000D03*
X162941000Y-106299000D03*
X162941000Y-112649000D03*
X161544000Y-102616000D03*
X161544000Y-92710000D03*
D32*
X163637000Y-100010000D02*
X163703000Y-100010000D01*
X162941000Y-99314000D02*
X163637000Y-100010000D01*
X163703000Y-100584000D02*
X163703000Y-100010000D01*
X163703000Y-100010000D02*
X165100000Y-100010000D01*
X163068000Y-101219000D02*
X163703000Y-100584000D01*
X165100000Y-94930000D02*
X164023000Y-94930000D01*
X164023000Y-94930000D02*
X163068000Y-95885000D01*
X165100000Y-94930000D02*
X167910000Y-94930000D01*
X139192000Y-110553500D02*
X136398000Y-110553500D01*
X165100000Y-104455000D02*
X163007000Y-104455000D01*
X163007000Y-104455000D02*
X162941000Y-104521000D01*
X164912000Y-104455000D02*
X165100000Y-104455000D01*
X165100000Y-104455000D02*
X167910000Y-104455000D01*
X165100000Y-100010000D02*
X167910000Y-100010000D01*
X162941000Y-104521000D02*
X162941000Y-106299000D01*
X139001500Y-110553500D02*
X139319000Y-110871000D01*
X139192000Y-110553500D02*
X139001500Y-110553500D01*
X139827000Y-110871000D02*
X139319000Y-110871000D01*
X141605000Y-112649000D02*
X139827000Y-110871000D01*
X162941000Y-112649000D02*
X141605000Y-112649000D01*
X159258000Y-95313500D02*
X161353500Y-95313500D01*
X163637000Y-93030000D02*
X165100000Y-93030000D01*
X161353500Y-95313500D02*
X163637000Y-93030000D01*
X167910000Y-93030000D02*
X165100000Y-93030000D01*
X169910000Y-93980000D02*
X172720000Y-93980000D01*
X175580000Y-93980000D02*
X172720000Y-93980000D01*
X159258000Y-110553500D02*
X162433000Y-110553500D01*
X162984500Y-111105000D02*
X165735000Y-111105000D01*
X162433000Y-110553500D02*
X162984500Y-111105000D01*
X165735000Y-111105000D02*
X168910000Y-111105000D01*
X168719500Y-111125000D02*
X168910000Y-111125000D01*
X168890000Y-111125000D02*
X168719500Y-111125000D01*
X168910000Y-111105000D02*
X168890000Y-111125000D01*
X168910000Y-114935000D02*
X168910000Y-115887500D01*
X168910000Y-115887500D02*
X171323000Y-118300500D01*
X187467240Y-86931500D02*
X184228740Y-90170000D01*
X206946500Y-86931500D02*
X187467240Y-86931500D01*
X211963000Y-91948000D02*
X206946500Y-86931500D01*
X211963000Y-109029500D02*
X211963000Y-91948000D01*
X208089500Y-112903000D02*
X211963000Y-109029500D01*
X187515500Y-112903000D02*
X208089500Y-112903000D01*
X182118000Y-118300500D02*
X187515500Y-112903000D01*
X171323000Y-118300500D02*
X182118000Y-118300500D01*
X168910000Y-108990000D02*
X168910000Y-108585000D01*
X168910000Y-108585000D02*
X169315000Y-108585000D01*
X168910000Y-114935000D02*
X168910000Y-111125000D01*
X168910000Y-111125000D02*
X168910000Y-108990000D01*
X168910000Y-108990000D02*
X169315000Y-108585000D01*
X177480000Y-102235000D02*
X177480000Y-103185000D01*
X177780000Y-103485000D02*
X177780000Y-105410000D01*
X177480000Y-103185000D02*
X177780000Y-103485000D01*
X177480000Y-102235000D02*
X177480000Y-98425000D01*
X180340000Y-93980000D02*
X177480000Y-93980000D01*
X177480000Y-93980000D02*
X177480000Y-98425000D01*
X180340000Y-93980000D02*
X180418740Y-93980000D01*
X180418740Y-93980000D02*
X184228740Y-90170000D01*
X159258000Y-92773500D02*
X161480500Y-92773500D01*
X162372000Y-102555000D02*
X165100000Y-102555000D01*
X161605000Y-102555000D02*
X162372000Y-102555000D01*
X161544000Y-102616000D02*
X161605000Y-102555000D01*
X161480500Y-92773500D02*
X161544000Y-92710000D01*
X165100000Y-102555000D02*
X167910000Y-102555000D01*
X169910000Y-103505000D02*
X170815000Y-103505000D01*
X170815000Y-103505000D02*
X172720000Y-101600000D01*
X172720000Y-101600000D02*
X173990000Y-101600000D01*
X174625000Y-102235000D02*
X175580000Y-102235000D01*
X173990000Y-101600000D02*
X174625000Y-102235000D01*
X159258000Y-97853500D02*
X164843500Y-97853500D01*
X164843500Y-97853500D02*
X165100000Y-98110000D01*
X165100000Y-98110000D02*
X167910000Y-98110000D01*
X139319000Y-108097000D02*
X139319000Y-91948000D01*
X137668000Y-90297000D02*
X130937000Y-90297000D01*
X139319000Y-91948000D02*
X137668000Y-90297000D01*
X158178500Y-108013500D02*
X139446000Y-107950000D01*
X207899000Y-97790000D02*
X205740000Y-97790000D01*
X209677000Y-99568000D02*
X207899000Y-97790000D01*
X209677000Y-107823000D02*
X209677000Y-99568000D01*
X206756000Y-110744000D02*
X209677000Y-107823000D01*
X189103000Y-110744000D02*
X206756000Y-110744000D01*
X186690000Y-108331000D02*
X189103000Y-110744000D01*
X186690000Y-108077000D02*
X186690000Y-108331000D01*
X186563000Y-107950000D02*
X186690000Y-108077000D01*
X182880000Y-107950000D02*
X186563000Y-107950000D01*
X165735000Y-108605000D02*
X165735000Y-107442000D01*
X171196000Y-106426000D02*
X172720000Y-107950000D01*
X166751000Y-106426000D02*
X171196000Y-106426000D01*
X165735000Y-107442000D02*
X166751000Y-106426000D01*
X172720000Y-107950000D02*
X172315000Y-108585000D01*
X159258000Y-108013500D02*
X158178500Y-108013500D01*
X159258000Y-108013500D02*
X155384500Y-108013500D01*
X177673000Y-82677000D02*
X177673000Y-85217000D01*
X176657000Y-81661000D02*
X177673000Y-82677000D01*
X156337000Y-81661000D02*
X176657000Y-81661000D01*
X152527000Y-85471000D02*
X156337000Y-81661000D01*
X152527000Y-105156000D02*
X152527000Y-85471000D01*
X155384500Y-108013500D02*
X152527000Y-105156000D01*
X165227000Y-90612000D02*
X175199000Y-90612000D01*
X175199000Y-90612000D02*
X177673000Y-88138000D01*
X177673000Y-88138000D02*
X177673000Y-85217000D01*
X159258000Y-108013500D02*
X165143500Y-108013500D01*
X165143500Y-108013500D02*
X165735000Y-108605000D01*
X172720000Y-107950000D02*
X172315000Y-108585000D01*
X172315000Y-108585000D02*
X172315000Y-108355000D01*
X172315000Y-108355000D02*
X173355000Y-107315000D01*
X173375000Y-107315000D02*
X175280000Y-105410000D01*
X173355000Y-107315000D02*
X173375000Y-107315000D01*
X172315000Y-108585000D02*
X172720000Y-108585000D01*
X175260000Y-111125000D02*
X179705000Y-111125000D01*
X172720000Y-108585000D02*
X175260000Y-111125000D01*
X175260000Y-111125000D02*
X175260000Y-111760000D01*
X173990000Y-113030000D02*
X173990000Y-114935000D01*
X175260000Y-111760000D02*
X173990000Y-113030000D01*
X179070000Y-114935000D02*
X179070000Y-111760000D01*
X179070000Y-111760000D02*
X179705000Y-111125000D01*
X179705000Y-111125000D02*
X182880000Y-107950000D01*
X184228740Y-107950000D02*
X182880000Y-107950000D01*
X180340000Y-105410000D02*
X180340000Y-101600000D01*
X182880000Y-107950000D02*
X180340000Y-105410000D01*
X169910000Y-99060000D02*
X172720000Y-99060000D01*
X172720000Y-96520000D02*
X172720000Y-99060000D01*
X172720000Y-99060000D02*
X174625000Y-99060000D01*
X174625000Y-99060000D02*
X175260000Y-98425000D01*
X175260000Y-98425000D02*
X175580000Y-98425000D01*
X194231260Y-102870000D02*
X194231260Y-107950000D01*
X205740000Y-102870000D02*
X199468740Y-102870000D01*
X199468740Y-102870000D02*
X194231260Y-102870000D01*
X180340000Y-99060000D02*
X183593740Y-99060000D01*
X183593740Y-99060000D02*
X184228740Y-98425000D01*
X194231260Y-98425000D02*
X194231260Y-96520000D01*
X194231260Y-96520000D02*
X194231260Y-90170000D01*
X205740000Y-92710000D02*
X199468740Y-92710000D01*
X199468740Y-92710000D02*
X196928740Y-90170000D01*
X196928740Y-90170000D02*
X194231260Y-90170000D01*
X205661260Y-92788740D02*
X205740000Y-92710000D01*
X180340000Y-96520000D02*
X181610000Y-96520000D01*
X187960000Y-102870000D02*
X184228740Y-102870000D01*
X189230000Y-101600000D02*
X187960000Y-102870000D01*
X189230000Y-95885000D02*
X189230000Y-101600000D01*
X187960000Y-94615000D02*
X189230000Y-95885000D01*
X183515000Y-94615000D02*
X187960000Y-94615000D01*
X181610000Y-96520000D02*
X183515000Y-94615000D01*
X175133000Y-85217000D02*
X168910000Y-85217000D01*
X156781500Y-105473500D02*
X159258000Y-105473500D01*
X154940000Y-103632000D02*
X156781500Y-105473500D01*
X154940000Y-86614000D02*
X154940000Y-103632000D01*
X157734000Y-83820000D02*
X154940000Y-86614000D01*
X167513000Y-83820000D02*
X157734000Y-83820000D01*
X168910000Y-85217000D02*
X167513000Y-83820000D01*
X162687000Y-86360000D02*
X158750000Y-86360000D01*
X158750000Y-86360000D02*
X158242000Y-86868000D01*
X159258000Y-100393500D02*
X158305500Y-100393500D01*
X156464000Y-88646000D02*
X158242000Y-86868000D01*
X156464000Y-98552000D02*
X156464000Y-88646000D01*
X158305500Y-100393500D02*
X156464000Y-98552000D01*
X165227000Y-86360000D02*
X165227000Y-88712000D01*
X136398000Y-108013500D02*
X131000500Y-108013500D01*
X131000500Y-108013500D02*
X130937000Y-108077000D01*
X136398000Y-105473500D02*
X131000500Y-105473500D01*
X131000500Y-105473500D02*
X130937000Y-105537000D01*
X130937000Y-102997000D02*
X136334500Y-102997000D01*
X136334500Y-102997000D02*
X136398000Y-102933500D01*
X130937000Y-100457000D02*
X136334500Y-100457000D01*
X136334500Y-100457000D02*
X136398000Y-100393500D01*
X130937000Y-97917000D02*
X136334500Y-97917000D01*
X136334500Y-97917000D02*
X136398000Y-97853500D01*
X130937000Y-95377000D02*
X136334500Y-95377000D01*
X136334500Y-95377000D02*
X136398000Y-95313500D01*
X130937000Y-92837000D02*
X136334500Y-92837000D01*
X136334500Y-92837000D02*
X136398000Y-92773500D01*
D33*
G36*
X212370200Y-91205727D02*
X207521236Y-86356764D01*
X207463217Y-86309106D01*
X207405705Y-86260848D01*
X207401960Y-86258789D01*
X207398657Y-86256076D01*
X207332491Y-86220598D01*
X207266696Y-86184427D01*
X207262621Y-86183134D01*
X207258855Y-86181115D01*
X207187080Y-86159171D01*
X207115491Y-86136462D01*
X207111241Y-86135985D01*
X207107155Y-86134736D01*
X207032483Y-86127151D01*
X206957848Y-86118779D01*
X206949493Y-86118721D01*
X206949337Y-86118705D01*
X206949192Y-86118719D01*
X206946500Y-86118700D01*
X187467240Y-86118700D01*
X187392516Y-86126027D01*
X187317725Y-86132570D01*
X187313619Y-86133763D01*
X187309366Y-86134180D01*
X187237478Y-86155884D01*
X187165393Y-86176827D01*
X187161601Y-86178793D01*
X187157506Y-86180029D01*
X187091208Y-86215281D01*
X187024558Y-86249828D01*
X187021216Y-86252496D01*
X187017443Y-86254502D01*
X186959268Y-86301948D01*
X186900584Y-86348795D01*
X186894635Y-86354661D01*
X186894513Y-86354761D01*
X186894419Y-86354874D01*
X186892504Y-86356763D01*
X184512647Y-88736621D01*
X183229250Y-88736621D01*
X183160487Y-88742104D01*
X183043859Y-88778222D01*
X182941910Y-88845402D01*
X182862713Y-88938324D01*
X182812539Y-89049631D01*
X182795361Y-89170510D01*
X182795361Y-90453906D01*
X180487051Y-92762217D01*
X180363159Y-92748320D01*
X180345960Y-92748200D01*
X180334040Y-92748200D01*
X180094782Y-92771659D01*
X179864638Y-92841144D01*
X179652372Y-92954008D01*
X179466072Y-93105951D01*
X179415402Y-93167200D01*
X178229284Y-93167200D01*
X178222288Y-93144609D01*
X178155108Y-93042660D01*
X178062186Y-92963463D01*
X177950879Y-92913289D01*
X177830000Y-92896111D01*
X177130000Y-92896111D01*
X177061237Y-92901594D01*
X176944609Y-92937712D01*
X176842660Y-93004892D01*
X176763463Y-93097814D01*
X176713289Y-93209121D01*
X176696111Y-93330000D01*
X176696111Y-93775863D01*
X176684962Y-93811009D01*
X176684645Y-93813839D01*
X176683801Y-93816564D01*
X176675805Y-93892646D01*
X176667279Y-93968652D01*
X176667241Y-93974127D01*
X176667220Y-93974326D01*
X176667238Y-93974525D01*
X176667200Y-93980000D01*
X176667200Y-103185000D01*
X176674526Y-103259716D01*
X176681070Y-103334516D01*
X176682263Y-103338623D01*
X176682680Y-103342874D01*
X176704376Y-103414736D01*
X176725327Y-103486848D01*
X176727293Y-103490642D01*
X176728529Y-103494734D01*
X176763792Y-103561053D01*
X176798329Y-103627682D01*
X176800994Y-103631020D01*
X176803002Y-103634797D01*
X176850470Y-103692999D01*
X176897295Y-103751656D01*
X176903158Y-103757600D01*
X176903261Y-103757727D01*
X176903378Y-103757824D01*
X176905264Y-103759736D01*
X176967200Y-103821672D01*
X176967200Y-104356119D01*
X176961237Y-104356594D01*
X176844609Y-104392712D01*
X176742660Y-104459892D01*
X176663463Y-104552814D01*
X176641116Y-104602388D01*
X176640597Y-104599777D01*
X176592730Y-104484215D01*
X176523237Y-104380211D01*
X176434789Y-104291763D01*
X176330785Y-104222270D01*
X176215223Y-104174403D01*
X176092542Y-104150000D01*
X175565750Y-104150000D01*
X175407000Y-104308750D01*
X175407000Y-105283000D01*
X175427000Y-105283000D01*
X175427000Y-105537000D01*
X175407000Y-105537000D01*
X175407000Y-106511250D01*
X175565750Y-106670000D01*
X176092542Y-106670000D01*
X176215223Y-106645597D01*
X176330785Y-106597730D01*
X176434789Y-106528237D01*
X176523237Y-106439789D01*
X176592730Y-106335785D01*
X176639441Y-106223014D01*
X176704892Y-106322340D01*
X176797814Y-106401537D01*
X176909121Y-106451711D01*
X177030000Y-106468889D01*
X178530000Y-106468889D01*
X178598763Y-106463406D01*
X178715391Y-106427288D01*
X178817340Y-106360108D01*
X178896537Y-106267186D01*
X178946711Y-106155879D01*
X178963889Y-106035000D01*
X178963889Y-104785000D01*
X178958406Y-104716237D01*
X178922288Y-104599609D01*
X178855108Y-104497660D01*
X178762186Y-104418463D01*
X178650879Y-104368289D01*
X178592800Y-104360035D01*
X178592800Y-103485000D01*
X178585469Y-103410234D01*
X178578929Y-103335484D01*
X178577737Y-103331382D01*
X178577320Y-103327126D01*
X178555611Y-103255222D01*
X178534673Y-103183152D01*
X178532707Y-103179358D01*
X178531471Y-103175266D01*
X178496208Y-103108947D01*
X178461671Y-103042318D01*
X178459006Y-103038980D01*
X178456998Y-103035203D01*
X178409530Y-102977001D01*
X178362705Y-102918344D01*
X178356842Y-102912400D01*
X178356739Y-102912273D01*
X178356622Y-102912176D01*
X178354736Y-102910264D01*
X178292800Y-102848328D01*
X178292800Y-101949039D01*
X178948096Y-101949039D01*
X178988754Y-102083087D01*
X179108963Y-102337420D01*
X179276481Y-102563414D01*
X179484869Y-102752385D01*
X179726119Y-102897070D01*
X179990960Y-102991909D01*
X180213000Y-102870624D01*
X180213000Y-101727000D01*
X180467000Y-101727000D01*
X180467000Y-102870624D01*
X180689040Y-102991909D01*
X180953881Y-102897070D01*
X181195131Y-102752385D01*
X181403519Y-102563414D01*
X181571037Y-102337420D01*
X181691246Y-102083087D01*
X181731904Y-101949039D01*
X181609915Y-101727000D01*
X180467000Y-101727000D01*
X180213000Y-101727000D01*
X179070085Y-101727000D01*
X178948096Y-101949039D01*
X178292800Y-101949039D01*
X178292800Y-101250961D01*
X178948096Y-101250961D01*
X179070085Y-101473000D01*
X180213000Y-101473000D01*
X180213000Y-101453000D01*
X180467000Y-101453000D01*
X180467000Y-101473000D01*
X181609915Y-101473000D01*
X181731904Y-101250961D01*
X181691246Y-101116913D01*
X181571037Y-100862580D01*
X181403519Y-100636586D01*
X181195131Y-100447615D01*
X180953881Y-100302930D01*
X180732833Y-100223773D01*
X180815362Y-100198856D01*
X181027628Y-100085992D01*
X181213928Y-99934049D01*
X181264598Y-99872800D01*
X183593740Y-99872800D01*
X183668456Y-99865474D01*
X183743256Y-99858930D01*
X183745153Y-99858379D01*
X185228230Y-99858379D01*
X185296993Y-99852896D01*
X185413621Y-99816778D01*
X185515570Y-99749598D01*
X185594767Y-99656676D01*
X185644941Y-99545369D01*
X185662119Y-99424490D01*
X185662119Y-97425510D01*
X185656636Y-97356747D01*
X185620518Y-97240119D01*
X185553338Y-97138170D01*
X185460416Y-97058973D01*
X185349109Y-97008799D01*
X185228230Y-96991621D01*
X183229250Y-96991621D01*
X183160487Y-96997104D01*
X183043859Y-97033222D01*
X182941910Y-97100402D01*
X182862713Y-97193324D01*
X182812539Y-97304631D01*
X182795361Y-97425510D01*
X182795361Y-98247200D01*
X181265480Y-98247200D01*
X181226047Y-98198155D01*
X181041886Y-98043625D01*
X180831218Y-97927809D01*
X180602066Y-97855118D01*
X180363159Y-97828320D01*
X180345960Y-97828200D01*
X180334040Y-97828200D01*
X180094782Y-97851659D01*
X179864638Y-97921144D01*
X179652372Y-98034008D01*
X179466072Y-98185951D01*
X179312832Y-98371186D01*
X179198489Y-98582658D01*
X179127399Y-98812312D01*
X179102270Y-99051400D01*
X179124059Y-99290816D01*
X179191935Y-99521440D01*
X179303314Y-99734488D01*
X179453953Y-99921845D01*
X179638114Y-100076375D01*
X179848782Y-100192191D01*
X179947719Y-100223576D01*
X179726119Y-100302930D01*
X179484869Y-100447615D01*
X179276481Y-100636586D01*
X179108963Y-100862580D01*
X178988754Y-101116913D01*
X178948096Y-101250961D01*
X178292800Y-101250961D01*
X178292800Y-96511400D01*
X179102270Y-96511400D01*
X179124059Y-96750816D01*
X179191935Y-96981440D01*
X179303314Y-97194488D01*
X179453953Y-97381845D01*
X179638114Y-97536375D01*
X179848782Y-97652191D01*
X180077934Y-97724882D01*
X180316841Y-97751680D01*
X180334040Y-97751800D01*
X180345960Y-97751800D01*
X180585218Y-97728341D01*
X180815362Y-97658856D01*
X181027628Y-97545992D01*
X181213928Y-97394049D01*
X181264598Y-97332800D01*
X181610000Y-97332800D01*
X181684716Y-97325474D01*
X181759516Y-97318930D01*
X181763623Y-97317737D01*
X181767874Y-97317320D01*
X181839736Y-97295624D01*
X181911848Y-97274673D01*
X181915642Y-97272707D01*
X181919734Y-97271471D01*
X181986053Y-97236208D01*
X182052682Y-97201671D01*
X182056020Y-97199006D01*
X182059797Y-97196998D01*
X182117999Y-97149530D01*
X182176656Y-97102705D01*
X182182600Y-97096842D01*
X182182727Y-97096739D01*
X182182824Y-97096622D01*
X182184736Y-97094736D01*
X183851673Y-95427800D01*
X187623328Y-95427800D01*
X188417200Y-96221673D01*
X188417200Y-101263327D01*
X187623328Y-102057200D01*
X185662119Y-102057200D01*
X185662119Y-101870510D01*
X185656636Y-101801747D01*
X185620518Y-101685119D01*
X185553338Y-101583170D01*
X185460416Y-101503973D01*
X185349109Y-101453799D01*
X185228230Y-101436621D01*
X183229250Y-101436621D01*
X183160487Y-101442104D01*
X183043859Y-101478222D01*
X182941910Y-101545402D01*
X182862713Y-101638324D01*
X182812539Y-101749631D01*
X182795361Y-101870510D01*
X182795361Y-103869490D01*
X182800844Y-103938253D01*
X182836962Y-104054881D01*
X182904142Y-104156830D01*
X182997064Y-104236027D01*
X183108371Y-104286201D01*
X183229250Y-104303379D01*
X185228230Y-104303379D01*
X185296993Y-104297896D01*
X185413621Y-104261778D01*
X185515570Y-104194598D01*
X185594767Y-104101676D01*
X185644941Y-103990369D01*
X185662119Y-103869490D01*
X185662119Y-103682800D01*
X187960000Y-103682800D01*
X188034716Y-103675474D01*
X188109516Y-103668930D01*
X188113623Y-103667737D01*
X188117874Y-103667320D01*
X188189736Y-103645624D01*
X188261848Y-103624673D01*
X188265642Y-103622707D01*
X188269734Y-103621471D01*
X188336053Y-103586208D01*
X188402682Y-103551671D01*
X188406020Y-103549006D01*
X188409797Y-103546998D01*
X188467999Y-103499530D01*
X188526656Y-103452705D01*
X188532600Y-103446842D01*
X188532727Y-103446739D01*
X188532824Y-103446622D01*
X188534736Y-103444736D01*
X189804736Y-102174737D01*
X189852414Y-102116692D01*
X189900652Y-102059205D01*
X189902711Y-102055460D01*
X189905424Y-102052157D01*
X189940902Y-101985991D01*
X189977073Y-101920196D01*
X189978366Y-101916121D01*
X189980385Y-101912355D01*
X189993178Y-101870510D01*
X192797881Y-101870510D01*
X192797881Y-103869490D01*
X192803364Y-103938253D01*
X192839482Y-104054881D01*
X192906662Y-104156830D01*
X192999584Y-104236027D01*
X193110891Y-104286201D01*
X193231770Y-104303379D01*
X193418460Y-104303379D01*
X193418460Y-106516621D01*
X193231770Y-106516621D01*
X193163007Y-106522104D01*
X193046379Y-106558222D01*
X192944430Y-106625402D01*
X192865233Y-106718324D01*
X192815059Y-106829631D01*
X192797881Y-106950510D01*
X192797881Y-108949490D01*
X192803364Y-109018253D01*
X192839482Y-109134881D01*
X192906662Y-109236830D01*
X192999584Y-109316027D01*
X193110891Y-109366201D01*
X193231770Y-109383379D01*
X195230750Y-109383379D01*
X195299513Y-109377896D01*
X195416141Y-109341778D01*
X195518090Y-109274598D01*
X195597287Y-109181676D01*
X195647461Y-109070369D01*
X195664639Y-108949490D01*
X195664639Y-106950510D01*
X195659156Y-106881747D01*
X195623038Y-106765119D01*
X195555858Y-106663170D01*
X195462936Y-106583973D01*
X195351629Y-106533799D01*
X195230750Y-106516621D01*
X195044060Y-106516621D01*
X195044060Y-104303379D01*
X195230750Y-104303379D01*
X195299513Y-104297896D01*
X195416141Y-104261778D01*
X195518090Y-104194598D01*
X195597287Y-104101676D01*
X195647461Y-103990369D01*
X195664639Y-103869490D01*
X195664639Y-103682800D01*
X197956621Y-103682800D01*
X197956621Y-103790750D01*
X197962104Y-103859513D01*
X197998222Y-103976141D01*
X198065402Y-104078090D01*
X198158324Y-104157287D01*
X198269631Y-104207461D01*
X198390510Y-104224639D01*
X200389490Y-104224639D01*
X200458253Y-104219156D01*
X200574881Y-104183038D01*
X200676830Y-104115858D01*
X200756027Y-104022936D01*
X200806201Y-103911629D01*
X200823379Y-103790750D01*
X200823379Y-103682800D01*
X203506111Y-103682800D01*
X203506111Y-103920000D01*
X203511594Y-103988763D01*
X203547712Y-104105391D01*
X203614892Y-104207340D01*
X203707814Y-104286537D01*
X203819121Y-104336711D01*
X203940000Y-104353889D01*
X207540000Y-104353889D01*
X207608763Y-104348406D01*
X207725391Y-104312288D01*
X207827340Y-104245108D01*
X207906537Y-104152186D01*
X207956711Y-104040879D01*
X207973889Y-103920000D01*
X207973889Y-101820000D01*
X207968406Y-101751237D01*
X207932288Y-101634609D01*
X207865108Y-101532660D01*
X207772186Y-101453463D01*
X207660879Y-101403289D01*
X207540000Y-101386111D01*
X203940000Y-101386111D01*
X203871237Y-101391594D01*
X203754609Y-101427712D01*
X203652660Y-101494892D01*
X203573463Y-101587814D01*
X203523289Y-101699121D01*
X203506111Y-101820000D01*
X203506111Y-102057200D01*
X200823379Y-102057200D01*
X200823379Y-101791770D01*
X200817896Y-101723007D01*
X200781778Y-101606379D01*
X200714598Y-101504430D01*
X200621676Y-101425233D01*
X200510369Y-101375059D01*
X200389490Y-101357881D01*
X198390510Y-101357881D01*
X198321747Y-101363364D01*
X198205119Y-101399482D01*
X198103170Y-101466662D01*
X198023973Y-101559584D01*
X197973799Y-101670891D01*
X197956621Y-101791770D01*
X197956621Y-102057200D01*
X195664639Y-102057200D01*
X195664639Y-101870510D01*
X195659156Y-101801747D01*
X195623038Y-101685119D01*
X195555858Y-101583170D01*
X195462936Y-101503973D01*
X195351629Y-101453799D01*
X195230750Y-101436621D01*
X193231770Y-101436621D01*
X193163007Y-101442104D01*
X193046379Y-101478222D01*
X192944430Y-101545402D01*
X192865233Y-101638324D01*
X192815059Y-101749631D01*
X192797881Y-101870510D01*
X189993178Y-101870510D01*
X190002333Y-101840567D01*
X190025038Y-101768991D01*
X190025515Y-101764743D01*
X190026764Y-101760656D01*
X190034350Y-101685977D01*
X190042721Y-101611348D01*
X190042779Y-101602993D01*
X190042795Y-101602837D01*
X190042781Y-101602692D01*
X190042800Y-101600000D01*
X190042800Y-95885000D01*
X190035469Y-95810234D01*
X190028929Y-95735484D01*
X190027737Y-95731382D01*
X190027320Y-95727126D01*
X190005611Y-95655222D01*
X189984673Y-95583152D01*
X189982707Y-95579358D01*
X189981471Y-95575266D01*
X189946208Y-95508947D01*
X189911671Y-95442318D01*
X189909006Y-95438980D01*
X189906998Y-95435203D01*
X189859530Y-95377001D01*
X189812705Y-95318344D01*
X189806839Y-95312395D01*
X189806739Y-95312273D01*
X189806626Y-95312179D01*
X189804736Y-95310263D01*
X188534736Y-94040264D01*
X188476717Y-93992606D01*
X188419205Y-93944348D01*
X188415460Y-93942289D01*
X188412157Y-93939576D01*
X188345991Y-93904098D01*
X188280196Y-93867927D01*
X188276121Y-93866634D01*
X188272355Y-93864615D01*
X188200580Y-93842671D01*
X188128991Y-93819962D01*
X188124741Y-93819485D01*
X188120655Y-93818236D01*
X188045983Y-93810651D01*
X187971348Y-93802279D01*
X187962993Y-93802221D01*
X187962837Y-93802205D01*
X187962692Y-93802219D01*
X187960000Y-93802200D01*
X183515000Y-93802200D01*
X183440276Y-93809527D01*
X183365485Y-93816070D01*
X183361379Y-93817263D01*
X183357126Y-93817680D01*
X183285252Y-93839380D01*
X183213152Y-93860327D01*
X183209358Y-93862293D01*
X183205266Y-93863529D01*
X183138986Y-93898771D01*
X183072318Y-93933328D01*
X183068976Y-93935996D01*
X183065203Y-93938002D01*
X183007028Y-93985448D01*
X182948344Y-94032295D01*
X182942395Y-94038161D01*
X182942273Y-94038261D01*
X182942179Y-94038374D01*
X182940264Y-94040263D01*
X181273328Y-95707200D01*
X181265480Y-95707200D01*
X181226047Y-95658155D01*
X181041886Y-95503625D01*
X180831218Y-95387809D01*
X180602066Y-95315118D01*
X180363159Y-95288320D01*
X180345960Y-95288200D01*
X180334040Y-95288200D01*
X180094782Y-95311659D01*
X179864638Y-95381144D01*
X179652372Y-95494008D01*
X179466072Y-95645951D01*
X179312832Y-95831186D01*
X179198489Y-96042658D01*
X179127399Y-96272312D01*
X179102270Y-96511400D01*
X178292800Y-96511400D01*
X178292800Y-94792800D01*
X179414520Y-94792800D01*
X179453953Y-94841845D01*
X179638114Y-94996375D01*
X179848782Y-95112191D01*
X180077934Y-95184882D01*
X180316841Y-95211680D01*
X180334040Y-95211800D01*
X180345960Y-95211800D01*
X180585218Y-95188341D01*
X180815362Y-95118856D01*
X181027628Y-95005992D01*
X181213928Y-94854049D01*
X181367168Y-94668814D01*
X181481511Y-94457342D01*
X181552601Y-94227688D01*
X181577730Y-93988600D01*
X181576219Y-93971993D01*
X183944834Y-91603379D01*
X185228230Y-91603379D01*
X185296993Y-91597896D01*
X185413621Y-91561778D01*
X185515570Y-91494598D01*
X185594767Y-91401676D01*
X185644941Y-91290369D01*
X185662119Y-91169490D01*
X185662119Y-89886093D01*
X186377702Y-89170510D01*
X192797881Y-89170510D01*
X192797881Y-91169490D01*
X192803364Y-91238253D01*
X192839482Y-91354881D01*
X192906662Y-91456830D01*
X192999584Y-91536027D01*
X193110891Y-91586201D01*
X193231770Y-91603379D01*
X193418460Y-91603379D01*
X193418460Y-96991621D01*
X193231770Y-96991621D01*
X193163007Y-96997104D01*
X193046379Y-97033222D01*
X192944430Y-97100402D01*
X192865233Y-97193324D01*
X192815059Y-97304631D01*
X192797881Y-97425510D01*
X192797881Y-99424490D01*
X192803364Y-99493253D01*
X192839482Y-99609881D01*
X192906662Y-99711830D01*
X192999584Y-99791027D01*
X193110891Y-99841201D01*
X193231770Y-99858379D01*
X195230750Y-99858379D01*
X195299513Y-99852896D01*
X195416141Y-99816778D01*
X195518090Y-99749598D01*
X195597287Y-99656676D01*
X195647461Y-99545369D01*
X195664639Y-99424490D01*
X195664639Y-98178279D01*
X203350346Y-98178279D01*
X203384663Y-98317490D01*
X203518417Y-98620540D01*
X203708723Y-98891673D01*
X203948268Y-99120469D01*
X204227846Y-99298136D01*
X204536713Y-99417847D01*
X204863000Y-99475000D01*
X205613000Y-99475000D01*
X205613000Y-97917000D01*
X205867000Y-97917000D01*
X205867000Y-99475000D01*
X206617000Y-99475000D01*
X206943287Y-99417847D01*
X207252154Y-99298136D01*
X207531732Y-99120469D01*
X207771277Y-98891673D01*
X207961583Y-98620540D01*
X208095337Y-98317490D01*
X208129654Y-98178279D01*
X208010957Y-97917000D01*
X205867000Y-97917000D01*
X205613000Y-97917000D01*
X203469043Y-97917000D01*
X203350346Y-98178279D01*
X195664639Y-98178279D01*
X195664639Y-97425510D01*
X195662743Y-97401721D01*
X203350346Y-97401721D01*
X203469043Y-97663000D01*
X205613000Y-97663000D01*
X205613000Y-96105000D01*
X205867000Y-96105000D01*
X205867000Y-97663000D01*
X208010957Y-97663000D01*
X208129654Y-97401721D01*
X208095337Y-97262510D01*
X207961583Y-96959460D01*
X207771277Y-96688327D01*
X207531732Y-96459531D01*
X207252154Y-96281864D01*
X206943287Y-96162153D01*
X206617000Y-96105000D01*
X205867000Y-96105000D01*
X205613000Y-96105000D01*
X204863000Y-96105000D01*
X204536713Y-96162153D01*
X204227846Y-96281864D01*
X203948268Y-96459531D01*
X203708723Y-96688327D01*
X203518417Y-96959460D01*
X203384663Y-97262510D01*
X203350346Y-97401721D01*
X195662743Y-97401721D01*
X195659156Y-97356747D01*
X195623038Y-97240119D01*
X195555858Y-97138170D01*
X195462936Y-97058973D01*
X195351629Y-97008799D01*
X195230750Y-96991621D01*
X195044060Y-96991621D01*
X195044060Y-91603379D01*
X195230750Y-91603379D01*
X195299513Y-91597896D01*
X195416141Y-91561778D01*
X195518090Y-91494598D01*
X195597287Y-91401676D01*
X195647461Y-91290369D01*
X195664639Y-91169490D01*
X195664639Y-90982800D01*
X196592068Y-90982800D01*
X197956621Y-92347354D01*
X197956621Y-93788230D01*
X197962104Y-93856993D01*
X197998222Y-93973621D01*
X198065402Y-94075570D01*
X198158324Y-94154767D01*
X198269631Y-94204941D01*
X198390510Y-94222119D01*
X200389490Y-94222119D01*
X200458253Y-94216636D01*
X200574881Y-94180518D01*
X200676830Y-94113338D01*
X200756027Y-94020416D01*
X200806201Y-93909109D01*
X200823379Y-93788230D01*
X200823379Y-93522800D01*
X203740427Y-93522800D01*
X203920495Y-93746761D01*
X204142033Y-93932653D01*
X204395458Y-94071975D01*
X204671117Y-94159419D01*
X204958512Y-94191656D01*
X204979201Y-94191800D01*
X206500799Y-94191800D01*
X206788615Y-94163579D01*
X207065469Y-94079992D01*
X207320815Y-93944223D01*
X207544926Y-93761442D01*
X207729267Y-93538612D01*
X207866816Y-93284221D01*
X207952334Y-93007957D01*
X207982563Y-92720345D01*
X207956352Y-92432338D01*
X207874700Y-92154908D01*
X207740716Y-91898621D01*
X207559505Y-91673239D01*
X207337967Y-91487347D01*
X207084542Y-91348025D01*
X206808883Y-91260581D01*
X206521488Y-91228344D01*
X206500799Y-91228200D01*
X204979201Y-91228200D01*
X204691385Y-91256421D01*
X204414531Y-91340008D01*
X204159185Y-91475777D01*
X203935074Y-91658558D01*
X203750733Y-91881388D01*
X203742183Y-91897200D01*
X200823379Y-91897200D01*
X200823379Y-91789250D01*
X200817896Y-91720487D01*
X200781778Y-91603859D01*
X200714598Y-91501910D01*
X200621676Y-91422713D01*
X200510369Y-91372539D01*
X200389490Y-91355361D01*
X199263574Y-91355361D01*
X197503476Y-89595264D01*
X197445457Y-89547606D01*
X197387945Y-89499348D01*
X197384200Y-89497289D01*
X197380897Y-89494576D01*
X197314731Y-89459098D01*
X197248936Y-89422927D01*
X197244861Y-89421634D01*
X197241095Y-89419615D01*
X197169320Y-89397671D01*
X197097731Y-89374962D01*
X197093481Y-89374485D01*
X197089395Y-89373236D01*
X197014723Y-89365651D01*
X196940088Y-89357279D01*
X196931733Y-89357221D01*
X196931577Y-89357205D01*
X196931432Y-89357219D01*
X196928740Y-89357200D01*
X195664639Y-89357200D01*
X195664639Y-89170510D01*
X195659156Y-89101747D01*
X195623038Y-88985119D01*
X195555858Y-88883170D01*
X195462936Y-88803973D01*
X195351629Y-88753799D01*
X195230750Y-88736621D01*
X193231770Y-88736621D01*
X193163007Y-88742104D01*
X193046379Y-88778222D01*
X192944430Y-88845402D01*
X192865233Y-88938324D01*
X192815059Y-89049631D01*
X192797881Y-89170510D01*
X186377702Y-89170510D01*
X187803913Y-87744300D01*
X206609828Y-87744300D01*
X211150200Y-92284673D01*
X211150200Y-108692827D01*
X207752828Y-112090200D01*
X187515500Y-112090200D01*
X187440776Y-112097527D01*
X187365985Y-112104070D01*
X187361879Y-112105263D01*
X187357626Y-112105680D01*
X187285738Y-112127384D01*
X187213653Y-112148327D01*
X187209861Y-112150293D01*
X187205766Y-112151529D01*
X187139468Y-112186781D01*
X187072818Y-112221328D01*
X187069476Y-112223996D01*
X187065703Y-112226002D01*
X187007528Y-112273448D01*
X186948844Y-112320295D01*
X186942895Y-112326161D01*
X186942773Y-112326261D01*
X186942679Y-112326374D01*
X186940764Y-112328263D01*
X181781328Y-117487700D01*
X171659673Y-117487700D01*
X170393889Y-116221917D01*
X170393889Y-115062000D01*
X172225000Y-115062000D01*
X172225000Y-115812000D01*
X172282153Y-116138287D01*
X172401864Y-116447154D01*
X172579531Y-116726732D01*
X172808327Y-116966277D01*
X173079460Y-117156583D01*
X173382510Y-117290337D01*
X173521721Y-117324654D01*
X173783000Y-117205957D01*
X173783000Y-115062000D01*
X174037000Y-115062000D01*
X174037000Y-117205957D01*
X174298279Y-117324654D01*
X174437490Y-117290337D01*
X174740540Y-117156583D01*
X175011673Y-116966277D01*
X175240469Y-116726732D01*
X175418136Y-116447154D01*
X175537847Y-116138287D01*
X175595000Y-115812000D01*
X175595000Y-115062000D01*
X177225000Y-115062000D01*
X177225000Y-115812000D01*
X177282153Y-116138287D01*
X177401864Y-116447154D01*
X177579531Y-116726732D01*
X177808327Y-116966277D01*
X178079460Y-117156583D01*
X178382510Y-117290337D01*
X178521721Y-117324654D01*
X178783000Y-117205957D01*
X178783000Y-115062000D01*
X179037000Y-115062000D01*
X179037000Y-117205957D01*
X179298279Y-117324654D01*
X179437490Y-117290337D01*
X179740540Y-117156583D01*
X180011673Y-116966277D01*
X180240469Y-116726732D01*
X180418136Y-116447154D01*
X180537847Y-116138287D01*
X180595000Y-115812000D01*
X180595000Y-115062000D01*
X179037000Y-115062000D01*
X178783000Y-115062000D01*
X177225000Y-115062000D01*
X175595000Y-115062000D01*
X174037000Y-115062000D01*
X173783000Y-115062000D01*
X172225000Y-115062000D01*
X170393889Y-115062000D01*
X170393889Y-114058000D01*
X172225000Y-114058000D01*
X172225000Y-114808000D01*
X173783000Y-114808000D01*
X173783000Y-112664043D01*
X174037000Y-112664043D01*
X174037000Y-114808000D01*
X175595000Y-114808000D01*
X175595000Y-114058000D01*
X177225000Y-114058000D01*
X177225000Y-114808000D01*
X178783000Y-114808000D01*
X178783000Y-112664043D01*
X179037000Y-112664043D01*
X179037000Y-114808000D01*
X180595000Y-114808000D01*
X180595000Y-114058000D01*
X180537847Y-113731713D01*
X180418136Y-113422846D01*
X180240469Y-113143268D01*
X180011673Y-112903723D01*
X179740540Y-112713417D01*
X179437490Y-112579663D01*
X179298279Y-112545346D01*
X179037000Y-112664043D01*
X178783000Y-112664043D01*
X178521721Y-112545346D01*
X178382510Y-112579663D01*
X178079460Y-112713417D01*
X177808327Y-112903723D01*
X177579531Y-113143268D01*
X177401864Y-113422846D01*
X177282153Y-113731713D01*
X177225000Y-114058000D01*
X175595000Y-114058000D01*
X175537847Y-113731713D01*
X175418136Y-113422846D01*
X175240469Y-113143268D01*
X175011673Y-112903723D01*
X174740540Y-112713417D01*
X174437490Y-112579663D01*
X174298279Y-112545346D01*
X174037000Y-112664043D01*
X173783000Y-112664043D01*
X173521721Y-112545346D01*
X173382510Y-112579663D01*
X173079460Y-112713417D01*
X172808327Y-112903723D01*
X172579531Y-113143268D01*
X172401864Y-113422846D01*
X172282153Y-113731713D01*
X172225000Y-114058000D01*
X170393889Y-114058000D01*
X170393889Y-113135000D01*
X170388406Y-113066237D01*
X170352288Y-112949609D01*
X170285108Y-112847660D01*
X170192186Y-112768463D01*
X170080879Y-112718289D01*
X169960000Y-112701111D01*
X169722800Y-112701111D01*
X169722800Y-109818889D01*
X169815000Y-109818889D01*
X169883763Y-109813406D01*
X170000391Y-109777288D01*
X170102340Y-109710108D01*
X170181537Y-109617186D01*
X170231711Y-109505879D01*
X170248889Y-109385000D01*
X170248889Y-108870750D01*
X171180000Y-108870750D01*
X171180000Y-109447542D01*
X171204403Y-109570223D01*
X171252270Y-109685785D01*
X171321763Y-109789789D01*
X171410211Y-109878237D01*
X171514215Y-109947730D01*
X171629777Y-109995597D01*
X171752458Y-110020000D01*
X172029250Y-110020000D01*
X172188000Y-109861250D01*
X172188000Y-108712000D01*
X172442000Y-108712000D01*
X172442000Y-109861250D01*
X172600750Y-110020000D01*
X172877542Y-110020000D01*
X173000223Y-109995597D01*
X173115785Y-109947730D01*
X173219789Y-109878237D01*
X173308237Y-109789789D01*
X173377730Y-109685785D01*
X173425597Y-109570223D01*
X173450000Y-109447542D01*
X173450000Y-108870750D01*
X173291250Y-108712000D01*
X172442000Y-108712000D01*
X172188000Y-108712000D01*
X171338750Y-108712000D01*
X171180000Y-108870750D01*
X170248889Y-108870750D01*
X170248889Y-107785000D01*
X170243903Y-107722458D01*
X171180000Y-107722458D01*
X171180000Y-108299250D01*
X171338750Y-108458000D01*
X172188000Y-108458000D01*
X172188000Y-107308750D01*
X172442000Y-107308750D01*
X172442000Y-108458000D01*
X173291250Y-108458000D01*
X173450000Y-108299250D01*
X173450000Y-108235750D01*
X182594250Y-108235750D01*
X182594250Y-109012032D01*
X182618653Y-109134713D01*
X182666520Y-109250275D01*
X182736013Y-109354279D01*
X182824461Y-109442727D01*
X182928465Y-109512220D01*
X183044027Y-109560087D01*
X183166708Y-109584490D01*
X183942990Y-109584490D01*
X184101740Y-109425740D01*
X184101740Y-108077000D01*
X184355740Y-108077000D01*
X184355740Y-109425740D01*
X184514490Y-109584490D01*
X185290772Y-109584490D01*
X185413453Y-109560087D01*
X185529015Y-109512220D01*
X185633019Y-109442727D01*
X185721467Y-109354279D01*
X185790960Y-109250275D01*
X185838827Y-109134713D01*
X185863230Y-109012032D01*
X185863230Y-108235750D01*
X185704480Y-108077000D01*
X184355740Y-108077000D01*
X184101740Y-108077000D01*
X182753000Y-108077000D01*
X182594250Y-108235750D01*
X173450000Y-108235750D01*
X173450000Y-107722458D01*
X173425597Y-107599777D01*
X173377730Y-107484215D01*
X173308237Y-107380211D01*
X173219789Y-107291763D01*
X173115785Y-107222270D01*
X173000223Y-107174403D01*
X172877542Y-107150000D01*
X172600750Y-107150000D01*
X172442000Y-107308750D01*
X172188000Y-107308750D01*
X172029250Y-107150000D01*
X171752458Y-107150000D01*
X171629777Y-107174403D01*
X171514215Y-107222270D01*
X171410211Y-107291763D01*
X171321763Y-107380211D01*
X171252270Y-107484215D01*
X171204403Y-107599777D01*
X171180000Y-107722458D01*
X170243903Y-107722458D01*
X170243406Y-107716237D01*
X170207288Y-107599609D01*
X170140108Y-107497660D01*
X170047186Y-107418463D01*
X169935879Y-107368289D01*
X169815000Y-107351111D01*
X168815000Y-107351111D01*
X168746237Y-107356594D01*
X168629609Y-107392712D01*
X168527660Y-107459892D01*
X168448463Y-107552814D01*
X168398289Y-107664121D01*
X168381111Y-107785000D01*
X168381111Y-107972279D01*
X168341314Y-108004277D01*
X168339484Y-108006457D01*
X168337273Y-108008261D01*
X168288460Y-108067266D01*
X168239348Y-108125795D01*
X168237976Y-108128290D01*
X168236158Y-108130488D01*
X168199758Y-108197809D01*
X168162927Y-108264804D01*
X168162065Y-108267520D01*
X168160710Y-108270027D01*
X168138083Y-108343122D01*
X168114962Y-108416009D01*
X168114645Y-108418839D01*
X168113801Y-108421564D01*
X168105805Y-108497646D01*
X168097279Y-108573652D01*
X168097241Y-108579127D01*
X168097220Y-108579326D01*
X168097238Y-108579525D01*
X168097200Y-108585000D01*
X168097200Y-110292200D01*
X166788881Y-110292200D01*
X166788406Y-110286237D01*
X166752288Y-110169609D01*
X166685108Y-110067660D01*
X166592186Y-109988463D01*
X166542612Y-109966116D01*
X166545223Y-109965597D01*
X166660785Y-109917730D01*
X166764789Y-109848237D01*
X166853237Y-109759789D01*
X166922730Y-109655785D01*
X166970597Y-109540223D01*
X166995000Y-109417542D01*
X166995000Y-108890750D01*
X166836250Y-108732000D01*
X165862000Y-108732000D01*
X165862000Y-108752000D01*
X165608000Y-108752000D01*
X165608000Y-108732000D01*
X164633750Y-108732000D01*
X164475000Y-108890750D01*
X164475000Y-109417542D01*
X164499403Y-109540223D01*
X164547270Y-109655785D01*
X164616763Y-109759789D01*
X164705211Y-109848237D01*
X164809215Y-109917730D01*
X164921986Y-109964441D01*
X164822660Y-110029892D01*
X164743463Y-110122814D01*
X164693289Y-110234121D01*
X164685035Y-110292200D01*
X163321173Y-110292200D01*
X163007736Y-109978764D01*
X162949717Y-109931106D01*
X162892205Y-109882848D01*
X162888460Y-109880789D01*
X162885157Y-109878076D01*
X162818991Y-109842598D01*
X162753196Y-109806427D01*
X162749121Y-109805134D01*
X162745355Y-109803115D01*
X162673580Y-109781171D01*
X162601991Y-109758462D01*
X162597741Y-109757985D01*
X162593655Y-109756736D01*
X162518983Y-109749151D01*
X162444348Y-109740779D01*
X162435993Y-109740721D01*
X162435837Y-109740705D01*
X162435692Y-109740719D01*
X162433000Y-109740700D01*
X160316996Y-109740700D01*
X160295065Y-109707691D01*
X160111029Y-109522365D01*
X159930284Y-109400452D01*
X160058792Y-109331761D01*
X160142475Y-109077580D01*
X159258000Y-108193105D01*
X158373525Y-109077580D01*
X158457208Y-109331761D01*
X158593013Y-109396980D01*
X158419451Y-109510556D01*
X158232846Y-109693293D01*
X158085288Y-109908796D01*
X157982398Y-110148855D01*
X157928096Y-110404327D01*
X157924449Y-110665481D01*
X157971597Y-110922370D01*
X158067744Y-111165209D01*
X158209227Y-111384747D01*
X158390657Y-111572624D01*
X158605125Y-111721683D01*
X158844460Y-111826246D01*
X158889734Y-111836200D01*
X141941673Y-111836200D01*
X140401736Y-110296264D01*
X140377889Y-110276676D01*
X140377889Y-109847000D01*
X140372406Y-109778237D01*
X140336288Y-109661609D01*
X140269108Y-109559660D01*
X140176186Y-109480463D01*
X140126612Y-109458116D01*
X140129223Y-109457597D01*
X140244785Y-109409730D01*
X140348789Y-109340237D01*
X140437237Y-109251789D01*
X140506730Y-109147785D01*
X140554597Y-109032223D01*
X140579000Y-108909542D01*
X140579000Y-108382750D01*
X140420250Y-108224000D01*
X139446000Y-108224000D01*
X139446000Y-108244000D01*
X139192000Y-108244000D01*
X139192000Y-108224000D01*
X138217750Y-108224000D01*
X138059000Y-108382750D01*
X138059000Y-108909542D01*
X138083403Y-109032223D01*
X138131270Y-109147785D01*
X138200763Y-109251789D01*
X138289211Y-109340237D01*
X138393215Y-109409730D01*
X138505986Y-109456441D01*
X138406660Y-109521892D01*
X138327463Y-109614814D01*
X138277289Y-109726121D01*
X138275217Y-109740700D01*
X137456996Y-109740700D01*
X137435065Y-109707691D01*
X137251029Y-109522365D01*
X137034501Y-109376316D01*
X136810356Y-109282093D01*
X137001384Y-109207998D01*
X137221905Y-109068051D01*
X137411044Y-108887936D01*
X137561596Y-108674515D01*
X137667828Y-108435915D01*
X137725692Y-108181226D01*
X137727104Y-108080053D01*
X157717009Y-108080053D01*
X157759603Y-108379407D01*
X157859778Y-108664699D01*
X157939739Y-108814292D01*
X158193920Y-108897975D01*
X159078395Y-108013500D01*
X159437605Y-108013500D01*
X160322080Y-108897975D01*
X160576261Y-108814292D01*
X160707158Y-108541725D01*
X160782365Y-108248858D01*
X160798991Y-107946947D01*
X160777010Y-107792458D01*
X164475000Y-107792458D01*
X164475000Y-108319250D01*
X164633750Y-108478000D01*
X165608000Y-108478000D01*
X165608000Y-107378750D01*
X165862000Y-107378750D01*
X165862000Y-108478000D01*
X166836250Y-108478000D01*
X166995000Y-108319250D01*
X166995000Y-107792458D01*
X166970597Y-107669777D01*
X166922730Y-107554215D01*
X166853237Y-107450211D01*
X166764789Y-107361763D01*
X166660785Y-107292270D01*
X166545223Y-107244403D01*
X166422542Y-107220000D01*
X166020750Y-107220000D01*
X165862000Y-107378750D01*
X165608000Y-107378750D01*
X165449250Y-107220000D01*
X165047458Y-107220000D01*
X164924777Y-107244403D01*
X164809215Y-107292270D01*
X164705211Y-107361763D01*
X164616763Y-107450211D01*
X164547270Y-107554215D01*
X164499403Y-107669777D01*
X164475000Y-107792458D01*
X160777010Y-107792458D01*
X160756397Y-107647593D01*
X160656222Y-107362301D01*
X160576261Y-107212708D01*
X160322080Y-107129025D01*
X159437605Y-108013500D01*
X159078395Y-108013500D01*
X158193920Y-107129025D01*
X157939739Y-107212708D01*
X157808842Y-107485275D01*
X157733635Y-107778142D01*
X157717009Y-108080053D01*
X137727104Y-108080053D01*
X137729857Y-107882910D01*
X137679127Y-107626705D01*
X137579599Y-107385232D01*
X137512645Y-107284458D01*
X138059000Y-107284458D01*
X138059000Y-107811250D01*
X138217750Y-107970000D01*
X139192000Y-107970000D01*
X139192000Y-106870750D01*
X139446000Y-106870750D01*
X139446000Y-107970000D01*
X140420250Y-107970000D01*
X140579000Y-107811250D01*
X140579000Y-107284458D01*
X140554597Y-107161777D01*
X140506730Y-107046215D01*
X140437237Y-106942211D01*
X140348789Y-106853763D01*
X140244785Y-106784270D01*
X140129223Y-106736403D01*
X140006542Y-106712000D01*
X139604750Y-106712000D01*
X139446000Y-106870750D01*
X139192000Y-106870750D01*
X139033250Y-106712000D01*
X138631458Y-106712000D01*
X138508777Y-106736403D01*
X138393215Y-106784270D01*
X138289211Y-106853763D01*
X138200763Y-106942211D01*
X138131270Y-107046215D01*
X138083403Y-107161777D01*
X138059000Y-107284458D01*
X137512645Y-107284458D01*
X137435065Y-107167691D01*
X137251029Y-106982365D01*
X137034501Y-106836316D01*
X136810356Y-106742093D01*
X137001384Y-106667998D01*
X137221905Y-106528051D01*
X137411044Y-106347936D01*
X137561596Y-106134515D01*
X137667828Y-105895915D01*
X137725692Y-105641226D01*
X137729857Y-105342910D01*
X137679127Y-105086705D01*
X137579599Y-104845232D01*
X137435065Y-104627691D01*
X137251029Y-104442365D01*
X137034501Y-104296316D01*
X136810356Y-104202093D01*
X137001384Y-104127998D01*
X137221905Y-103988051D01*
X137411044Y-103807936D01*
X137561596Y-103594515D01*
X137667828Y-103355915D01*
X137725692Y-103101226D01*
X137729857Y-102802910D01*
X137679127Y-102546705D01*
X137579599Y-102305232D01*
X137435065Y-102087691D01*
X137251029Y-101902365D01*
X137034501Y-101756316D01*
X136810356Y-101662093D01*
X137001384Y-101587998D01*
X137221905Y-101448051D01*
X137411044Y-101267936D01*
X137561596Y-101054515D01*
X137667828Y-100815915D01*
X137725692Y-100561226D01*
X137729857Y-100262910D01*
X137679127Y-100006705D01*
X137579599Y-99765232D01*
X137435065Y-99547691D01*
X137251029Y-99362365D01*
X137034501Y-99216316D01*
X136810356Y-99122093D01*
X137001384Y-99047998D01*
X137221905Y-98908051D01*
X137411044Y-98727936D01*
X137561596Y-98514515D01*
X137667828Y-98275915D01*
X137725692Y-98021226D01*
X137729857Y-97722910D01*
X137679127Y-97466705D01*
X137579599Y-97225232D01*
X137435065Y-97007691D01*
X137251029Y-96822365D01*
X137034501Y-96676316D01*
X136810356Y-96582093D01*
X137001384Y-96507998D01*
X137221905Y-96368051D01*
X137411044Y-96187936D01*
X137561596Y-95974515D01*
X137667828Y-95735915D01*
X137725692Y-95481226D01*
X137729857Y-95182910D01*
X137679127Y-94926705D01*
X137579599Y-94685232D01*
X137435065Y-94467691D01*
X137251029Y-94282365D01*
X137034501Y-94136316D01*
X136810356Y-94042093D01*
X137001384Y-93967998D01*
X137221905Y-93828051D01*
X137411044Y-93647936D01*
X137561596Y-93434515D01*
X137667828Y-93195915D01*
X137725692Y-92941226D01*
X137729857Y-92642910D01*
X137679127Y-92386705D01*
X137579599Y-92145232D01*
X137435065Y-91927691D01*
X137251029Y-91742365D01*
X137034501Y-91596316D01*
X136793730Y-91495104D01*
X136537885Y-91442587D01*
X136276711Y-91440764D01*
X136020158Y-91489704D01*
X135777997Y-91587543D01*
X135559451Y-91730556D01*
X135372846Y-91913293D01*
X135296906Y-92024200D01*
X132420303Y-92024200D01*
X132268361Y-91835222D01*
X132092124Y-91687341D01*
X132250954Y-91585895D01*
X132482922Y-91363317D01*
X132667010Y-91099761D01*
X132796144Y-90805355D01*
X132827124Y-90677434D01*
X132707777Y-90424000D01*
X131064000Y-90424000D01*
X131064000Y-90444000D01*
X130810000Y-90444000D01*
X130810000Y-90424000D01*
X129166223Y-90424000D01*
X129046876Y-90677434D01*
X129077856Y-90805355D01*
X129206990Y-91099761D01*
X129391078Y-91363317D01*
X129623046Y-91585895D01*
X129782873Y-91687977D01*
X129619726Y-91821037D01*
X129441605Y-92036348D01*
X129308697Y-92282155D01*
X129226065Y-92549097D01*
X129196856Y-92827004D01*
X129222182Y-93105293D01*
X129301079Y-93373362D01*
X129430542Y-93621001D01*
X129605639Y-93838778D01*
X129819701Y-94018398D01*
X129981369Y-94107275D01*
X129836275Y-94184423D01*
X129619726Y-94361037D01*
X129441605Y-94576348D01*
X129308697Y-94822155D01*
X129226065Y-95089097D01*
X129196856Y-95367004D01*
X129222182Y-95645293D01*
X129301079Y-95913362D01*
X129430542Y-96161001D01*
X129605639Y-96378778D01*
X129819701Y-96558398D01*
X129981369Y-96647275D01*
X129836275Y-96724423D01*
X129619726Y-96901037D01*
X129441605Y-97116348D01*
X129308697Y-97362155D01*
X129226065Y-97629097D01*
X129196856Y-97907004D01*
X129222182Y-98185293D01*
X129301079Y-98453362D01*
X129430542Y-98701001D01*
X129605639Y-98918778D01*
X129819701Y-99098398D01*
X129981369Y-99187275D01*
X129836275Y-99264423D01*
X129619726Y-99441037D01*
X129441605Y-99656348D01*
X129308697Y-99902155D01*
X129226065Y-100169097D01*
X129196856Y-100447004D01*
X129222182Y-100725293D01*
X129301079Y-100993362D01*
X129430542Y-101241001D01*
X129605639Y-101458778D01*
X129819701Y-101638398D01*
X129981369Y-101727275D01*
X129836275Y-101804423D01*
X129619726Y-101981037D01*
X129441605Y-102196348D01*
X129308697Y-102442155D01*
X129226065Y-102709097D01*
X129196856Y-102987004D01*
X129222182Y-103265293D01*
X129301079Y-103533362D01*
X129430542Y-103781001D01*
X129605639Y-103998778D01*
X129819701Y-104178398D01*
X129981369Y-104267275D01*
X129836275Y-104344423D01*
X129619726Y-104521037D01*
X129441605Y-104736348D01*
X129308697Y-104982155D01*
X129226065Y-105249097D01*
X129196856Y-105527004D01*
X129222182Y-105805293D01*
X129301079Y-106073362D01*
X129430542Y-106321001D01*
X129605639Y-106538778D01*
X129729978Y-106643111D01*
X129637000Y-106643111D01*
X129568237Y-106648594D01*
X129451609Y-106684712D01*
X129349660Y-106751892D01*
X129270463Y-106844814D01*
X129220289Y-106956121D01*
X129203111Y-107077000D01*
X129203111Y-109077000D01*
X129208594Y-109145763D01*
X129244712Y-109262391D01*
X129311892Y-109364340D01*
X129404814Y-109443537D01*
X129516121Y-109493711D01*
X129637000Y-109510889D01*
X132237000Y-109510889D01*
X132305763Y-109505406D01*
X132422391Y-109469288D01*
X132524340Y-109402108D01*
X132603537Y-109309186D01*
X132653711Y-109197879D01*
X132670889Y-109077000D01*
X132670889Y-108826300D01*
X135337339Y-108826300D01*
X135349227Y-108844747D01*
X135530657Y-109032624D01*
X135745125Y-109181683D01*
X135981940Y-109285145D01*
X135777997Y-109367543D01*
X135559451Y-109510556D01*
X135372846Y-109693293D01*
X135225288Y-109908796D01*
X135122398Y-110148855D01*
X135068096Y-110404327D01*
X135064449Y-110665481D01*
X135111597Y-110922370D01*
X135207744Y-111165209D01*
X135349227Y-111384747D01*
X135530657Y-111572624D01*
X135745125Y-111721683D01*
X135984460Y-111826246D01*
X136239547Y-111882330D01*
X136500669Y-111887800D01*
X136757880Y-111842447D01*
X137001384Y-111747998D01*
X137221905Y-111608051D01*
X137411044Y-111427936D01*
X137454523Y-111366300D01*
X138261650Y-111366300D01*
X138265594Y-111415763D01*
X138301712Y-111532391D01*
X138368892Y-111634340D01*
X138461814Y-111713537D01*
X138573121Y-111763711D01*
X138694000Y-111780889D01*
X139587417Y-111780889D01*
X141030264Y-113223737D01*
X141088291Y-113271400D01*
X141145795Y-113319652D01*
X141149543Y-113321712D01*
X141152844Y-113324424D01*
X141218988Y-113359890D01*
X141284804Y-113396073D01*
X141288879Y-113397366D01*
X141292645Y-113399385D01*
X141364461Y-113421342D01*
X141436009Y-113444038D01*
X141440254Y-113444514D01*
X141444345Y-113445765D01*
X141519067Y-113453355D01*
X141593652Y-113461721D01*
X141602007Y-113461779D01*
X141602163Y-113461795D01*
X141602308Y-113461781D01*
X141605000Y-113461800D01*
X162082947Y-113461800D01*
X162171346Y-113553340D01*
X162361658Y-113685611D01*
X162574037Y-113778397D01*
X162800393Y-113828164D01*
X163032105Y-113833018D01*
X163260347Y-113792773D01*
X163476425Y-113708962D01*
X163672109Y-113584777D01*
X163839945Y-113424949D01*
X163973541Y-113235565D01*
X164067807Y-113023839D01*
X164119154Y-112797835D01*
X164122850Y-112533119D01*
X164077834Y-112305770D01*
X163989516Y-112091494D01*
X163874114Y-111917800D01*
X164681119Y-111917800D01*
X164681594Y-111923763D01*
X164717712Y-112040391D01*
X164784892Y-112142340D01*
X164877814Y-112221537D01*
X164989121Y-112271711D01*
X165110000Y-112288889D01*
X166360000Y-112288889D01*
X166428763Y-112283406D01*
X166545391Y-112247288D01*
X166647340Y-112180108D01*
X166726537Y-112087186D01*
X166776711Y-111975879D01*
X166784965Y-111917800D01*
X168097200Y-111917800D01*
X168097200Y-112701111D01*
X167860000Y-112701111D01*
X167791237Y-112706594D01*
X167674609Y-112742712D01*
X167572660Y-112809892D01*
X167493463Y-112902814D01*
X167443289Y-113014121D01*
X167426111Y-113135000D01*
X167426111Y-116735000D01*
X167431594Y-116803763D01*
X167467712Y-116920391D01*
X167534892Y-117022340D01*
X167627814Y-117101537D01*
X167739121Y-117151711D01*
X167860000Y-117168889D01*
X169041917Y-117168889D01*
X170748263Y-118875236D01*
X170806308Y-118922914D01*
X170863795Y-118971152D01*
X170867540Y-118973211D01*
X170870843Y-118975924D01*
X170937009Y-119011402D01*
X171002804Y-119047573D01*
X171006879Y-119048866D01*
X171010645Y-119050885D01*
X171082433Y-119072833D01*
X171154009Y-119095538D01*
X171158257Y-119096015D01*
X171162344Y-119097264D01*
X171237023Y-119104850D01*
X171311652Y-119113221D01*
X171320007Y-119113279D01*
X171320163Y-119113295D01*
X171320308Y-119113281D01*
X171323000Y-119113300D01*
X182118000Y-119113300D01*
X182192716Y-119105974D01*
X182267516Y-119099430D01*
X182271623Y-119098237D01*
X182275874Y-119097820D01*
X182347736Y-119076124D01*
X182419848Y-119055173D01*
X182423642Y-119053207D01*
X182427734Y-119051971D01*
X182494053Y-119016708D01*
X182560682Y-118982171D01*
X182564020Y-118979506D01*
X182567797Y-118977498D01*
X182625999Y-118930030D01*
X182684656Y-118883205D01*
X182690600Y-118877342D01*
X182690727Y-118877239D01*
X182690824Y-118877122D01*
X182692736Y-118875236D01*
X187852173Y-113715800D01*
X208089500Y-113715800D01*
X208164216Y-113708474D01*
X208239016Y-113701930D01*
X208243123Y-113700737D01*
X208247374Y-113700320D01*
X208319236Y-113678624D01*
X208391348Y-113657673D01*
X208395142Y-113655707D01*
X208399234Y-113654471D01*
X208465553Y-113619208D01*
X208532182Y-113584671D01*
X208535520Y-113582006D01*
X208539297Y-113579998D01*
X208597499Y-113532530D01*
X208656156Y-113485705D01*
X208662100Y-113479842D01*
X208662227Y-113479739D01*
X208662324Y-113479622D01*
X208664236Y-113477736D01*
X212370200Y-109771773D01*
X212370200Y-119685600D01*
X128116800Y-119685600D01*
X128116800Y-89916566D01*
X129046876Y-89916566D01*
X129166223Y-90170000D01*
X130810000Y-90170000D01*
X130810000Y-88662000D01*
X131064000Y-88662000D01*
X131064000Y-90170000D01*
X132707777Y-90170000D01*
X132827124Y-89916566D01*
X132796144Y-89788645D01*
X132667010Y-89494239D01*
X132482922Y-89230683D01*
X132250954Y-89008105D01*
X131980020Y-88835058D01*
X131680532Y-88718193D01*
X131364000Y-88662000D01*
X131064000Y-88662000D01*
X130810000Y-88662000D01*
X130510000Y-88662000D01*
X130193468Y-88718193D01*
X129893980Y-88835058D01*
X129623046Y-89008105D01*
X129391078Y-89230683D01*
X129206990Y-89494239D01*
X129077856Y-89788645D01*
X129046876Y-89916566D01*
X128116800Y-89916566D01*
X128116800Y-86614000D01*
X154127200Y-86614000D01*
X154127200Y-103632000D01*
X154134526Y-103706716D01*
X154141070Y-103781516D01*
X154142263Y-103785623D01*
X154142680Y-103789874D01*
X154164376Y-103861736D01*
X154185327Y-103933848D01*
X154187293Y-103937642D01*
X154188529Y-103941734D01*
X154223792Y-104008053D01*
X154258329Y-104074682D01*
X154260994Y-104078020D01*
X154263002Y-104081797D01*
X154310470Y-104139999D01*
X154357295Y-104198656D01*
X154363158Y-104204600D01*
X154363261Y-104204727D01*
X154363378Y-104204824D01*
X154365264Y-104206736D01*
X156206763Y-106048236D01*
X156264808Y-106095914D01*
X156322295Y-106144152D01*
X156326040Y-106146211D01*
X156329343Y-106148924D01*
X156395509Y-106184402D01*
X156461304Y-106220573D01*
X156465379Y-106221866D01*
X156469145Y-106223885D01*
X156540933Y-106245833D01*
X156612509Y-106268538D01*
X156616757Y-106269015D01*
X156620844Y-106270264D01*
X156695523Y-106277850D01*
X156770152Y-106286221D01*
X156778507Y-106286279D01*
X156778663Y-106286295D01*
X156778808Y-106286281D01*
X156781500Y-106286300D01*
X158197339Y-106286300D01*
X158209227Y-106304747D01*
X158390657Y-106492624D01*
X158584378Y-106627264D01*
X158457208Y-106695239D01*
X158373525Y-106949420D01*
X159258000Y-107833895D01*
X160142475Y-106949420D01*
X160058792Y-106695239D01*
X159921985Y-106629539D01*
X160081905Y-106528051D01*
X160271044Y-106347936D01*
X160421596Y-106134515D01*
X160527828Y-105895915D01*
X160585692Y-105641226D01*
X160589857Y-105342910D01*
X160539127Y-105086705D01*
X160439599Y-104845232D01*
X160295065Y-104627691D01*
X160111029Y-104442365D01*
X159894501Y-104296316D01*
X159670356Y-104202093D01*
X159861384Y-104127998D01*
X160081905Y-103988051D01*
X160271044Y-103807936D01*
X160421596Y-103594515D01*
X160527828Y-103355915D01*
X160550504Y-103256106D01*
X160613350Y-103353624D01*
X160774346Y-103520340D01*
X160964658Y-103652611D01*
X161177037Y-103745397D01*
X161403393Y-103795164D01*
X161635105Y-103800018D01*
X161863347Y-103759773D01*
X162079425Y-103675962D01*
X162179807Y-103612257D01*
X162031308Y-103757678D01*
X161900370Y-103948909D01*
X161809069Y-104161930D01*
X161760883Y-104388629D01*
X161757647Y-104620369D01*
X161799484Y-104848324D01*
X161884802Y-105063812D01*
X162010350Y-105258624D01*
X162128200Y-105380661D01*
X162128200Y-105440795D01*
X162031308Y-105535678D01*
X161900370Y-105726909D01*
X161809069Y-105939930D01*
X161760883Y-106166629D01*
X161757647Y-106398369D01*
X161799484Y-106626324D01*
X161884802Y-106841812D01*
X162010350Y-107036624D01*
X162171346Y-107203340D01*
X162361658Y-107335611D01*
X162574037Y-107428397D01*
X162800393Y-107478164D01*
X163032105Y-107483018D01*
X163260347Y-107442773D01*
X163476425Y-107358962D01*
X163672109Y-107234777D01*
X163839945Y-107074949D01*
X163971845Y-106887968D01*
X182594250Y-106887968D01*
X182594250Y-107664250D01*
X182753000Y-107823000D01*
X184101740Y-107823000D01*
X184101740Y-106474260D01*
X184355740Y-106474260D01*
X184355740Y-107823000D01*
X185704480Y-107823000D01*
X185863230Y-107664250D01*
X185863230Y-106887968D01*
X185838827Y-106765287D01*
X185790960Y-106649725D01*
X185721467Y-106545721D01*
X185633019Y-106457273D01*
X185529015Y-106387780D01*
X185413453Y-106339913D01*
X185290772Y-106315510D01*
X184514490Y-106315510D01*
X184355740Y-106474260D01*
X184101740Y-106474260D01*
X183942990Y-106315510D01*
X183166708Y-106315510D01*
X183044027Y-106339913D01*
X182928465Y-106387780D01*
X182824461Y-106457273D01*
X182736013Y-106545721D01*
X182666520Y-106649725D01*
X182618653Y-106765287D01*
X182594250Y-106887968D01*
X163971845Y-106887968D01*
X163973541Y-106885565D01*
X164067807Y-106673839D01*
X164119154Y-106447835D01*
X164122850Y-106183119D01*
X164077834Y-105955770D01*
X163989516Y-105741494D01*
X163959124Y-105695750D01*
X173895000Y-105695750D01*
X173895000Y-106097542D01*
X173919403Y-106220223D01*
X173967270Y-106335785D01*
X174036763Y-106439789D01*
X174125211Y-106528237D01*
X174229215Y-106597730D01*
X174344777Y-106645597D01*
X174467458Y-106670000D01*
X174994250Y-106670000D01*
X175153000Y-106511250D01*
X175153000Y-105537000D01*
X174053750Y-105537000D01*
X173895000Y-105695750D01*
X163959124Y-105695750D01*
X163861261Y-105548454D01*
X163753800Y-105440241D01*
X163753800Y-105378984D01*
X163839945Y-105296949D01*
X163860507Y-105267800D01*
X167330445Y-105267800D01*
X167339121Y-105271711D01*
X167460000Y-105288889D01*
X168360000Y-105288889D01*
X168428763Y-105283406D01*
X168545391Y-105247288D01*
X168647340Y-105180108D01*
X168726537Y-105087186D01*
X168776711Y-104975879D01*
X168793889Y-104855000D01*
X168793889Y-104722458D01*
X173895000Y-104722458D01*
X173895000Y-105124250D01*
X174053750Y-105283000D01*
X175153000Y-105283000D01*
X175153000Y-104308750D01*
X174994250Y-104150000D01*
X174467458Y-104150000D01*
X174344777Y-104174403D01*
X174229215Y-104222270D01*
X174125211Y-104291763D01*
X174036763Y-104380211D01*
X173967270Y-104484215D01*
X173919403Y-104599777D01*
X173895000Y-104722458D01*
X168793889Y-104722458D01*
X168793889Y-104055000D01*
X168788406Y-103986237D01*
X168752288Y-103869609D01*
X168685108Y-103767660D01*
X168592186Y-103688463D01*
X168480879Y-103638289D01*
X168360000Y-103621111D01*
X167460000Y-103621111D01*
X167391237Y-103626594D01*
X167340844Y-103642200D01*
X163733898Y-103642200D01*
X163697952Y-103606002D01*
X163505812Y-103476401D01*
X163292159Y-103386590D01*
X163200622Y-103367800D01*
X167330445Y-103367800D01*
X167339121Y-103371711D01*
X167460000Y-103388889D01*
X168360000Y-103388889D01*
X168428763Y-103383406D01*
X168545391Y-103347288D01*
X168647340Y-103280108D01*
X168726537Y-103187186D01*
X168763584Y-103105000D01*
X169026111Y-103105000D01*
X169026111Y-103905000D01*
X169031594Y-103973763D01*
X169067712Y-104090391D01*
X169134892Y-104192340D01*
X169227814Y-104271537D01*
X169339121Y-104321711D01*
X169460000Y-104338889D01*
X170360000Y-104338889D01*
X170428763Y-104333406D01*
X170479156Y-104317800D01*
X170815000Y-104317800D01*
X170889716Y-104310474D01*
X170964516Y-104303930D01*
X170968623Y-104302737D01*
X170972874Y-104302320D01*
X171044736Y-104280624D01*
X171116848Y-104259673D01*
X171120642Y-104257707D01*
X171124734Y-104256471D01*
X171191053Y-104221208D01*
X171257682Y-104186671D01*
X171261020Y-104184006D01*
X171264797Y-104181998D01*
X171322999Y-104134530D01*
X171381656Y-104087705D01*
X171387600Y-104081842D01*
X171387727Y-104081739D01*
X171387824Y-104081622D01*
X171389736Y-104079736D01*
X172643748Y-102825725D01*
X172696841Y-102831680D01*
X172714040Y-102831800D01*
X172725960Y-102831800D01*
X172965218Y-102808341D01*
X173195362Y-102738856D01*
X173407628Y-102625992D01*
X173593928Y-102474049D01*
X173644598Y-102412800D01*
X173653328Y-102412800D01*
X174050264Y-102809737D01*
X174108291Y-102857400D01*
X174165795Y-102905652D01*
X174169543Y-102907712D01*
X174172844Y-102910424D01*
X174239023Y-102945909D01*
X174304804Y-102982073D01*
X174308874Y-102983364D01*
X174312645Y-102985386D01*
X174384507Y-103007356D01*
X174456009Y-103030038D01*
X174460253Y-103030514D01*
X174464345Y-103031765D01*
X174539067Y-103039355D01*
X174613652Y-103047721D01*
X174622007Y-103047779D01*
X174622163Y-103047795D01*
X174622308Y-103047781D01*
X174625000Y-103047800D01*
X174830716Y-103047800D01*
X174837712Y-103070391D01*
X174904892Y-103172340D01*
X174997814Y-103251537D01*
X175109121Y-103301711D01*
X175230000Y-103318889D01*
X175930000Y-103318889D01*
X175998763Y-103313406D01*
X176115391Y-103277288D01*
X176217340Y-103210108D01*
X176296537Y-103117186D01*
X176346711Y-103005879D01*
X176363889Y-102885000D01*
X176363889Y-102438203D01*
X176376199Y-102398436D01*
X176392780Y-102240674D01*
X176378403Y-102082696D01*
X176363889Y-102033382D01*
X176363889Y-101585000D01*
X176358406Y-101516237D01*
X176322288Y-101399609D01*
X176255108Y-101297660D01*
X176162186Y-101218463D01*
X176050879Y-101168289D01*
X175930000Y-101151111D01*
X175230000Y-101151111D01*
X175161237Y-101156594D01*
X175044609Y-101192712D01*
X174942660Y-101259892D01*
X174876726Y-101337253D01*
X174564736Y-101025264D01*
X174506717Y-100977606D01*
X174449205Y-100929348D01*
X174445460Y-100927289D01*
X174442157Y-100924576D01*
X174375991Y-100889098D01*
X174310196Y-100852927D01*
X174306121Y-100851634D01*
X174302355Y-100849615D01*
X174230580Y-100827671D01*
X174158991Y-100804962D01*
X174154741Y-100804485D01*
X174150655Y-100803236D01*
X174075983Y-100795651D01*
X174001348Y-100787279D01*
X173992993Y-100787221D01*
X173992837Y-100787205D01*
X173992692Y-100787219D01*
X173990000Y-100787200D01*
X173645480Y-100787200D01*
X173606047Y-100738155D01*
X173421886Y-100583625D01*
X173211218Y-100467809D01*
X172982066Y-100395118D01*
X172743159Y-100368320D01*
X172725960Y-100368200D01*
X172714040Y-100368200D01*
X172474782Y-100391659D01*
X172244638Y-100461144D01*
X172032372Y-100574008D01*
X171846072Y-100725951D01*
X171692832Y-100911186D01*
X171578489Y-101122658D01*
X171507399Y-101352312D01*
X171482270Y-101591400D01*
X171490350Y-101680178D01*
X170481816Y-102688712D01*
X170480879Y-102688289D01*
X170360000Y-102671111D01*
X169460000Y-102671111D01*
X169391237Y-102676594D01*
X169274609Y-102712712D01*
X169172660Y-102779892D01*
X169093463Y-102872814D01*
X169043289Y-102984121D01*
X169026111Y-103105000D01*
X168763584Y-103105000D01*
X168776711Y-103075879D01*
X168793889Y-102955000D01*
X168793889Y-102155000D01*
X168788406Y-102086237D01*
X168752288Y-101969609D01*
X168685108Y-101867660D01*
X168592186Y-101788463D01*
X168480879Y-101738289D01*
X168360000Y-101721111D01*
X167460000Y-101721111D01*
X167391237Y-101726594D01*
X167340844Y-101742200D01*
X164128753Y-101742200D01*
X164194807Y-101593839D01*
X164246154Y-101367835D01*
X164248668Y-101187805D01*
X164277737Y-101158736D01*
X164325400Y-101100709D01*
X164373652Y-101043205D01*
X164375712Y-101039457D01*
X164378424Y-101036156D01*
X164413909Y-100969977D01*
X164450073Y-100904196D01*
X164451364Y-100900126D01*
X164453386Y-100896355D01*
X164475356Y-100824493D01*
X164475893Y-100822800D01*
X167330445Y-100822800D01*
X167339121Y-100826711D01*
X167460000Y-100843889D01*
X168360000Y-100843889D01*
X168428763Y-100838406D01*
X168545391Y-100802288D01*
X168647340Y-100735108D01*
X168726537Y-100642186D01*
X168776711Y-100530879D01*
X168793889Y-100410000D01*
X168793889Y-99610000D01*
X168788406Y-99541237D01*
X168752288Y-99424609D01*
X168685108Y-99322660D01*
X168592186Y-99243463D01*
X168480879Y-99193289D01*
X168360000Y-99176111D01*
X167460000Y-99176111D01*
X167391237Y-99181594D01*
X167340844Y-99197200D01*
X164122668Y-99197200D01*
X164077834Y-98970770D01*
X163989516Y-98756494D01*
X163929591Y-98666300D01*
X164071490Y-98666300D01*
X164124892Y-98747340D01*
X164217814Y-98826537D01*
X164329121Y-98876711D01*
X164450000Y-98893889D01*
X164895863Y-98893889D01*
X164931009Y-98905038D01*
X164935254Y-98905514D01*
X164939345Y-98906765D01*
X165014067Y-98914355D01*
X165088652Y-98922721D01*
X165097007Y-98922779D01*
X165097163Y-98922795D01*
X165097308Y-98922781D01*
X165100000Y-98922800D01*
X167330445Y-98922800D01*
X167339121Y-98926711D01*
X167460000Y-98943889D01*
X168360000Y-98943889D01*
X168428763Y-98938406D01*
X168545391Y-98902288D01*
X168647340Y-98835108D01*
X168726537Y-98742186D01*
X168763584Y-98660000D01*
X169026111Y-98660000D01*
X169026111Y-99460000D01*
X169031594Y-99528763D01*
X169067712Y-99645391D01*
X169134892Y-99747340D01*
X169227814Y-99826537D01*
X169339121Y-99876711D01*
X169460000Y-99893889D01*
X170360000Y-99893889D01*
X170428763Y-99888406D01*
X170479156Y-99872800D01*
X171794520Y-99872800D01*
X171833953Y-99921845D01*
X172018114Y-100076375D01*
X172228782Y-100192191D01*
X172457934Y-100264882D01*
X172696841Y-100291680D01*
X172714040Y-100291800D01*
X172725960Y-100291800D01*
X172965218Y-100268341D01*
X173195362Y-100198856D01*
X173407628Y-100085992D01*
X173593928Y-99934049D01*
X173644598Y-99872800D01*
X174625000Y-99872800D01*
X174699716Y-99865474D01*
X174774516Y-99858930D01*
X174778623Y-99857737D01*
X174782874Y-99857320D01*
X174854736Y-99835624D01*
X174926848Y-99814673D01*
X174930642Y-99812707D01*
X174934734Y-99811471D01*
X175001053Y-99776208D01*
X175067682Y-99741671D01*
X175071020Y-99739006D01*
X175074797Y-99736998D01*
X175132999Y-99689530D01*
X175191656Y-99642705D01*
X175197600Y-99636842D01*
X175197727Y-99636739D01*
X175197824Y-99636622D01*
X175199736Y-99634736D01*
X175325583Y-99508889D01*
X175930000Y-99508889D01*
X175998763Y-99503406D01*
X176115391Y-99467288D01*
X176217340Y-99400108D01*
X176296537Y-99307186D01*
X176346711Y-99195879D01*
X176363889Y-99075000D01*
X176363889Y-98628203D01*
X176376199Y-98588436D01*
X176392780Y-98430674D01*
X176378403Y-98272696D01*
X176363889Y-98223382D01*
X176363889Y-97775000D01*
X176358406Y-97706237D01*
X176322288Y-97589609D01*
X176255108Y-97487660D01*
X176162186Y-97408463D01*
X176050879Y-97358289D01*
X175930000Y-97341111D01*
X175230000Y-97341111D01*
X175161237Y-97346594D01*
X175044609Y-97382712D01*
X174942660Y-97449892D01*
X174863463Y-97542814D01*
X174813289Y-97654121D01*
X174798603Y-97757463D01*
X174752028Y-97795448D01*
X174693344Y-97842295D01*
X174687395Y-97848161D01*
X174687273Y-97848261D01*
X174687179Y-97848374D01*
X174685264Y-97850263D01*
X174288328Y-98247200D01*
X173645480Y-98247200D01*
X173606047Y-98198155D01*
X173532800Y-98136693D01*
X173532800Y-97443904D01*
X173593928Y-97394049D01*
X173747168Y-97208814D01*
X173861511Y-96997342D01*
X173932601Y-96767688D01*
X173957730Y-96528600D01*
X173935941Y-96289184D01*
X173868065Y-96058560D01*
X173756686Y-95845512D01*
X173606047Y-95658155D01*
X173421886Y-95503625D01*
X173211218Y-95387809D01*
X172982066Y-95315118D01*
X172743159Y-95288320D01*
X172725960Y-95288200D01*
X172714040Y-95288200D01*
X172474782Y-95311659D01*
X172244638Y-95381144D01*
X172032372Y-95494008D01*
X171846072Y-95645951D01*
X171692832Y-95831186D01*
X171578489Y-96042658D01*
X171507399Y-96272312D01*
X171482270Y-96511400D01*
X171504059Y-96750816D01*
X171571935Y-96981440D01*
X171683314Y-97194488D01*
X171833953Y-97381845D01*
X171907200Y-97443307D01*
X171907200Y-98136096D01*
X171846072Y-98185951D01*
X171795402Y-98247200D01*
X170489555Y-98247200D01*
X170480879Y-98243289D01*
X170360000Y-98226111D01*
X169460000Y-98226111D01*
X169391237Y-98231594D01*
X169274609Y-98267712D01*
X169172660Y-98334892D01*
X169093463Y-98427814D01*
X169043289Y-98539121D01*
X169026111Y-98660000D01*
X168763584Y-98660000D01*
X168776711Y-98630879D01*
X168793889Y-98510000D01*
X168793889Y-97710000D01*
X168788406Y-97641237D01*
X168752288Y-97524609D01*
X168685108Y-97422660D01*
X168592186Y-97343463D01*
X168480879Y-97293289D01*
X168360000Y-97276111D01*
X167460000Y-97276111D01*
X167391237Y-97281594D01*
X167340844Y-97297200D01*
X165436672Y-97297200D01*
X165418236Y-97278764D01*
X165360217Y-97231106D01*
X165302705Y-97182848D01*
X165298960Y-97180789D01*
X165295657Y-97178076D01*
X165229491Y-97142598D01*
X165163696Y-97106427D01*
X165159621Y-97105134D01*
X165155855Y-97103115D01*
X165084080Y-97081171D01*
X165012491Y-97058462D01*
X165008241Y-97057985D01*
X165004155Y-97056736D01*
X164929483Y-97049151D01*
X164854848Y-97040779D01*
X164846493Y-97040721D01*
X164846337Y-97040705D01*
X164846192Y-97040719D01*
X164843500Y-97040700D01*
X163319705Y-97040700D01*
X163387347Y-97028773D01*
X163603425Y-96944962D01*
X163799109Y-96820777D01*
X163966945Y-96660949D01*
X164100541Y-96471565D01*
X164194807Y-96259839D01*
X164246154Y-96033835D01*
X164248668Y-95853804D01*
X164359672Y-95742800D01*
X167330445Y-95742800D01*
X167339121Y-95746711D01*
X167460000Y-95763889D01*
X168360000Y-95763889D01*
X168428763Y-95758406D01*
X168545391Y-95722288D01*
X168647340Y-95655108D01*
X168726537Y-95562186D01*
X168776711Y-95450879D01*
X168793889Y-95330000D01*
X168793889Y-94530000D01*
X168788406Y-94461237D01*
X168752288Y-94344609D01*
X168685108Y-94242660D01*
X168592186Y-94163463D01*
X168480879Y-94113289D01*
X168360000Y-94096111D01*
X167460000Y-94096111D01*
X167391237Y-94101594D01*
X167340844Y-94117200D01*
X164023000Y-94117200D01*
X163948284Y-94124526D01*
X163873484Y-94131070D01*
X163869377Y-94132263D01*
X163865126Y-94132680D01*
X163793264Y-94154376D01*
X163721152Y-94175327D01*
X163717358Y-94177293D01*
X163713266Y-94178529D01*
X163646947Y-94213792D01*
X163580318Y-94248329D01*
X163576980Y-94250994D01*
X163573203Y-94253002D01*
X163520431Y-94296042D01*
X163973673Y-93842800D01*
X167330445Y-93842800D01*
X167339121Y-93846711D01*
X167460000Y-93863889D01*
X168360000Y-93863889D01*
X168428763Y-93858406D01*
X168545391Y-93822288D01*
X168647340Y-93755108D01*
X168726537Y-93662186D01*
X168763584Y-93580000D01*
X169026111Y-93580000D01*
X169026111Y-94380000D01*
X169031594Y-94448763D01*
X169067712Y-94565391D01*
X169134892Y-94667340D01*
X169227814Y-94746537D01*
X169339121Y-94796711D01*
X169460000Y-94813889D01*
X170360000Y-94813889D01*
X170428763Y-94808406D01*
X170479156Y-94792800D01*
X171794520Y-94792800D01*
X171833953Y-94841845D01*
X172018114Y-94996375D01*
X172228782Y-95112191D01*
X172457934Y-95184882D01*
X172696841Y-95211680D01*
X172714040Y-95211800D01*
X172725960Y-95211800D01*
X172965218Y-95188341D01*
X173195362Y-95118856D01*
X173407628Y-95005992D01*
X173593928Y-94854049D01*
X173644598Y-94792800D01*
X174830716Y-94792800D01*
X174837712Y-94815391D01*
X174904892Y-94917340D01*
X174997814Y-94996537D01*
X175109121Y-95046711D01*
X175230000Y-95063889D01*
X175930000Y-95063889D01*
X175998763Y-95058406D01*
X176115391Y-95022288D01*
X176217340Y-94955108D01*
X176296537Y-94862186D01*
X176346711Y-94750879D01*
X176363889Y-94630000D01*
X176363889Y-94183203D01*
X176376199Y-94143436D01*
X176392780Y-93985674D01*
X176378403Y-93827696D01*
X176363889Y-93778382D01*
X176363889Y-93330000D01*
X176358406Y-93261237D01*
X176322288Y-93144609D01*
X176255108Y-93042660D01*
X176162186Y-92963463D01*
X176050879Y-92913289D01*
X175930000Y-92896111D01*
X175230000Y-92896111D01*
X175161237Y-92901594D01*
X175044609Y-92937712D01*
X174942660Y-93004892D01*
X174863463Y-93097814D01*
X174832186Y-93167200D01*
X173645480Y-93167200D01*
X173606047Y-93118155D01*
X173421886Y-92963625D01*
X173211218Y-92847809D01*
X172982066Y-92775118D01*
X172743159Y-92748320D01*
X172725960Y-92748200D01*
X172714040Y-92748200D01*
X172474782Y-92771659D01*
X172244638Y-92841144D01*
X172032372Y-92954008D01*
X171846072Y-93105951D01*
X171795402Y-93167200D01*
X170489555Y-93167200D01*
X170480879Y-93163289D01*
X170360000Y-93146111D01*
X169460000Y-93146111D01*
X169391237Y-93151594D01*
X169274609Y-93187712D01*
X169172660Y-93254892D01*
X169093463Y-93347814D01*
X169043289Y-93459121D01*
X169026111Y-93580000D01*
X168763584Y-93580000D01*
X168776711Y-93550879D01*
X168793889Y-93430000D01*
X168793889Y-92630000D01*
X168788406Y-92561237D01*
X168752288Y-92444609D01*
X168685108Y-92342660D01*
X168592186Y-92263463D01*
X168480879Y-92213289D01*
X168360000Y-92196111D01*
X167460000Y-92196111D01*
X167391237Y-92201594D01*
X167340844Y-92217200D01*
X163637000Y-92217200D01*
X163562276Y-92224527D01*
X163487485Y-92231070D01*
X163483379Y-92232263D01*
X163479126Y-92232680D01*
X163407238Y-92254384D01*
X163335153Y-92275327D01*
X163331361Y-92277293D01*
X163327266Y-92278529D01*
X163260968Y-92313781D01*
X163194318Y-92348328D01*
X163190976Y-92350996D01*
X163187203Y-92353002D01*
X163129028Y-92400448D01*
X163070344Y-92447295D01*
X163064395Y-92453161D01*
X163064273Y-92453261D01*
X163064179Y-92453374D01*
X163062264Y-92455263D01*
X162723053Y-92794475D01*
X162725850Y-92594119D01*
X162680834Y-92366770D01*
X162592516Y-92152494D01*
X162464261Y-91959454D01*
X162300952Y-91795002D01*
X162108812Y-91665401D01*
X161895159Y-91575590D01*
X161668129Y-91528987D01*
X161436372Y-91527369D01*
X161208714Y-91570797D01*
X160993828Y-91657617D01*
X160799897Y-91784522D01*
X160634308Y-91946678D01*
X160624707Y-91960700D01*
X160316996Y-91960700D01*
X160295065Y-91927691D01*
X160111029Y-91742365D01*
X159894501Y-91596316D01*
X159653730Y-91495104D01*
X159397885Y-91442587D01*
X159136711Y-91440764D01*
X158880158Y-91489704D01*
X158637997Y-91587543D01*
X158419451Y-91730556D01*
X158232846Y-91913293D01*
X158085288Y-92128796D01*
X157982398Y-92368855D01*
X157928096Y-92624327D01*
X157924449Y-92885481D01*
X157971597Y-93142370D01*
X158067744Y-93385209D01*
X158209227Y-93604747D01*
X158390657Y-93792624D01*
X158605125Y-93941683D01*
X158841940Y-94045145D01*
X158637997Y-94127543D01*
X158419451Y-94270556D01*
X158232846Y-94453293D01*
X158085288Y-94668796D01*
X157982398Y-94908855D01*
X157928096Y-95164327D01*
X157924449Y-95425481D01*
X157971597Y-95682370D01*
X158067744Y-95925209D01*
X158209227Y-96144747D01*
X158390657Y-96332624D01*
X158605125Y-96481683D01*
X158841940Y-96585145D01*
X158637997Y-96667543D01*
X158419451Y-96810556D01*
X158232846Y-96993293D01*
X158085288Y-97208796D01*
X157982398Y-97448855D01*
X157928096Y-97704327D01*
X157924449Y-97965481D01*
X157971597Y-98222370D01*
X158067744Y-98465209D01*
X158209227Y-98684747D01*
X158390657Y-98872624D01*
X158605125Y-99021683D01*
X158841940Y-99125145D01*
X158637997Y-99207543D01*
X158419451Y-99350556D01*
X158415701Y-99354228D01*
X157276800Y-98215328D01*
X157276800Y-90897750D01*
X163942000Y-90897750D01*
X163942000Y-91024542D01*
X163966403Y-91147223D01*
X164014270Y-91262785D01*
X164083763Y-91366789D01*
X164172211Y-91455237D01*
X164276215Y-91524730D01*
X164391777Y-91572597D01*
X164514458Y-91597000D01*
X164941250Y-91597000D01*
X165100000Y-91438250D01*
X165100000Y-90739000D01*
X165354000Y-90739000D01*
X165354000Y-91438250D01*
X165512750Y-91597000D01*
X165939542Y-91597000D01*
X166062223Y-91572597D01*
X166177785Y-91524730D01*
X166281789Y-91455237D01*
X166370237Y-91366789D01*
X166439730Y-91262785D01*
X166487597Y-91147223D01*
X166512000Y-91024542D01*
X166512000Y-90897750D01*
X166353250Y-90739000D01*
X165354000Y-90739000D01*
X165100000Y-90739000D01*
X164100750Y-90739000D01*
X163942000Y-90897750D01*
X157276800Y-90897750D01*
X157276800Y-90199458D01*
X163942000Y-90199458D01*
X163942000Y-90326250D01*
X164100750Y-90485000D01*
X165100000Y-90485000D01*
X165100000Y-89785750D01*
X165354000Y-89785750D01*
X165354000Y-90485000D01*
X166353250Y-90485000D01*
X166512000Y-90326250D01*
X166512000Y-90199458D01*
X166487597Y-90076777D01*
X166439730Y-89961215D01*
X166370237Y-89857211D01*
X166281789Y-89768763D01*
X166177785Y-89699270D01*
X166062223Y-89651403D01*
X165939542Y-89627000D01*
X165512750Y-89627000D01*
X165354000Y-89785750D01*
X165100000Y-89785750D01*
X164941250Y-89627000D01*
X164514458Y-89627000D01*
X164391777Y-89651403D01*
X164276215Y-89699270D01*
X164172211Y-89768763D01*
X164083763Y-89857211D01*
X164014270Y-89961215D01*
X163966403Y-90076777D01*
X163942000Y-90199458D01*
X157276800Y-90199458D01*
X157276800Y-88982672D01*
X158816737Y-87442736D01*
X158816742Y-87442730D01*
X159086673Y-87172800D01*
X161566853Y-87172800D01*
X161598853Y-87222455D01*
X161787095Y-87417385D01*
X162009614Y-87572040D01*
X162257934Y-87680529D01*
X162522598Y-87738719D01*
X162793523Y-87744394D01*
X163060391Y-87697338D01*
X163313037Y-87599343D01*
X163541837Y-87454142D01*
X163738077Y-87267265D01*
X163843111Y-87118370D01*
X163843111Y-87360000D01*
X163848594Y-87428763D01*
X163884712Y-87545391D01*
X163951892Y-87647340D01*
X164044814Y-87726537D01*
X164156121Y-87776711D01*
X164277000Y-87793889D01*
X164414200Y-87793889D01*
X164414200Y-87962716D01*
X164391609Y-87969712D01*
X164289660Y-88036892D01*
X164210463Y-88129814D01*
X164160289Y-88241121D01*
X164143111Y-88362000D01*
X164143111Y-89062000D01*
X164148594Y-89130763D01*
X164184712Y-89247391D01*
X164251892Y-89349340D01*
X164344814Y-89428537D01*
X164456121Y-89478711D01*
X164577000Y-89495889D01*
X165023797Y-89495889D01*
X165063564Y-89508199D01*
X165221326Y-89524780D01*
X165379304Y-89510403D01*
X165428618Y-89495889D01*
X165877000Y-89495889D01*
X165945763Y-89490406D01*
X166062391Y-89454288D01*
X166164340Y-89387108D01*
X166243537Y-89294186D01*
X166293711Y-89182879D01*
X166310889Y-89062000D01*
X166310889Y-88362000D01*
X166305406Y-88293237D01*
X166269288Y-88176609D01*
X166202108Y-88074660D01*
X166109186Y-87995463D01*
X166039800Y-87964186D01*
X166039800Y-87793889D01*
X166177000Y-87793889D01*
X166245763Y-87788406D01*
X166362391Y-87752288D01*
X166464340Y-87685108D01*
X166543537Y-87592186D01*
X166593711Y-87480879D01*
X166610889Y-87360000D01*
X166610889Y-85360000D01*
X166605406Y-85291237D01*
X166569288Y-85174609D01*
X166502108Y-85072660D01*
X166409186Y-84993463D01*
X166297879Y-84943289D01*
X166177000Y-84926111D01*
X164277000Y-84926111D01*
X164208237Y-84931594D01*
X164091609Y-84967712D01*
X163989660Y-85034892D01*
X163910463Y-85127814D01*
X163860289Y-85239121D01*
X163843111Y-85360000D01*
X163843111Y-85603013D01*
X163763000Y-85482436D01*
X163572054Y-85290153D01*
X163347398Y-85138620D01*
X163097586Y-85033609D01*
X162832136Y-84979120D01*
X162561158Y-84977228D01*
X162294973Y-85028006D01*
X162043720Y-85129519D01*
X161816969Y-85277900D01*
X161623358Y-85467498D01*
X161568785Y-85547200D01*
X158750000Y-85547200D01*
X158675234Y-85554531D01*
X158600484Y-85561071D01*
X158596382Y-85562263D01*
X158592126Y-85562680D01*
X158520222Y-85584389D01*
X158448152Y-85605327D01*
X158444358Y-85607293D01*
X158440266Y-85608529D01*
X158373947Y-85643792D01*
X158307318Y-85678329D01*
X158303980Y-85680994D01*
X158300203Y-85683002D01*
X158241995Y-85730475D01*
X158183343Y-85777296D01*
X158177395Y-85783161D01*
X158177273Y-85783261D01*
X158177179Y-85783374D01*
X158175263Y-85785264D01*
X157667336Y-86293192D01*
X157667264Y-86293263D01*
X155889264Y-88071264D01*
X155841606Y-88129283D01*
X155793348Y-88186795D01*
X155791289Y-88190540D01*
X155788576Y-88193843D01*
X155753098Y-88260009D01*
X155752800Y-88260551D01*
X155752800Y-86950672D01*
X158070673Y-84632800D01*
X167176328Y-84632800D01*
X168335263Y-85791736D01*
X168393308Y-85839414D01*
X168450795Y-85887652D01*
X168454540Y-85889711D01*
X168457843Y-85892424D01*
X168524009Y-85927902D01*
X168589804Y-85964073D01*
X168593879Y-85965366D01*
X168597645Y-85967385D01*
X168669433Y-85989333D01*
X168741009Y-86012038D01*
X168745257Y-86012515D01*
X168749344Y-86013764D01*
X168824023Y-86021350D01*
X168898652Y-86029721D01*
X168907007Y-86029779D01*
X168907163Y-86029795D01*
X168907308Y-86029781D01*
X168910000Y-86029800D01*
X173683111Y-86029800D01*
X173683111Y-86233000D01*
X173688594Y-86301763D01*
X173724712Y-86418391D01*
X173791892Y-86520340D01*
X173884814Y-86599537D01*
X173996121Y-86649711D01*
X174117000Y-86666889D01*
X176149000Y-86666889D01*
X176217763Y-86661406D01*
X176334391Y-86625288D01*
X176436340Y-86558108D01*
X176515537Y-86465186D01*
X176538521Y-86414198D01*
X176550431Y-86427642D01*
X176808185Y-86623382D01*
X177099174Y-86765076D01*
X177290056Y-86822975D01*
X177546000Y-86703836D01*
X177546000Y-85344000D01*
X177800000Y-85344000D01*
X177800000Y-86703836D01*
X178055944Y-86822975D01*
X178246826Y-86765076D01*
X178537815Y-86623382D01*
X178795569Y-86427642D01*
X179010184Y-86185377D01*
X179173411Y-85905898D01*
X179278978Y-85599945D01*
X179160362Y-85344000D01*
X177800000Y-85344000D01*
X177546000Y-85344000D01*
X177526000Y-85344000D01*
X177526000Y-85090000D01*
X177546000Y-85090000D01*
X177546000Y-83730164D01*
X177800000Y-83730164D01*
X177800000Y-85090000D01*
X179160362Y-85090000D01*
X179278978Y-84834055D01*
X179173411Y-84528102D01*
X179010184Y-84248623D01*
X178795569Y-84006358D01*
X178537815Y-83810618D01*
X178246826Y-83668924D01*
X178055944Y-83611025D01*
X177800000Y-83730164D01*
X177546000Y-83730164D01*
X177290056Y-83611025D01*
X177099174Y-83668924D01*
X176808185Y-83810618D01*
X176550431Y-84006358D01*
X176541534Y-84016402D01*
X176541288Y-84015609D01*
X176474108Y-83913660D01*
X176381186Y-83834463D01*
X176269879Y-83784289D01*
X176149000Y-83767111D01*
X174117000Y-83767111D01*
X174048237Y-83772594D01*
X173931609Y-83808712D01*
X173829660Y-83875892D01*
X173750463Y-83968814D01*
X173700289Y-84080121D01*
X173683111Y-84201000D01*
X173683111Y-84404200D01*
X169246673Y-84404200D01*
X168087736Y-83245264D01*
X168029717Y-83197606D01*
X167972205Y-83149348D01*
X167968460Y-83147289D01*
X167965157Y-83144576D01*
X167898991Y-83109098D01*
X167833196Y-83072927D01*
X167829121Y-83071634D01*
X167825355Y-83069615D01*
X167753580Y-83047671D01*
X167681991Y-83024962D01*
X167677741Y-83024485D01*
X167673655Y-83023236D01*
X167598983Y-83015651D01*
X167524348Y-83007279D01*
X167515993Y-83007221D01*
X167515837Y-83007205D01*
X167515692Y-83007219D01*
X167513000Y-83007200D01*
X157734000Y-83007200D01*
X157659276Y-83014527D01*
X157584485Y-83021070D01*
X157580379Y-83022263D01*
X157576126Y-83022680D01*
X157504238Y-83044384D01*
X157432153Y-83065327D01*
X157428361Y-83067293D01*
X157424266Y-83068529D01*
X157357968Y-83103781D01*
X157291318Y-83138328D01*
X157287976Y-83140996D01*
X157284203Y-83143002D01*
X157226028Y-83190448D01*
X157167344Y-83237295D01*
X157161395Y-83243161D01*
X157161273Y-83243261D01*
X157161179Y-83243374D01*
X157159264Y-83245263D01*
X154365264Y-86039264D01*
X154317606Y-86097283D01*
X154269348Y-86154795D01*
X154267289Y-86158540D01*
X154264576Y-86161843D01*
X154229098Y-86228009D01*
X154192927Y-86293804D01*
X154191634Y-86297879D01*
X154189615Y-86301645D01*
X154167671Y-86373420D01*
X154144962Y-86445009D01*
X154144485Y-86449259D01*
X154143236Y-86453345D01*
X154135651Y-86528017D01*
X154127279Y-86602652D01*
X154127221Y-86611007D01*
X154127205Y-86611163D01*
X154127219Y-86611308D01*
X154127200Y-86614000D01*
X128116800Y-86614000D01*
X128116800Y-80999800D01*
X212370200Y-80999800D01*
X212370200Y-91205727D01*
X212370200Y-91205727D01*
G37*
X212370200Y-91205727D02*
X207521236Y-86356764D01*
X207463217Y-86309106D01*
X207405705Y-86260848D01*
X207401960Y-86258789D01*
X207398657Y-86256076D01*
X207332491Y-86220598D01*
X207266696Y-86184427D01*
X207262621Y-86183134D01*
X207258855Y-86181115D01*
X207187080Y-86159171D01*
X207115491Y-86136462D01*
X207111241Y-86135985D01*
X207107155Y-86134736D01*
X207032483Y-86127151D01*
X206957848Y-86118779D01*
X206949493Y-86118721D01*
X206949337Y-86118705D01*
X206949192Y-86118719D01*
X206946500Y-86118700D01*
X187467240Y-86118700D01*
X187392516Y-86126027D01*
X187317725Y-86132570D01*
X187313619Y-86133763D01*
X187309366Y-86134180D01*
X187237478Y-86155884D01*
X187165393Y-86176827D01*
X187161601Y-86178793D01*
X187157506Y-86180029D01*
X187091208Y-86215281D01*
X187024558Y-86249828D01*
X187021216Y-86252496D01*
X187017443Y-86254502D01*
X186959268Y-86301948D01*
X186900584Y-86348795D01*
X186894635Y-86354661D01*
X186894513Y-86354761D01*
X186894419Y-86354874D01*
X186892504Y-86356763D01*
X184512647Y-88736621D01*
X183229250Y-88736621D01*
X183160487Y-88742104D01*
X183043859Y-88778222D01*
X182941910Y-88845402D01*
X182862713Y-88938324D01*
X182812539Y-89049631D01*
X182795361Y-89170510D01*
X182795361Y-90453906D01*
X180487051Y-92762217D01*
X180363159Y-92748320D01*
X180345960Y-92748200D01*
X180334040Y-92748200D01*
X180094782Y-92771659D01*
X179864638Y-92841144D01*
X179652372Y-92954008D01*
X179466072Y-93105951D01*
X179415402Y-93167200D01*
X178229284Y-93167200D01*
X178222288Y-93144609D01*
X178155108Y-93042660D01*
X178062186Y-92963463D01*
X177950879Y-92913289D01*
X177830000Y-92896111D01*
X177130000Y-92896111D01*
X177061237Y-92901594D01*
X176944609Y-92937712D01*
X176842660Y-93004892D01*
X176763463Y-93097814D01*
X176713289Y-93209121D01*
X176696111Y-93330000D01*
X176696111Y-93775863D01*
X176684962Y-93811009D01*
X176684645Y-93813839D01*
X176683801Y-93816564D01*
X176675805Y-93892646D01*
X176667279Y-93968652D01*
X176667241Y-93974127D01*
X176667220Y-93974326D01*
X176667238Y-93974525D01*
X176667200Y-93980000D01*
X176667200Y-103185000D01*
X176674526Y-103259716D01*
X176681070Y-103334516D01*
X176682263Y-103338623D01*
X176682680Y-103342874D01*
X176704376Y-103414736D01*
X176725327Y-103486848D01*
X176727293Y-103490642D01*
X176728529Y-103494734D01*
X176763792Y-103561053D01*
X176798329Y-103627682D01*
X176800994Y-103631020D01*
X176803002Y-103634797D01*
X176850470Y-103692999D01*
X176897295Y-103751656D01*
X176903158Y-103757600D01*
X176903261Y-103757727D01*
X176903378Y-103757824D01*
X176905264Y-103759736D01*
X176967200Y-103821672D01*
X176967200Y-104356119D01*
X176961237Y-104356594D01*
X176844609Y-104392712D01*
X176742660Y-104459892D01*
X176663463Y-104552814D01*
X176641116Y-104602388D01*
X176640597Y-104599777D01*
X176592730Y-104484215D01*
X176523237Y-104380211D01*
X176434789Y-104291763D01*
X176330785Y-104222270D01*
X176215223Y-104174403D01*
X176092542Y-104150000D01*
X175565750Y-104150000D01*
X175407000Y-104308750D01*
X175407000Y-105283000D01*
X175427000Y-105283000D01*
X175427000Y-105537000D01*
X175407000Y-105537000D01*
X175407000Y-106511250D01*
X175565750Y-106670000D01*
X176092542Y-106670000D01*
X176215223Y-106645597D01*
X176330785Y-106597730D01*
X176434789Y-106528237D01*
X176523237Y-106439789D01*
X176592730Y-106335785D01*
X176639441Y-106223014D01*
X176704892Y-106322340D01*
X176797814Y-106401537D01*
X176909121Y-106451711D01*
X177030000Y-106468889D01*
X178530000Y-106468889D01*
X178598763Y-106463406D01*
X178715391Y-106427288D01*
X178817340Y-106360108D01*
X178896537Y-106267186D01*
X178946711Y-106155879D01*
X178963889Y-106035000D01*
X178963889Y-104785000D01*
X178958406Y-104716237D01*
X178922288Y-104599609D01*
X178855108Y-104497660D01*
X178762186Y-104418463D01*
X178650879Y-104368289D01*
X178592800Y-104360035D01*
X178592800Y-103485000D01*
X178585469Y-103410234D01*
X178578929Y-103335484D01*
X178577737Y-103331382D01*
X178577320Y-103327126D01*
X178555611Y-103255222D01*
X178534673Y-103183152D01*
X178532707Y-103179358D01*
X178531471Y-103175266D01*
X178496208Y-103108947D01*
X178461671Y-103042318D01*
X178459006Y-103038980D01*
X178456998Y-103035203D01*
X178409530Y-102977001D01*
X178362705Y-102918344D01*
X178356842Y-102912400D01*
X178356739Y-102912273D01*
X178356622Y-102912176D01*
X178354736Y-102910264D01*
X178292800Y-102848328D01*
X178292800Y-101949039D01*
X178948096Y-101949039D01*
X178988754Y-102083087D01*
X179108963Y-102337420D01*
X179276481Y-102563414D01*
X179484869Y-102752385D01*
X179726119Y-102897070D01*
X179990960Y-102991909D01*
X180213000Y-102870624D01*
X180213000Y-101727000D01*
X180467000Y-101727000D01*
X180467000Y-102870624D01*
X180689040Y-102991909D01*
X180953881Y-102897070D01*
X181195131Y-102752385D01*
X181403519Y-102563414D01*
X181571037Y-102337420D01*
X181691246Y-102083087D01*
X181731904Y-101949039D01*
X181609915Y-101727000D01*
X180467000Y-101727000D01*
X180213000Y-101727000D01*
X179070085Y-101727000D01*
X178948096Y-101949039D01*
X178292800Y-101949039D01*
X178292800Y-101250961D01*
X178948096Y-101250961D01*
X179070085Y-101473000D01*
X180213000Y-101473000D01*
X180213000Y-101453000D01*
X180467000Y-101453000D01*
X180467000Y-101473000D01*
X181609915Y-101473000D01*
X181731904Y-101250961D01*
X181691246Y-101116913D01*
X181571037Y-100862580D01*
X181403519Y-100636586D01*
X181195131Y-100447615D01*
X180953881Y-100302930D01*
X180732833Y-100223773D01*
X180815362Y-100198856D01*
X181027628Y-100085992D01*
X181213928Y-99934049D01*
X181264598Y-99872800D01*
X183593740Y-99872800D01*
X183668456Y-99865474D01*
X183743256Y-99858930D01*
X183745153Y-99858379D01*
X185228230Y-99858379D01*
X185296993Y-99852896D01*
X185413621Y-99816778D01*
X185515570Y-99749598D01*
X185594767Y-99656676D01*
X185644941Y-99545369D01*
X185662119Y-99424490D01*
X185662119Y-97425510D01*
X185656636Y-97356747D01*
X185620518Y-97240119D01*
X185553338Y-97138170D01*
X185460416Y-97058973D01*
X185349109Y-97008799D01*
X185228230Y-96991621D01*
X183229250Y-96991621D01*
X183160487Y-96997104D01*
X183043859Y-97033222D01*
X182941910Y-97100402D01*
X182862713Y-97193324D01*
X182812539Y-97304631D01*
X182795361Y-97425510D01*
X182795361Y-98247200D01*
X181265480Y-98247200D01*
X181226047Y-98198155D01*
X181041886Y-98043625D01*
X180831218Y-97927809D01*
X180602066Y-97855118D01*
X180363159Y-97828320D01*
X180345960Y-97828200D01*
X180334040Y-97828200D01*
X180094782Y-97851659D01*
X179864638Y-97921144D01*
X179652372Y-98034008D01*
X179466072Y-98185951D01*
X179312832Y-98371186D01*
X179198489Y-98582658D01*
X179127399Y-98812312D01*
X179102270Y-99051400D01*
X179124059Y-99290816D01*
X179191935Y-99521440D01*
X179303314Y-99734488D01*
X179453953Y-99921845D01*
X179638114Y-100076375D01*
X179848782Y-100192191D01*
X179947719Y-100223576D01*
X179726119Y-100302930D01*
X179484869Y-100447615D01*
X179276481Y-100636586D01*
X179108963Y-100862580D01*
X178988754Y-101116913D01*
X178948096Y-101250961D01*
X178292800Y-101250961D01*
X178292800Y-96511400D01*
X179102270Y-96511400D01*
X179124059Y-96750816D01*
X179191935Y-96981440D01*
X179303314Y-97194488D01*
X179453953Y-97381845D01*
X179638114Y-97536375D01*
X179848782Y-97652191D01*
X180077934Y-97724882D01*
X180316841Y-97751680D01*
X180334040Y-97751800D01*
X180345960Y-97751800D01*
X180585218Y-97728341D01*
X180815362Y-97658856D01*
X181027628Y-97545992D01*
X181213928Y-97394049D01*
X181264598Y-97332800D01*
X181610000Y-97332800D01*
X181684716Y-97325474D01*
X181759516Y-97318930D01*
X181763623Y-97317737D01*
X181767874Y-97317320D01*
X181839736Y-97295624D01*
X181911848Y-97274673D01*
X181915642Y-97272707D01*
X181919734Y-97271471D01*
X181986053Y-97236208D01*
X182052682Y-97201671D01*
X182056020Y-97199006D01*
X182059797Y-97196998D01*
X182117999Y-97149530D01*
X182176656Y-97102705D01*
X182182600Y-97096842D01*
X182182727Y-97096739D01*
X182182824Y-97096622D01*
X182184736Y-97094736D01*
X183851673Y-95427800D01*
X187623328Y-95427800D01*
X188417200Y-96221673D01*
X188417200Y-101263327D01*
X187623328Y-102057200D01*
X185662119Y-102057200D01*
X185662119Y-101870510D01*
X185656636Y-101801747D01*
X185620518Y-101685119D01*
X185553338Y-101583170D01*
X185460416Y-101503973D01*
X185349109Y-101453799D01*
X185228230Y-101436621D01*
X183229250Y-101436621D01*
X183160487Y-101442104D01*
X183043859Y-101478222D01*
X182941910Y-101545402D01*
X182862713Y-101638324D01*
X182812539Y-101749631D01*
X182795361Y-101870510D01*
X182795361Y-103869490D01*
X182800844Y-103938253D01*
X182836962Y-104054881D01*
X182904142Y-104156830D01*
X182997064Y-104236027D01*
X183108371Y-104286201D01*
X183229250Y-104303379D01*
X185228230Y-104303379D01*
X185296993Y-104297896D01*
X185413621Y-104261778D01*
X185515570Y-104194598D01*
X185594767Y-104101676D01*
X185644941Y-103990369D01*
X185662119Y-103869490D01*
X185662119Y-103682800D01*
X187960000Y-103682800D01*
X188034716Y-103675474D01*
X188109516Y-103668930D01*
X188113623Y-103667737D01*
X188117874Y-103667320D01*
X188189736Y-103645624D01*
X188261848Y-103624673D01*
X188265642Y-103622707D01*
X188269734Y-103621471D01*
X188336053Y-103586208D01*
X188402682Y-103551671D01*
X188406020Y-103549006D01*
X188409797Y-103546998D01*
X188467999Y-103499530D01*
X188526656Y-103452705D01*
X188532600Y-103446842D01*
X188532727Y-103446739D01*
X188532824Y-103446622D01*
X188534736Y-103444736D01*
X189804736Y-102174737D01*
X189852414Y-102116692D01*
X189900652Y-102059205D01*
X189902711Y-102055460D01*
X189905424Y-102052157D01*
X189940902Y-101985991D01*
X189977073Y-101920196D01*
X189978366Y-101916121D01*
X189980385Y-101912355D01*
X189993178Y-101870510D01*
X192797881Y-101870510D01*
X192797881Y-103869490D01*
X192803364Y-103938253D01*
X192839482Y-104054881D01*
X192906662Y-104156830D01*
X192999584Y-104236027D01*
X193110891Y-104286201D01*
X193231770Y-104303379D01*
X193418460Y-104303379D01*
X193418460Y-106516621D01*
X193231770Y-106516621D01*
X193163007Y-106522104D01*
X193046379Y-106558222D01*
X192944430Y-106625402D01*
X192865233Y-106718324D01*
X192815059Y-106829631D01*
X192797881Y-106950510D01*
X192797881Y-108949490D01*
X192803364Y-109018253D01*
X192839482Y-109134881D01*
X192906662Y-109236830D01*
X192999584Y-109316027D01*
X193110891Y-109366201D01*
X193231770Y-109383379D01*
X195230750Y-109383379D01*
X195299513Y-109377896D01*
X195416141Y-109341778D01*
X195518090Y-109274598D01*
X195597287Y-109181676D01*
X195647461Y-109070369D01*
X195664639Y-108949490D01*
X195664639Y-106950510D01*
X195659156Y-106881747D01*
X195623038Y-106765119D01*
X195555858Y-106663170D01*
X195462936Y-106583973D01*
X195351629Y-106533799D01*
X195230750Y-106516621D01*
X195044060Y-106516621D01*
X195044060Y-104303379D01*
X195230750Y-104303379D01*
X195299513Y-104297896D01*
X195416141Y-104261778D01*
X195518090Y-104194598D01*
X195597287Y-104101676D01*
X195647461Y-103990369D01*
X195664639Y-103869490D01*
X195664639Y-103682800D01*
X197956621Y-103682800D01*
X197956621Y-103790750D01*
X197962104Y-103859513D01*
X197998222Y-103976141D01*
X198065402Y-104078090D01*
X198158324Y-104157287D01*
X198269631Y-104207461D01*
X198390510Y-104224639D01*
X200389490Y-104224639D01*
X200458253Y-104219156D01*
X200574881Y-104183038D01*
X200676830Y-104115858D01*
X200756027Y-104022936D01*
X200806201Y-103911629D01*
X200823379Y-103790750D01*
X200823379Y-103682800D01*
X203506111Y-103682800D01*
X203506111Y-103920000D01*
X203511594Y-103988763D01*
X203547712Y-104105391D01*
X203614892Y-104207340D01*
X203707814Y-104286537D01*
X203819121Y-104336711D01*
X203940000Y-104353889D01*
X207540000Y-104353889D01*
X207608763Y-104348406D01*
X207725391Y-104312288D01*
X207827340Y-104245108D01*
X207906537Y-104152186D01*
X207956711Y-104040879D01*
X207973889Y-103920000D01*
X207973889Y-101820000D01*
X207968406Y-101751237D01*
X207932288Y-101634609D01*
X207865108Y-101532660D01*
X207772186Y-101453463D01*
X207660879Y-101403289D01*
X207540000Y-101386111D01*
X203940000Y-101386111D01*
X203871237Y-101391594D01*
X203754609Y-101427712D01*
X203652660Y-101494892D01*
X203573463Y-101587814D01*
X203523289Y-101699121D01*
X203506111Y-101820000D01*
X203506111Y-102057200D01*
X200823379Y-102057200D01*
X200823379Y-101791770D01*
X200817896Y-101723007D01*
X200781778Y-101606379D01*
X200714598Y-101504430D01*
X200621676Y-101425233D01*
X200510369Y-101375059D01*
X200389490Y-101357881D01*
X198390510Y-101357881D01*
X198321747Y-101363364D01*
X198205119Y-101399482D01*
X198103170Y-101466662D01*
X198023973Y-101559584D01*
X197973799Y-101670891D01*
X197956621Y-101791770D01*
X197956621Y-102057200D01*
X195664639Y-102057200D01*
X195664639Y-101870510D01*
X195659156Y-101801747D01*
X195623038Y-101685119D01*
X195555858Y-101583170D01*
X195462936Y-101503973D01*
X195351629Y-101453799D01*
X195230750Y-101436621D01*
X193231770Y-101436621D01*
X193163007Y-101442104D01*
X193046379Y-101478222D01*
X192944430Y-101545402D01*
X192865233Y-101638324D01*
X192815059Y-101749631D01*
X192797881Y-101870510D01*
X189993178Y-101870510D01*
X190002333Y-101840567D01*
X190025038Y-101768991D01*
X190025515Y-101764743D01*
X190026764Y-101760656D01*
X190034350Y-101685977D01*
X190042721Y-101611348D01*
X190042779Y-101602993D01*
X190042795Y-101602837D01*
X190042781Y-101602692D01*
X190042800Y-101600000D01*
X190042800Y-95885000D01*
X190035469Y-95810234D01*
X190028929Y-95735484D01*
X190027737Y-95731382D01*
X190027320Y-95727126D01*
X190005611Y-95655222D01*
X189984673Y-95583152D01*
X189982707Y-95579358D01*
X189981471Y-95575266D01*
X189946208Y-95508947D01*
X189911671Y-95442318D01*
X189909006Y-95438980D01*
X189906998Y-95435203D01*
X189859530Y-95377001D01*
X189812705Y-95318344D01*
X189806839Y-95312395D01*
X189806739Y-95312273D01*
X189806626Y-95312179D01*
X189804736Y-95310263D01*
X188534736Y-94040264D01*
X188476717Y-93992606D01*
X188419205Y-93944348D01*
X188415460Y-93942289D01*
X188412157Y-93939576D01*
X188345991Y-93904098D01*
X188280196Y-93867927D01*
X188276121Y-93866634D01*
X188272355Y-93864615D01*
X188200580Y-93842671D01*
X188128991Y-93819962D01*
X188124741Y-93819485D01*
X188120655Y-93818236D01*
X188045983Y-93810651D01*
X187971348Y-93802279D01*
X187962993Y-93802221D01*
X187962837Y-93802205D01*
X187962692Y-93802219D01*
X187960000Y-93802200D01*
X183515000Y-93802200D01*
X183440276Y-93809527D01*
X183365485Y-93816070D01*
X183361379Y-93817263D01*
X183357126Y-93817680D01*
X183285252Y-93839380D01*
X183213152Y-93860327D01*
X183209358Y-93862293D01*
X183205266Y-93863529D01*
X183138986Y-93898771D01*
X183072318Y-93933328D01*
X183068976Y-93935996D01*
X183065203Y-93938002D01*
X183007028Y-93985448D01*
X182948344Y-94032295D01*
X182942395Y-94038161D01*
X182942273Y-94038261D01*
X182942179Y-94038374D01*
X182940264Y-94040263D01*
X181273328Y-95707200D01*
X181265480Y-95707200D01*
X181226047Y-95658155D01*
X181041886Y-95503625D01*
X180831218Y-95387809D01*
X180602066Y-95315118D01*
X180363159Y-95288320D01*
X180345960Y-95288200D01*
X180334040Y-95288200D01*
X180094782Y-95311659D01*
X179864638Y-95381144D01*
X179652372Y-95494008D01*
X179466072Y-95645951D01*
X179312832Y-95831186D01*
X179198489Y-96042658D01*
X179127399Y-96272312D01*
X179102270Y-96511400D01*
X178292800Y-96511400D01*
X178292800Y-94792800D01*
X179414520Y-94792800D01*
X179453953Y-94841845D01*
X179638114Y-94996375D01*
X179848782Y-95112191D01*
X180077934Y-95184882D01*
X180316841Y-95211680D01*
X180334040Y-95211800D01*
X180345960Y-95211800D01*
X180585218Y-95188341D01*
X180815362Y-95118856D01*
X181027628Y-95005992D01*
X181213928Y-94854049D01*
X181367168Y-94668814D01*
X181481511Y-94457342D01*
X181552601Y-94227688D01*
X181577730Y-93988600D01*
X181576219Y-93971993D01*
X183944834Y-91603379D01*
X185228230Y-91603379D01*
X185296993Y-91597896D01*
X185413621Y-91561778D01*
X185515570Y-91494598D01*
X185594767Y-91401676D01*
X185644941Y-91290369D01*
X185662119Y-91169490D01*
X185662119Y-89886093D01*
X186377702Y-89170510D01*
X192797881Y-89170510D01*
X192797881Y-91169490D01*
X192803364Y-91238253D01*
X192839482Y-91354881D01*
X192906662Y-91456830D01*
X192999584Y-91536027D01*
X193110891Y-91586201D01*
X193231770Y-91603379D01*
X193418460Y-91603379D01*
X193418460Y-96991621D01*
X193231770Y-96991621D01*
X193163007Y-96997104D01*
X193046379Y-97033222D01*
X192944430Y-97100402D01*
X192865233Y-97193324D01*
X192815059Y-97304631D01*
X192797881Y-97425510D01*
X192797881Y-99424490D01*
X192803364Y-99493253D01*
X192839482Y-99609881D01*
X192906662Y-99711830D01*
X192999584Y-99791027D01*
X193110891Y-99841201D01*
X193231770Y-99858379D01*
X195230750Y-99858379D01*
X195299513Y-99852896D01*
X195416141Y-99816778D01*
X195518090Y-99749598D01*
X195597287Y-99656676D01*
X195647461Y-99545369D01*
X195664639Y-99424490D01*
X195664639Y-98178279D01*
X203350346Y-98178279D01*
X203384663Y-98317490D01*
X203518417Y-98620540D01*
X203708723Y-98891673D01*
X203948268Y-99120469D01*
X204227846Y-99298136D01*
X204536713Y-99417847D01*
X204863000Y-99475000D01*
X205613000Y-99475000D01*
X205613000Y-97917000D01*
X205867000Y-97917000D01*
X205867000Y-99475000D01*
X206617000Y-99475000D01*
X206943287Y-99417847D01*
X207252154Y-99298136D01*
X207531732Y-99120469D01*
X207771277Y-98891673D01*
X207961583Y-98620540D01*
X208095337Y-98317490D01*
X208129654Y-98178279D01*
X208010957Y-97917000D01*
X205867000Y-97917000D01*
X205613000Y-97917000D01*
X203469043Y-97917000D01*
X203350346Y-98178279D01*
X195664639Y-98178279D01*
X195664639Y-97425510D01*
X195662743Y-97401721D01*
X203350346Y-97401721D01*
X203469043Y-97663000D01*
X205613000Y-97663000D01*
X205613000Y-96105000D01*
X205867000Y-96105000D01*
X205867000Y-97663000D01*
X208010957Y-97663000D01*
X208129654Y-97401721D01*
X208095337Y-97262510D01*
X207961583Y-96959460D01*
X207771277Y-96688327D01*
X207531732Y-96459531D01*
X207252154Y-96281864D01*
X206943287Y-96162153D01*
X206617000Y-96105000D01*
X205867000Y-96105000D01*
X205613000Y-96105000D01*
X204863000Y-96105000D01*
X204536713Y-96162153D01*
X204227846Y-96281864D01*
X203948268Y-96459531D01*
X203708723Y-96688327D01*
X203518417Y-96959460D01*
X203384663Y-97262510D01*
X203350346Y-97401721D01*
X195662743Y-97401721D01*
X195659156Y-97356747D01*
X195623038Y-97240119D01*
X195555858Y-97138170D01*
X195462936Y-97058973D01*
X195351629Y-97008799D01*
X195230750Y-96991621D01*
X195044060Y-96991621D01*
X195044060Y-91603379D01*
X195230750Y-91603379D01*
X195299513Y-91597896D01*
X195416141Y-91561778D01*
X195518090Y-91494598D01*
X195597287Y-91401676D01*
X195647461Y-91290369D01*
X195664639Y-91169490D01*
X195664639Y-90982800D01*
X196592068Y-90982800D01*
X197956621Y-92347354D01*
X197956621Y-93788230D01*
X197962104Y-93856993D01*
X197998222Y-93973621D01*
X198065402Y-94075570D01*
X198158324Y-94154767D01*
X198269631Y-94204941D01*
X198390510Y-94222119D01*
X200389490Y-94222119D01*
X200458253Y-94216636D01*
X200574881Y-94180518D01*
X200676830Y-94113338D01*
X200756027Y-94020416D01*
X200806201Y-93909109D01*
X200823379Y-93788230D01*
X200823379Y-93522800D01*
X203740427Y-93522800D01*
X203920495Y-93746761D01*
X204142033Y-93932653D01*
X204395458Y-94071975D01*
X204671117Y-94159419D01*
X204958512Y-94191656D01*
X204979201Y-94191800D01*
X206500799Y-94191800D01*
X206788615Y-94163579D01*
X207065469Y-94079992D01*
X207320815Y-93944223D01*
X207544926Y-93761442D01*
X207729267Y-93538612D01*
X207866816Y-93284221D01*
X207952334Y-93007957D01*
X207982563Y-92720345D01*
X207956352Y-92432338D01*
X207874700Y-92154908D01*
X207740716Y-91898621D01*
X207559505Y-91673239D01*
X207337967Y-91487347D01*
X207084542Y-91348025D01*
X206808883Y-91260581D01*
X206521488Y-91228344D01*
X206500799Y-91228200D01*
X204979201Y-91228200D01*
X204691385Y-91256421D01*
X204414531Y-91340008D01*
X204159185Y-91475777D01*
X203935074Y-91658558D01*
X203750733Y-91881388D01*
X203742183Y-91897200D01*
X200823379Y-91897200D01*
X200823379Y-91789250D01*
X200817896Y-91720487D01*
X200781778Y-91603859D01*
X200714598Y-91501910D01*
X200621676Y-91422713D01*
X200510369Y-91372539D01*
X200389490Y-91355361D01*
X199263574Y-91355361D01*
X197503476Y-89595264D01*
X197445457Y-89547606D01*
X197387945Y-89499348D01*
X197384200Y-89497289D01*
X197380897Y-89494576D01*
X197314731Y-89459098D01*
X197248936Y-89422927D01*
X197244861Y-89421634D01*
X197241095Y-89419615D01*
X197169320Y-89397671D01*
X197097731Y-89374962D01*
X197093481Y-89374485D01*
X197089395Y-89373236D01*
X197014723Y-89365651D01*
X196940088Y-89357279D01*
X196931733Y-89357221D01*
X196931577Y-89357205D01*
X196931432Y-89357219D01*
X196928740Y-89357200D01*
X195664639Y-89357200D01*
X195664639Y-89170510D01*
X195659156Y-89101747D01*
X195623038Y-88985119D01*
X195555858Y-88883170D01*
X195462936Y-88803973D01*
X195351629Y-88753799D01*
X195230750Y-88736621D01*
X193231770Y-88736621D01*
X193163007Y-88742104D01*
X193046379Y-88778222D01*
X192944430Y-88845402D01*
X192865233Y-88938324D01*
X192815059Y-89049631D01*
X192797881Y-89170510D01*
X186377702Y-89170510D01*
X187803913Y-87744300D01*
X206609828Y-87744300D01*
X211150200Y-92284673D01*
X211150200Y-108692827D01*
X207752828Y-112090200D01*
X187515500Y-112090200D01*
X187440776Y-112097527D01*
X187365985Y-112104070D01*
X187361879Y-112105263D01*
X187357626Y-112105680D01*
X187285738Y-112127384D01*
X187213653Y-112148327D01*
X187209861Y-112150293D01*
X187205766Y-112151529D01*
X187139468Y-112186781D01*
X187072818Y-112221328D01*
X187069476Y-112223996D01*
X187065703Y-112226002D01*
X187007528Y-112273448D01*
X186948844Y-112320295D01*
X186942895Y-112326161D01*
X186942773Y-112326261D01*
X186942679Y-112326374D01*
X186940764Y-112328263D01*
X181781328Y-117487700D01*
X171659673Y-117487700D01*
X170393889Y-116221917D01*
X170393889Y-115062000D01*
X172225000Y-115062000D01*
X172225000Y-115812000D01*
X172282153Y-116138287D01*
X172401864Y-116447154D01*
X172579531Y-116726732D01*
X172808327Y-116966277D01*
X173079460Y-117156583D01*
X173382510Y-117290337D01*
X173521721Y-117324654D01*
X173783000Y-117205957D01*
X173783000Y-115062000D01*
X174037000Y-115062000D01*
X174037000Y-117205957D01*
X174298279Y-117324654D01*
X174437490Y-117290337D01*
X174740540Y-117156583D01*
X175011673Y-116966277D01*
X175240469Y-116726732D01*
X175418136Y-116447154D01*
X175537847Y-116138287D01*
X175595000Y-115812000D01*
X175595000Y-115062000D01*
X177225000Y-115062000D01*
X177225000Y-115812000D01*
X177282153Y-116138287D01*
X177401864Y-116447154D01*
X177579531Y-116726732D01*
X177808327Y-116966277D01*
X178079460Y-117156583D01*
X178382510Y-117290337D01*
X178521721Y-117324654D01*
X178783000Y-117205957D01*
X178783000Y-115062000D01*
X179037000Y-115062000D01*
X179037000Y-117205957D01*
X179298279Y-117324654D01*
X179437490Y-117290337D01*
X179740540Y-117156583D01*
X180011673Y-116966277D01*
X180240469Y-116726732D01*
X180418136Y-116447154D01*
X180537847Y-116138287D01*
X180595000Y-115812000D01*
X180595000Y-115062000D01*
X179037000Y-115062000D01*
X178783000Y-115062000D01*
X177225000Y-115062000D01*
X175595000Y-115062000D01*
X174037000Y-115062000D01*
X173783000Y-115062000D01*
X172225000Y-115062000D01*
X170393889Y-115062000D01*
X170393889Y-114058000D01*
X172225000Y-114058000D01*
X172225000Y-114808000D01*
X173783000Y-114808000D01*
X173783000Y-112664043D01*
X174037000Y-112664043D01*
X174037000Y-114808000D01*
X175595000Y-114808000D01*
X175595000Y-114058000D01*
X177225000Y-114058000D01*
X177225000Y-114808000D01*
X178783000Y-114808000D01*
X178783000Y-112664043D01*
X179037000Y-112664043D01*
X179037000Y-114808000D01*
X180595000Y-114808000D01*
X180595000Y-114058000D01*
X180537847Y-113731713D01*
X180418136Y-113422846D01*
X180240469Y-113143268D01*
X180011673Y-112903723D01*
X179740540Y-112713417D01*
X179437490Y-112579663D01*
X179298279Y-112545346D01*
X179037000Y-112664043D01*
X178783000Y-112664043D01*
X178521721Y-112545346D01*
X178382510Y-112579663D01*
X178079460Y-112713417D01*
X177808327Y-112903723D01*
X177579531Y-113143268D01*
X177401864Y-113422846D01*
X177282153Y-113731713D01*
X177225000Y-114058000D01*
X175595000Y-114058000D01*
X175537847Y-113731713D01*
X175418136Y-113422846D01*
X175240469Y-113143268D01*
X175011673Y-112903723D01*
X174740540Y-112713417D01*
X174437490Y-112579663D01*
X174298279Y-112545346D01*
X174037000Y-112664043D01*
X173783000Y-112664043D01*
X173521721Y-112545346D01*
X173382510Y-112579663D01*
X173079460Y-112713417D01*
X172808327Y-112903723D01*
X172579531Y-113143268D01*
X172401864Y-113422846D01*
X172282153Y-113731713D01*
X172225000Y-114058000D01*
X170393889Y-114058000D01*
X170393889Y-113135000D01*
X170388406Y-113066237D01*
X170352288Y-112949609D01*
X170285108Y-112847660D01*
X170192186Y-112768463D01*
X170080879Y-112718289D01*
X169960000Y-112701111D01*
X169722800Y-112701111D01*
X169722800Y-109818889D01*
X169815000Y-109818889D01*
X169883763Y-109813406D01*
X170000391Y-109777288D01*
X170102340Y-109710108D01*
X170181537Y-109617186D01*
X170231711Y-109505879D01*
X170248889Y-109385000D01*
X170248889Y-108870750D01*
X171180000Y-108870750D01*
X171180000Y-109447542D01*
X171204403Y-109570223D01*
X171252270Y-109685785D01*
X171321763Y-109789789D01*
X171410211Y-109878237D01*
X171514215Y-109947730D01*
X171629777Y-109995597D01*
X171752458Y-110020000D01*
X172029250Y-110020000D01*
X172188000Y-109861250D01*
X172188000Y-108712000D01*
X172442000Y-108712000D01*
X172442000Y-109861250D01*
X172600750Y-110020000D01*
X172877542Y-110020000D01*
X173000223Y-109995597D01*
X173115785Y-109947730D01*
X173219789Y-109878237D01*
X173308237Y-109789789D01*
X173377730Y-109685785D01*
X173425597Y-109570223D01*
X173450000Y-109447542D01*
X173450000Y-108870750D01*
X173291250Y-108712000D01*
X172442000Y-108712000D01*
X172188000Y-108712000D01*
X171338750Y-108712000D01*
X171180000Y-108870750D01*
X170248889Y-108870750D01*
X170248889Y-107785000D01*
X170243903Y-107722458D01*
X171180000Y-107722458D01*
X171180000Y-108299250D01*
X171338750Y-108458000D01*
X172188000Y-108458000D01*
X172188000Y-107308750D01*
X172442000Y-107308750D01*
X172442000Y-108458000D01*
X173291250Y-108458000D01*
X173450000Y-108299250D01*
X173450000Y-108235750D01*
X182594250Y-108235750D01*
X182594250Y-109012032D01*
X182618653Y-109134713D01*
X182666520Y-109250275D01*
X182736013Y-109354279D01*
X182824461Y-109442727D01*
X182928465Y-109512220D01*
X183044027Y-109560087D01*
X183166708Y-109584490D01*
X183942990Y-109584490D01*
X184101740Y-109425740D01*
X184101740Y-108077000D01*
X184355740Y-108077000D01*
X184355740Y-109425740D01*
X184514490Y-109584490D01*
X185290772Y-109584490D01*
X185413453Y-109560087D01*
X185529015Y-109512220D01*
X185633019Y-109442727D01*
X185721467Y-109354279D01*
X185790960Y-109250275D01*
X185838827Y-109134713D01*
X185863230Y-109012032D01*
X185863230Y-108235750D01*
X185704480Y-108077000D01*
X184355740Y-108077000D01*
X184101740Y-108077000D01*
X182753000Y-108077000D01*
X182594250Y-108235750D01*
X173450000Y-108235750D01*
X173450000Y-107722458D01*
X173425597Y-107599777D01*
X173377730Y-107484215D01*
X173308237Y-107380211D01*
X173219789Y-107291763D01*
X173115785Y-107222270D01*
X173000223Y-107174403D01*
X172877542Y-107150000D01*
X172600750Y-107150000D01*
X172442000Y-107308750D01*
X172188000Y-107308750D01*
X172029250Y-107150000D01*
X171752458Y-107150000D01*
X171629777Y-107174403D01*
X171514215Y-107222270D01*
X171410211Y-107291763D01*
X171321763Y-107380211D01*
X171252270Y-107484215D01*
X171204403Y-107599777D01*
X171180000Y-107722458D01*
X170243903Y-107722458D01*
X170243406Y-107716237D01*
X170207288Y-107599609D01*
X170140108Y-107497660D01*
X170047186Y-107418463D01*
X169935879Y-107368289D01*
X169815000Y-107351111D01*
X168815000Y-107351111D01*
X168746237Y-107356594D01*
X168629609Y-107392712D01*
X168527660Y-107459892D01*
X168448463Y-107552814D01*
X168398289Y-107664121D01*
X168381111Y-107785000D01*
X168381111Y-107972279D01*
X168341314Y-108004277D01*
X168339484Y-108006457D01*
X168337273Y-108008261D01*
X168288460Y-108067266D01*
X168239348Y-108125795D01*
X168237976Y-108128290D01*
X168236158Y-108130488D01*
X168199758Y-108197809D01*
X168162927Y-108264804D01*
X168162065Y-108267520D01*
X168160710Y-108270027D01*
X168138083Y-108343122D01*
X168114962Y-108416009D01*
X168114645Y-108418839D01*
X168113801Y-108421564D01*
X168105805Y-108497646D01*
X168097279Y-108573652D01*
X168097241Y-108579127D01*
X168097220Y-108579326D01*
X168097238Y-108579525D01*
X168097200Y-108585000D01*
X168097200Y-110292200D01*
X166788881Y-110292200D01*
X166788406Y-110286237D01*
X166752288Y-110169609D01*
X166685108Y-110067660D01*
X166592186Y-109988463D01*
X166542612Y-109966116D01*
X166545223Y-109965597D01*
X166660785Y-109917730D01*
X166764789Y-109848237D01*
X166853237Y-109759789D01*
X166922730Y-109655785D01*
X166970597Y-109540223D01*
X166995000Y-109417542D01*
X166995000Y-108890750D01*
X166836250Y-108732000D01*
X165862000Y-108732000D01*
X165862000Y-108752000D01*
X165608000Y-108752000D01*
X165608000Y-108732000D01*
X164633750Y-108732000D01*
X164475000Y-108890750D01*
X164475000Y-109417542D01*
X164499403Y-109540223D01*
X164547270Y-109655785D01*
X164616763Y-109759789D01*
X164705211Y-109848237D01*
X164809215Y-109917730D01*
X164921986Y-109964441D01*
X164822660Y-110029892D01*
X164743463Y-110122814D01*
X164693289Y-110234121D01*
X164685035Y-110292200D01*
X163321173Y-110292200D01*
X163007736Y-109978764D01*
X162949717Y-109931106D01*
X162892205Y-109882848D01*
X162888460Y-109880789D01*
X162885157Y-109878076D01*
X162818991Y-109842598D01*
X162753196Y-109806427D01*
X162749121Y-109805134D01*
X162745355Y-109803115D01*
X162673580Y-109781171D01*
X162601991Y-109758462D01*
X162597741Y-109757985D01*
X162593655Y-109756736D01*
X162518983Y-109749151D01*
X162444348Y-109740779D01*
X162435993Y-109740721D01*
X162435837Y-109740705D01*
X162435692Y-109740719D01*
X162433000Y-109740700D01*
X160316996Y-109740700D01*
X160295065Y-109707691D01*
X160111029Y-109522365D01*
X159930284Y-109400452D01*
X160058792Y-109331761D01*
X160142475Y-109077580D01*
X159258000Y-108193105D01*
X158373525Y-109077580D01*
X158457208Y-109331761D01*
X158593013Y-109396980D01*
X158419451Y-109510556D01*
X158232846Y-109693293D01*
X158085288Y-109908796D01*
X157982398Y-110148855D01*
X157928096Y-110404327D01*
X157924449Y-110665481D01*
X157971597Y-110922370D01*
X158067744Y-111165209D01*
X158209227Y-111384747D01*
X158390657Y-111572624D01*
X158605125Y-111721683D01*
X158844460Y-111826246D01*
X158889734Y-111836200D01*
X141941673Y-111836200D01*
X140401736Y-110296264D01*
X140377889Y-110276676D01*
X140377889Y-109847000D01*
X140372406Y-109778237D01*
X140336288Y-109661609D01*
X140269108Y-109559660D01*
X140176186Y-109480463D01*
X140126612Y-109458116D01*
X140129223Y-109457597D01*
X140244785Y-109409730D01*
X140348789Y-109340237D01*
X140437237Y-109251789D01*
X140506730Y-109147785D01*
X140554597Y-109032223D01*
X140579000Y-108909542D01*
X140579000Y-108382750D01*
X140420250Y-108224000D01*
X139446000Y-108224000D01*
X139446000Y-108244000D01*
X139192000Y-108244000D01*
X139192000Y-108224000D01*
X138217750Y-108224000D01*
X138059000Y-108382750D01*
X138059000Y-108909542D01*
X138083403Y-109032223D01*
X138131270Y-109147785D01*
X138200763Y-109251789D01*
X138289211Y-109340237D01*
X138393215Y-109409730D01*
X138505986Y-109456441D01*
X138406660Y-109521892D01*
X138327463Y-109614814D01*
X138277289Y-109726121D01*
X138275217Y-109740700D01*
X137456996Y-109740700D01*
X137435065Y-109707691D01*
X137251029Y-109522365D01*
X137034501Y-109376316D01*
X136810356Y-109282093D01*
X137001384Y-109207998D01*
X137221905Y-109068051D01*
X137411044Y-108887936D01*
X137561596Y-108674515D01*
X137667828Y-108435915D01*
X137725692Y-108181226D01*
X137727104Y-108080053D01*
X157717009Y-108080053D01*
X157759603Y-108379407D01*
X157859778Y-108664699D01*
X157939739Y-108814292D01*
X158193920Y-108897975D01*
X159078395Y-108013500D01*
X159437605Y-108013500D01*
X160322080Y-108897975D01*
X160576261Y-108814292D01*
X160707158Y-108541725D01*
X160782365Y-108248858D01*
X160798991Y-107946947D01*
X160777010Y-107792458D01*
X164475000Y-107792458D01*
X164475000Y-108319250D01*
X164633750Y-108478000D01*
X165608000Y-108478000D01*
X165608000Y-107378750D01*
X165862000Y-107378750D01*
X165862000Y-108478000D01*
X166836250Y-108478000D01*
X166995000Y-108319250D01*
X166995000Y-107792458D01*
X166970597Y-107669777D01*
X166922730Y-107554215D01*
X166853237Y-107450211D01*
X166764789Y-107361763D01*
X166660785Y-107292270D01*
X166545223Y-107244403D01*
X166422542Y-107220000D01*
X166020750Y-107220000D01*
X165862000Y-107378750D01*
X165608000Y-107378750D01*
X165449250Y-107220000D01*
X165047458Y-107220000D01*
X164924777Y-107244403D01*
X164809215Y-107292270D01*
X164705211Y-107361763D01*
X164616763Y-107450211D01*
X164547270Y-107554215D01*
X164499403Y-107669777D01*
X164475000Y-107792458D01*
X160777010Y-107792458D01*
X160756397Y-107647593D01*
X160656222Y-107362301D01*
X160576261Y-107212708D01*
X160322080Y-107129025D01*
X159437605Y-108013500D01*
X159078395Y-108013500D01*
X158193920Y-107129025D01*
X157939739Y-107212708D01*
X157808842Y-107485275D01*
X157733635Y-107778142D01*
X157717009Y-108080053D01*
X137727104Y-108080053D01*
X137729857Y-107882910D01*
X137679127Y-107626705D01*
X137579599Y-107385232D01*
X137512645Y-107284458D01*
X138059000Y-107284458D01*
X138059000Y-107811250D01*
X138217750Y-107970000D01*
X139192000Y-107970000D01*
X139192000Y-106870750D01*
X139446000Y-106870750D01*
X139446000Y-107970000D01*
X140420250Y-107970000D01*
X140579000Y-107811250D01*
X140579000Y-107284458D01*
X140554597Y-107161777D01*
X140506730Y-107046215D01*
X140437237Y-106942211D01*
X140348789Y-106853763D01*
X140244785Y-106784270D01*
X140129223Y-106736403D01*
X140006542Y-106712000D01*
X139604750Y-106712000D01*
X139446000Y-106870750D01*
X139192000Y-106870750D01*
X139033250Y-106712000D01*
X138631458Y-106712000D01*
X138508777Y-106736403D01*
X138393215Y-106784270D01*
X138289211Y-106853763D01*
X138200763Y-106942211D01*
X138131270Y-107046215D01*
X138083403Y-107161777D01*
X138059000Y-107284458D01*
X137512645Y-107284458D01*
X137435065Y-107167691D01*
X137251029Y-106982365D01*
X137034501Y-106836316D01*
X136810356Y-106742093D01*
X137001384Y-106667998D01*
X137221905Y-106528051D01*
X137411044Y-106347936D01*
X137561596Y-106134515D01*
X137667828Y-105895915D01*
X137725692Y-105641226D01*
X137729857Y-105342910D01*
X137679127Y-105086705D01*
X137579599Y-104845232D01*
X137435065Y-104627691D01*
X137251029Y-104442365D01*
X137034501Y-104296316D01*
X136810356Y-104202093D01*
X137001384Y-104127998D01*
X137221905Y-103988051D01*
X137411044Y-103807936D01*
X137561596Y-103594515D01*
X137667828Y-103355915D01*
X137725692Y-103101226D01*
X137729857Y-102802910D01*
X137679127Y-102546705D01*
X137579599Y-102305232D01*
X137435065Y-102087691D01*
X137251029Y-101902365D01*
X137034501Y-101756316D01*
X136810356Y-101662093D01*
X137001384Y-101587998D01*
X137221905Y-101448051D01*
X137411044Y-101267936D01*
X137561596Y-101054515D01*
X137667828Y-100815915D01*
X137725692Y-100561226D01*
X137729857Y-100262910D01*
X137679127Y-100006705D01*
X137579599Y-99765232D01*
X137435065Y-99547691D01*
X137251029Y-99362365D01*
X137034501Y-99216316D01*
X136810356Y-99122093D01*
X137001384Y-99047998D01*
X137221905Y-98908051D01*
X137411044Y-98727936D01*
X137561596Y-98514515D01*
X137667828Y-98275915D01*
X137725692Y-98021226D01*
X137729857Y-97722910D01*
X137679127Y-97466705D01*
X137579599Y-97225232D01*
X137435065Y-97007691D01*
X137251029Y-96822365D01*
X137034501Y-96676316D01*
X136810356Y-96582093D01*
X137001384Y-96507998D01*
X137221905Y-96368051D01*
X137411044Y-96187936D01*
X137561596Y-95974515D01*
X137667828Y-95735915D01*
X137725692Y-95481226D01*
X137729857Y-95182910D01*
X137679127Y-94926705D01*
X137579599Y-94685232D01*
X137435065Y-94467691D01*
X137251029Y-94282365D01*
X137034501Y-94136316D01*
X136810356Y-94042093D01*
X137001384Y-93967998D01*
X137221905Y-93828051D01*
X137411044Y-93647936D01*
X137561596Y-93434515D01*
X137667828Y-93195915D01*
X137725692Y-92941226D01*
X137729857Y-92642910D01*
X137679127Y-92386705D01*
X137579599Y-92145232D01*
X137435065Y-91927691D01*
X137251029Y-91742365D01*
X137034501Y-91596316D01*
X136793730Y-91495104D01*
X136537885Y-91442587D01*
X136276711Y-91440764D01*
X136020158Y-91489704D01*
X135777997Y-91587543D01*
X135559451Y-91730556D01*
X135372846Y-91913293D01*
X135296906Y-92024200D01*
X132420303Y-92024200D01*
X132268361Y-91835222D01*
X132092124Y-91687341D01*
X132250954Y-91585895D01*
X132482922Y-91363317D01*
X132667010Y-91099761D01*
X132796144Y-90805355D01*
X132827124Y-90677434D01*
X132707777Y-90424000D01*
X131064000Y-90424000D01*
X131064000Y-90444000D01*
X130810000Y-90444000D01*
X130810000Y-90424000D01*
X129166223Y-90424000D01*
X129046876Y-90677434D01*
X129077856Y-90805355D01*
X129206990Y-91099761D01*
X129391078Y-91363317D01*
X129623046Y-91585895D01*
X129782873Y-91687977D01*
X129619726Y-91821037D01*
X129441605Y-92036348D01*
X129308697Y-92282155D01*
X129226065Y-92549097D01*
X129196856Y-92827004D01*
X129222182Y-93105293D01*
X129301079Y-93373362D01*
X129430542Y-93621001D01*
X129605639Y-93838778D01*
X129819701Y-94018398D01*
X129981369Y-94107275D01*
X129836275Y-94184423D01*
X129619726Y-94361037D01*
X129441605Y-94576348D01*
X129308697Y-94822155D01*
X129226065Y-95089097D01*
X129196856Y-95367004D01*
X129222182Y-95645293D01*
X129301079Y-95913362D01*
X129430542Y-96161001D01*
X129605639Y-96378778D01*
X129819701Y-96558398D01*
X129981369Y-96647275D01*
X129836275Y-96724423D01*
X129619726Y-96901037D01*
X129441605Y-97116348D01*
X129308697Y-97362155D01*
X129226065Y-97629097D01*
X129196856Y-97907004D01*
X129222182Y-98185293D01*
X129301079Y-98453362D01*
X129430542Y-98701001D01*
X129605639Y-98918778D01*
X129819701Y-99098398D01*
X129981369Y-99187275D01*
X129836275Y-99264423D01*
X129619726Y-99441037D01*
X129441605Y-99656348D01*
X129308697Y-99902155D01*
X129226065Y-100169097D01*
X129196856Y-100447004D01*
X129222182Y-100725293D01*
X129301079Y-100993362D01*
X129430542Y-101241001D01*
X129605639Y-101458778D01*
X129819701Y-101638398D01*
X129981369Y-101727275D01*
X129836275Y-101804423D01*
X129619726Y-101981037D01*
X129441605Y-102196348D01*
X129308697Y-102442155D01*
X129226065Y-102709097D01*
X129196856Y-102987004D01*
X129222182Y-103265293D01*
X129301079Y-103533362D01*
X129430542Y-103781001D01*
X129605639Y-103998778D01*
X129819701Y-104178398D01*
X129981369Y-104267275D01*
X129836275Y-104344423D01*
X129619726Y-104521037D01*
X129441605Y-104736348D01*
X129308697Y-104982155D01*
X129226065Y-105249097D01*
X129196856Y-105527004D01*
X129222182Y-105805293D01*
X129301079Y-106073362D01*
X129430542Y-106321001D01*
X129605639Y-106538778D01*
X129729978Y-106643111D01*
X129637000Y-106643111D01*
X129568237Y-106648594D01*
X129451609Y-106684712D01*
X129349660Y-106751892D01*
X129270463Y-106844814D01*
X129220289Y-106956121D01*
X129203111Y-107077000D01*
X129203111Y-109077000D01*
X129208594Y-109145763D01*
X129244712Y-109262391D01*
X129311892Y-109364340D01*
X129404814Y-109443537D01*
X129516121Y-109493711D01*
X129637000Y-109510889D01*
X132237000Y-109510889D01*
X132305763Y-109505406D01*
X132422391Y-109469288D01*
X132524340Y-109402108D01*
X132603537Y-109309186D01*
X132653711Y-109197879D01*
X132670889Y-109077000D01*
X132670889Y-108826300D01*
X135337339Y-108826300D01*
X135349227Y-108844747D01*
X135530657Y-109032624D01*
X135745125Y-109181683D01*
X135981940Y-109285145D01*
X135777997Y-109367543D01*
X135559451Y-109510556D01*
X135372846Y-109693293D01*
X135225288Y-109908796D01*
X135122398Y-110148855D01*
X135068096Y-110404327D01*
X135064449Y-110665481D01*
X135111597Y-110922370D01*
X135207744Y-111165209D01*
X135349227Y-111384747D01*
X135530657Y-111572624D01*
X135745125Y-111721683D01*
X135984460Y-111826246D01*
X136239547Y-111882330D01*
X136500669Y-111887800D01*
X136757880Y-111842447D01*
X137001384Y-111747998D01*
X137221905Y-111608051D01*
X137411044Y-111427936D01*
X137454523Y-111366300D01*
X138261650Y-111366300D01*
X138265594Y-111415763D01*
X138301712Y-111532391D01*
X138368892Y-111634340D01*
X138461814Y-111713537D01*
X138573121Y-111763711D01*
X138694000Y-111780889D01*
X139587417Y-111780889D01*
X141030264Y-113223737D01*
X141088291Y-113271400D01*
X141145795Y-113319652D01*
X141149543Y-113321712D01*
X141152844Y-113324424D01*
X141218988Y-113359890D01*
X141284804Y-113396073D01*
X141288879Y-113397366D01*
X141292645Y-113399385D01*
X141364461Y-113421342D01*
X141436009Y-113444038D01*
X141440254Y-113444514D01*
X141444345Y-113445765D01*
X141519067Y-113453355D01*
X141593652Y-113461721D01*
X141602007Y-113461779D01*
X141602163Y-113461795D01*
X141602308Y-113461781D01*
X141605000Y-113461800D01*
X162082947Y-113461800D01*
X162171346Y-113553340D01*
X162361658Y-113685611D01*
X162574037Y-113778397D01*
X162800393Y-113828164D01*
X163032105Y-113833018D01*
X163260347Y-113792773D01*
X163476425Y-113708962D01*
X163672109Y-113584777D01*
X163839945Y-113424949D01*
X163973541Y-113235565D01*
X164067807Y-113023839D01*
X164119154Y-112797835D01*
X164122850Y-112533119D01*
X164077834Y-112305770D01*
X163989516Y-112091494D01*
X163874114Y-111917800D01*
X164681119Y-111917800D01*
X164681594Y-111923763D01*
X164717712Y-112040391D01*
X164784892Y-112142340D01*
X164877814Y-112221537D01*
X164989121Y-112271711D01*
X165110000Y-112288889D01*
X166360000Y-112288889D01*
X166428763Y-112283406D01*
X166545391Y-112247288D01*
X166647340Y-112180108D01*
X166726537Y-112087186D01*
X166776711Y-111975879D01*
X166784965Y-111917800D01*
X168097200Y-111917800D01*
X168097200Y-112701111D01*
X167860000Y-112701111D01*
X167791237Y-112706594D01*
X167674609Y-112742712D01*
X167572660Y-112809892D01*
X167493463Y-112902814D01*
X167443289Y-113014121D01*
X167426111Y-113135000D01*
X167426111Y-116735000D01*
X167431594Y-116803763D01*
X167467712Y-116920391D01*
X167534892Y-117022340D01*
X167627814Y-117101537D01*
X167739121Y-117151711D01*
X167860000Y-117168889D01*
X169041917Y-117168889D01*
X170748263Y-118875236D01*
X170806308Y-118922914D01*
X170863795Y-118971152D01*
X170867540Y-118973211D01*
X170870843Y-118975924D01*
X170937009Y-119011402D01*
X171002804Y-119047573D01*
X171006879Y-119048866D01*
X171010645Y-119050885D01*
X171082433Y-119072833D01*
X171154009Y-119095538D01*
X171158257Y-119096015D01*
X171162344Y-119097264D01*
X171237023Y-119104850D01*
X171311652Y-119113221D01*
X171320007Y-119113279D01*
X171320163Y-119113295D01*
X171320308Y-119113281D01*
X171323000Y-119113300D01*
X182118000Y-119113300D01*
X182192716Y-119105974D01*
X182267516Y-119099430D01*
X182271623Y-119098237D01*
X182275874Y-119097820D01*
X182347736Y-119076124D01*
X182419848Y-119055173D01*
X182423642Y-119053207D01*
X182427734Y-119051971D01*
X182494053Y-119016708D01*
X182560682Y-118982171D01*
X182564020Y-118979506D01*
X182567797Y-118977498D01*
X182625999Y-118930030D01*
X182684656Y-118883205D01*
X182690600Y-118877342D01*
X182690727Y-118877239D01*
X182690824Y-118877122D01*
X182692736Y-118875236D01*
X187852173Y-113715800D01*
X208089500Y-113715800D01*
X208164216Y-113708474D01*
X208239016Y-113701930D01*
X208243123Y-113700737D01*
X208247374Y-113700320D01*
X208319236Y-113678624D01*
X208391348Y-113657673D01*
X208395142Y-113655707D01*
X208399234Y-113654471D01*
X208465553Y-113619208D01*
X208532182Y-113584671D01*
X208535520Y-113582006D01*
X208539297Y-113579998D01*
X208597499Y-113532530D01*
X208656156Y-113485705D01*
X208662100Y-113479842D01*
X208662227Y-113479739D01*
X208662324Y-113479622D01*
X208664236Y-113477736D01*
X212370200Y-109771773D01*
X212370200Y-119685600D01*
X128116800Y-119685600D01*
X128116800Y-89916566D01*
X129046876Y-89916566D01*
X129166223Y-90170000D01*
X130810000Y-90170000D01*
X130810000Y-88662000D01*
X131064000Y-88662000D01*
X131064000Y-90170000D01*
X132707777Y-90170000D01*
X132827124Y-89916566D01*
X132796144Y-89788645D01*
X132667010Y-89494239D01*
X132482922Y-89230683D01*
X132250954Y-89008105D01*
X131980020Y-88835058D01*
X131680532Y-88718193D01*
X131364000Y-88662000D01*
X131064000Y-88662000D01*
X130810000Y-88662000D01*
X130510000Y-88662000D01*
X130193468Y-88718193D01*
X129893980Y-88835058D01*
X129623046Y-89008105D01*
X129391078Y-89230683D01*
X129206990Y-89494239D01*
X129077856Y-89788645D01*
X129046876Y-89916566D01*
X128116800Y-89916566D01*
X128116800Y-86614000D01*
X154127200Y-86614000D01*
X154127200Y-103632000D01*
X154134526Y-103706716D01*
X154141070Y-103781516D01*
X154142263Y-103785623D01*
X154142680Y-103789874D01*
X154164376Y-103861736D01*
X154185327Y-103933848D01*
X154187293Y-103937642D01*
X154188529Y-103941734D01*
X154223792Y-104008053D01*
X154258329Y-104074682D01*
X154260994Y-104078020D01*
X154263002Y-104081797D01*
X154310470Y-104139999D01*
X154357295Y-104198656D01*
X154363158Y-104204600D01*
X154363261Y-104204727D01*
X154363378Y-104204824D01*
X154365264Y-104206736D01*
X156206763Y-106048236D01*
X156264808Y-106095914D01*
X156322295Y-106144152D01*
X156326040Y-106146211D01*
X156329343Y-106148924D01*
X156395509Y-106184402D01*
X156461304Y-106220573D01*
X156465379Y-106221866D01*
X156469145Y-106223885D01*
X156540933Y-106245833D01*
X156612509Y-106268538D01*
X156616757Y-106269015D01*
X156620844Y-106270264D01*
X156695523Y-106277850D01*
X156770152Y-106286221D01*
X156778507Y-106286279D01*
X156778663Y-106286295D01*
X156778808Y-106286281D01*
X156781500Y-106286300D01*
X158197339Y-106286300D01*
X158209227Y-106304747D01*
X158390657Y-106492624D01*
X158584378Y-106627264D01*
X158457208Y-106695239D01*
X158373525Y-106949420D01*
X159258000Y-107833895D01*
X160142475Y-106949420D01*
X160058792Y-106695239D01*
X159921985Y-106629539D01*
X160081905Y-106528051D01*
X160271044Y-106347936D01*
X160421596Y-106134515D01*
X160527828Y-105895915D01*
X160585692Y-105641226D01*
X160589857Y-105342910D01*
X160539127Y-105086705D01*
X160439599Y-104845232D01*
X160295065Y-104627691D01*
X160111029Y-104442365D01*
X159894501Y-104296316D01*
X159670356Y-104202093D01*
X159861384Y-104127998D01*
X160081905Y-103988051D01*
X160271044Y-103807936D01*
X160421596Y-103594515D01*
X160527828Y-103355915D01*
X160550504Y-103256106D01*
X160613350Y-103353624D01*
X160774346Y-103520340D01*
X160964658Y-103652611D01*
X161177037Y-103745397D01*
X161403393Y-103795164D01*
X161635105Y-103800018D01*
X161863347Y-103759773D01*
X162079425Y-103675962D01*
X162179807Y-103612257D01*
X162031308Y-103757678D01*
X161900370Y-103948909D01*
X161809069Y-104161930D01*
X161760883Y-104388629D01*
X161757647Y-104620369D01*
X161799484Y-104848324D01*
X161884802Y-105063812D01*
X162010350Y-105258624D01*
X162128200Y-105380661D01*
X162128200Y-105440795D01*
X162031308Y-105535678D01*
X161900370Y-105726909D01*
X161809069Y-105939930D01*
X161760883Y-106166629D01*
X161757647Y-106398369D01*
X161799484Y-106626324D01*
X161884802Y-106841812D01*
X162010350Y-107036624D01*
X162171346Y-107203340D01*
X162361658Y-107335611D01*
X162574037Y-107428397D01*
X162800393Y-107478164D01*
X163032105Y-107483018D01*
X163260347Y-107442773D01*
X163476425Y-107358962D01*
X163672109Y-107234777D01*
X163839945Y-107074949D01*
X163971845Y-106887968D01*
X182594250Y-106887968D01*
X182594250Y-107664250D01*
X182753000Y-107823000D01*
X184101740Y-107823000D01*
X184101740Y-106474260D01*
X184355740Y-106474260D01*
X184355740Y-107823000D01*
X185704480Y-107823000D01*
X185863230Y-107664250D01*
X185863230Y-106887968D01*
X185838827Y-106765287D01*
X185790960Y-106649725D01*
X185721467Y-106545721D01*
X185633019Y-106457273D01*
X185529015Y-106387780D01*
X185413453Y-106339913D01*
X185290772Y-106315510D01*
X184514490Y-106315510D01*
X184355740Y-106474260D01*
X184101740Y-106474260D01*
X183942990Y-106315510D01*
X183166708Y-106315510D01*
X183044027Y-106339913D01*
X182928465Y-106387780D01*
X182824461Y-106457273D01*
X182736013Y-106545721D01*
X182666520Y-106649725D01*
X182618653Y-106765287D01*
X182594250Y-106887968D01*
X163971845Y-106887968D01*
X163973541Y-106885565D01*
X164067807Y-106673839D01*
X164119154Y-106447835D01*
X164122850Y-106183119D01*
X164077834Y-105955770D01*
X163989516Y-105741494D01*
X163959124Y-105695750D01*
X173895000Y-105695750D01*
X173895000Y-106097542D01*
X173919403Y-106220223D01*
X173967270Y-106335785D01*
X174036763Y-106439789D01*
X174125211Y-106528237D01*
X174229215Y-106597730D01*
X174344777Y-106645597D01*
X174467458Y-106670000D01*
X174994250Y-106670000D01*
X175153000Y-106511250D01*
X175153000Y-105537000D01*
X174053750Y-105537000D01*
X173895000Y-105695750D01*
X163959124Y-105695750D01*
X163861261Y-105548454D01*
X163753800Y-105440241D01*
X163753800Y-105378984D01*
X163839945Y-105296949D01*
X163860507Y-105267800D01*
X167330445Y-105267800D01*
X167339121Y-105271711D01*
X167460000Y-105288889D01*
X168360000Y-105288889D01*
X168428763Y-105283406D01*
X168545391Y-105247288D01*
X168647340Y-105180108D01*
X168726537Y-105087186D01*
X168776711Y-104975879D01*
X168793889Y-104855000D01*
X168793889Y-104722458D01*
X173895000Y-104722458D01*
X173895000Y-105124250D01*
X174053750Y-105283000D01*
X175153000Y-105283000D01*
X175153000Y-104308750D01*
X174994250Y-104150000D01*
X174467458Y-104150000D01*
X174344777Y-104174403D01*
X174229215Y-104222270D01*
X174125211Y-104291763D01*
X174036763Y-104380211D01*
X173967270Y-104484215D01*
X173919403Y-104599777D01*
X173895000Y-104722458D01*
X168793889Y-104722458D01*
X168793889Y-104055000D01*
X168788406Y-103986237D01*
X168752288Y-103869609D01*
X168685108Y-103767660D01*
X168592186Y-103688463D01*
X168480879Y-103638289D01*
X168360000Y-103621111D01*
X167460000Y-103621111D01*
X167391237Y-103626594D01*
X167340844Y-103642200D01*
X163733898Y-103642200D01*
X163697952Y-103606002D01*
X163505812Y-103476401D01*
X163292159Y-103386590D01*
X163200622Y-103367800D01*
X167330445Y-103367800D01*
X167339121Y-103371711D01*
X167460000Y-103388889D01*
X168360000Y-103388889D01*
X168428763Y-103383406D01*
X168545391Y-103347288D01*
X168647340Y-103280108D01*
X168726537Y-103187186D01*
X168763584Y-103105000D01*
X169026111Y-103105000D01*
X169026111Y-103905000D01*
X169031594Y-103973763D01*
X169067712Y-104090391D01*
X169134892Y-104192340D01*
X169227814Y-104271537D01*
X169339121Y-104321711D01*
X169460000Y-104338889D01*
X170360000Y-104338889D01*
X170428763Y-104333406D01*
X170479156Y-104317800D01*
X170815000Y-104317800D01*
X170889716Y-104310474D01*
X170964516Y-104303930D01*
X170968623Y-104302737D01*
X170972874Y-104302320D01*
X171044736Y-104280624D01*
X171116848Y-104259673D01*
X171120642Y-104257707D01*
X171124734Y-104256471D01*
X171191053Y-104221208D01*
X171257682Y-104186671D01*
X171261020Y-104184006D01*
X171264797Y-104181998D01*
X171322999Y-104134530D01*
X171381656Y-104087705D01*
X171387600Y-104081842D01*
X171387727Y-104081739D01*
X171387824Y-104081622D01*
X171389736Y-104079736D01*
X172643748Y-102825725D01*
X172696841Y-102831680D01*
X172714040Y-102831800D01*
X172725960Y-102831800D01*
X172965218Y-102808341D01*
X173195362Y-102738856D01*
X173407628Y-102625992D01*
X173593928Y-102474049D01*
X173644598Y-102412800D01*
X173653328Y-102412800D01*
X174050264Y-102809737D01*
X174108291Y-102857400D01*
X174165795Y-102905652D01*
X174169543Y-102907712D01*
X174172844Y-102910424D01*
X174239023Y-102945909D01*
X174304804Y-102982073D01*
X174308874Y-102983364D01*
X174312645Y-102985386D01*
X174384507Y-103007356D01*
X174456009Y-103030038D01*
X174460253Y-103030514D01*
X174464345Y-103031765D01*
X174539067Y-103039355D01*
X174613652Y-103047721D01*
X174622007Y-103047779D01*
X174622163Y-103047795D01*
X174622308Y-103047781D01*
X174625000Y-103047800D01*
X174830716Y-103047800D01*
X174837712Y-103070391D01*
X174904892Y-103172340D01*
X174997814Y-103251537D01*
X175109121Y-103301711D01*
X175230000Y-103318889D01*
X175930000Y-103318889D01*
X175998763Y-103313406D01*
X176115391Y-103277288D01*
X176217340Y-103210108D01*
X176296537Y-103117186D01*
X176346711Y-103005879D01*
X176363889Y-102885000D01*
X176363889Y-102438203D01*
X176376199Y-102398436D01*
X176392780Y-102240674D01*
X176378403Y-102082696D01*
X176363889Y-102033382D01*
X176363889Y-101585000D01*
X176358406Y-101516237D01*
X176322288Y-101399609D01*
X176255108Y-101297660D01*
X176162186Y-101218463D01*
X176050879Y-101168289D01*
X175930000Y-101151111D01*
X175230000Y-101151111D01*
X175161237Y-101156594D01*
X175044609Y-101192712D01*
X174942660Y-101259892D01*
X174876726Y-101337253D01*
X174564736Y-101025264D01*
X174506717Y-100977606D01*
X174449205Y-100929348D01*
X174445460Y-100927289D01*
X174442157Y-100924576D01*
X174375991Y-100889098D01*
X174310196Y-100852927D01*
X174306121Y-100851634D01*
X174302355Y-100849615D01*
X174230580Y-100827671D01*
X174158991Y-100804962D01*
X174154741Y-100804485D01*
X174150655Y-100803236D01*
X174075983Y-100795651D01*
X174001348Y-100787279D01*
X173992993Y-100787221D01*
X173992837Y-100787205D01*
X173992692Y-100787219D01*
X173990000Y-100787200D01*
X173645480Y-100787200D01*
X173606047Y-100738155D01*
X173421886Y-100583625D01*
X173211218Y-100467809D01*
X172982066Y-100395118D01*
X172743159Y-100368320D01*
X172725960Y-100368200D01*
X172714040Y-100368200D01*
X172474782Y-100391659D01*
X172244638Y-100461144D01*
X172032372Y-100574008D01*
X171846072Y-100725951D01*
X171692832Y-100911186D01*
X171578489Y-101122658D01*
X171507399Y-101352312D01*
X171482270Y-101591400D01*
X171490350Y-101680178D01*
X170481816Y-102688712D01*
X170480879Y-102688289D01*
X170360000Y-102671111D01*
X169460000Y-102671111D01*
X169391237Y-102676594D01*
X169274609Y-102712712D01*
X169172660Y-102779892D01*
X169093463Y-102872814D01*
X169043289Y-102984121D01*
X169026111Y-103105000D01*
X168763584Y-103105000D01*
X168776711Y-103075879D01*
X168793889Y-102955000D01*
X168793889Y-102155000D01*
X168788406Y-102086237D01*
X168752288Y-101969609D01*
X168685108Y-101867660D01*
X168592186Y-101788463D01*
X168480879Y-101738289D01*
X168360000Y-101721111D01*
X167460000Y-101721111D01*
X167391237Y-101726594D01*
X167340844Y-101742200D01*
X164128753Y-101742200D01*
X164194807Y-101593839D01*
X164246154Y-101367835D01*
X164248668Y-101187805D01*
X164277737Y-101158736D01*
X164325400Y-101100709D01*
X164373652Y-101043205D01*
X164375712Y-101039457D01*
X164378424Y-101036156D01*
X164413909Y-100969977D01*
X164450073Y-100904196D01*
X164451364Y-100900126D01*
X164453386Y-100896355D01*
X164475356Y-100824493D01*
X164475893Y-100822800D01*
X167330445Y-100822800D01*
X167339121Y-100826711D01*
X167460000Y-100843889D01*
X168360000Y-100843889D01*
X168428763Y-100838406D01*
X168545391Y-100802288D01*
X168647340Y-100735108D01*
X168726537Y-100642186D01*
X168776711Y-100530879D01*
X168793889Y-100410000D01*
X168793889Y-99610000D01*
X168788406Y-99541237D01*
X168752288Y-99424609D01*
X168685108Y-99322660D01*
X168592186Y-99243463D01*
X168480879Y-99193289D01*
X168360000Y-99176111D01*
X167460000Y-99176111D01*
X167391237Y-99181594D01*
X167340844Y-99197200D01*
X164122668Y-99197200D01*
X164077834Y-98970770D01*
X163989516Y-98756494D01*
X163929591Y-98666300D01*
X164071490Y-98666300D01*
X164124892Y-98747340D01*
X164217814Y-98826537D01*
X164329121Y-98876711D01*
X164450000Y-98893889D01*
X164895863Y-98893889D01*
X164931009Y-98905038D01*
X164935254Y-98905514D01*
X164939345Y-98906765D01*
X165014067Y-98914355D01*
X165088652Y-98922721D01*
X165097007Y-98922779D01*
X165097163Y-98922795D01*
X165097308Y-98922781D01*
X165100000Y-98922800D01*
X167330445Y-98922800D01*
X167339121Y-98926711D01*
X167460000Y-98943889D01*
X168360000Y-98943889D01*
X168428763Y-98938406D01*
X168545391Y-98902288D01*
X168647340Y-98835108D01*
X168726537Y-98742186D01*
X168763584Y-98660000D01*
X169026111Y-98660000D01*
X169026111Y-99460000D01*
X169031594Y-99528763D01*
X169067712Y-99645391D01*
X169134892Y-99747340D01*
X169227814Y-99826537D01*
X169339121Y-99876711D01*
X169460000Y-99893889D01*
X170360000Y-99893889D01*
X170428763Y-99888406D01*
X170479156Y-99872800D01*
X171794520Y-99872800D01*
X171833953Y-99921845D01*
X172018114Y-100076375D01*
X172228782Y-100192191D01*
X172457934Y-100264882D01*
X172696841Y-100291680D01*
X172714040Y-100291800D01*
X172725960Y-100291800D01*
X172965218Y-100268341D01*
X173195362Y-100198856D01*
X173407628Y-100085992D01*
X173593928Y-99934049D01*
X173644598Y-99872800D01*
X174625000Y-99872800D01*
X174699716Y-99865474D01*
X174774516Y-99858930D01*
X174778623Y-99857737D01*
X174782874Y-99857320D01*
X174854736Y-99835624D01*
X174926848Y-99814673D01*
X174930642Y-99812707D01*
X174934734Y-99811471D01*
X175001053Y-99776208D01*
X175067682Y-99741671D01*
X175071020Y-99739006D01*
X175074797Y-99736998D01*
X175132999Y-99689530D01*
X175191656Y-99642705D01*
X175197600Y-99636842D01*
X175197727Y-99636739D01*
X175197824Y-99636622D01*
X175199736Y-99634736D01*
X175325583Y-99508889D01*
X175930000Y-99508889D01*
X175998763Y-99503406D01*
X176115391Y-99467288D01*
X176217340Y-99400108D01*
X176296537Y-99307186D01*
X176346711Y-99195879D01*
X176363889Y-99075000D01*
X176363889Y-98628203D01*
X176376199Y-98588436D01*
X176392780Y-98430674D01*
X176378403Y-98272696D01*
X176363889Y-98223382D01*
X176363889Y-97775000D01*
X176358406Y-97706237D01*
X176322288Y-97589609D01*
X176255108Y-97487660D01*
X176162186Y-97408463D01*
X176050879Y-97358289D01*
X175930000Y-97341111D01*
X175230000Y-97341111D01*
X175161237Y-97346594D01*
X175044609Y-97382712D01*
X174942660Y-97449892D01*
X174863463Y-97542814D01*
X174813289Y-97654121D01*
X174798603Y-97757463D01*
X174752028Y-97795448D01*
X174693344Y-97842295D01*
X174687395Y-97848161D01*
X174687273Y-97848261D01*
X174687179Y-97848374D01*
X174685264Y-97850263D01*
X174288328Y-98247200D01*
X173645480Y-98247200D01*
X173606047Y-98198155D01*
X173532800Y-98136693D01*
X173532800Y-97443904D01*
X173593928Y-97394049D01*
X173747168Y-97208814D01*
X173861511Y-96997342D01*
X173932601Y-96767688D01*
X173957730Y-96528600D01*
X173935941Y-96289184D01*
X173868065Y-96058560D01*
X173756686Y-95845512D01*
X173606047Y-95658155D01*
X173421886Y-95503625D01*
X173211218Y-95387809D01*
X172982066Y-95315118D01*
X172743159Y-95288320D01*
X172725960Y-95288200D01*
X172714040Y-95288200D01*
X172474782Y-95311659D01*
X172244638Y-95381144D01*
X172032372Y-95494008D01*
X171846072Y-95645951D01*
X171692832Y-95831186D01*
X171578489Y-96042658D01*
X171507399Y-96272312D01*
X171482270Y-96511400D01*
X171504059Y-96750816D01*
X171571935Y-96981440D01*
X171683314Y-97194488D01*
X171833953Y-97381845D01*
X171907200Y-97443307D01*
X171907200Y-98136096D01*
X171846072Y-98185951D01*
X171795402Y-98247200D01*
X170489555Y-98247200D01*
X170480879Y-98243289D01*
X170360000Y-98226111D01*
X169460000Y-98226111D01*
X169391237Y-98231594D01*
X169274609Y-98267712D01*
X169172660Y-98334892D01*
X169093463Y-98427814D01*
X169043289Y-98539121D01*
X169026111Y-98660000D01*
X168763584Y-98660000D01*
X168776711Y-98630879D01*
X168793889Y-98510000D01*
X168793889Y-97710000D01*
X168788406Y-97641237D01*
X168752288Y-97524609D01*
X168685108Y-97422660D01*
X168592186Y-97343463D01*
X168480879Y-97293289D01*
X168360000Y-97276111D01*
X167460000Y-97276111D01*
X167391237Y-97281594D01*
X167340844Y-97297200D01*
X165436672Y-97297200D01*
X165418236Y-97278764D01*
X165360217Y-97231106D01*
X165302705Y-97182848D01*
X165298960Y-97180789D01*
X165295657Y-97178076D01*
X165229491Y-97142598D01*
X165163696Y-97106427D01*
X165159621Y-97105134D01*
X165155855Y-97103115D01*
X165084080Y-97081171D01*
X165012491Y-97058462D01*
X165008241Y-97057985D01*
X165004155Y-97056736D01*
X164929483Y-97049151D01*
X164854848Y-97040779D01*
X164846493Y-97040721D01*
X164846337Y-97040705D01*
X164846192Y-97040719D01*
X164843500Y-97040700D01*
X163319705Y-97040700D01*
X163387347Y-97028773D01*
X163603425Y-96944962D01*
X163799109Y-96820777D01*
X163966945Y-96660949D01*
X164100541Y-96471565D01*
X164194807Y-96259839D01*
X164246154Y-96033835D01*
X164248668Y-95853804D01*
X164359672Y-95742800D01*
X167330445Y-95742800D01*
X167339121Y-95746711D01*
X167460000Y-95763889D01*
X168360000Y-95763889D01*
X168428763Y-95758406D01*
X168545391Y-95722288D01*
X168647340Y-95655108D01*
X168726537Y-95562186D01*
X168776711Y-95450879D01*
X168793889Y-95330000D01*
X168793889Y-94530000D01*
X168788406Y-94461237D01*
X168752288Y-94344609D01*
X168685108Y-94242660D01*
X168592186Y-94163463D01*
X168480879Y-94113289D01*
X168360000Y-94096111D01*
X167460000Y-94096111D01*
X167391237Y-94101594D01*
X167340844Y-94117200D01*
X164023000Y-94117200D01*
X163948284Y-94124526D01*
X163873484Y-94131070D01*
X163869377Y-94132263D01*
X163865126Y-94132680D01*
X163793264Y-94154376D01*
X163721152Y-94175327D01*
X163717358Y-94177293D01*
X163713266Y-94178529D01*
X163646947Y-94213792D01*
X163580318Y-94248329D01*
X163576980Y-94250994D01*
X163573203Y-94253002D01*
X163520431Y-94296042D01*
X163973673Y-93842800D01*
X167330445Y-93842800D01*
X167339121Y-93846711D01*
X167460000Y-93863889D01*
X168360000Y-93863889D01*
X168428763Y-93858406D01*
X168545391Y-93822288D01*
X168647340Y-93755108D01*
X168726537Y-93662186D01*
X168763584Y-93580000D01*
X169026111Y-93580000D01*
X169026111Y-94380000D01*
X169031594Y-94448763D01*
X169067712Y-94565391D01*
X169134892Y-94667340D01*
X169227814Y-94746537D01*
X169339121Y-94796711D01*
X169460000Y-94813889D01*
X170360000Y-94813889D01*
X170428763Y-94808406D01*
X170479156Y-94792800D01*
X171794520Y-94792800D01*
X171833953Y-94841845D01*
X172018114Y-94996375D01*
X172228782Y-95112191D01*
X172457934Y-95184882D01*
X172696841Y-95211680D01*
X172714040Y-95211800D01*
X172725960Y-95211800D01*
X172965218Y-95188341D01*
X173195362Y-95118856D01*
X173407628Y-95005992D01*
X173593928Y-94854049D01*
X173644598Y-94792800D01*
X174830716Y-94792800D01*
X174837712Y-94815391D01*
X174904892Y-94917340D01*
X174997814Y-94996537D01*
X175109121Y-95046711D01*
X175230000Y-95063889D01*
X175930000Y-95063889D01*
X175998763Y-95058406D01*
X176115391Y-95022288D01*
X176217340Y-94955108D01*
X176296537Y-94862186D01*
X176346711Y-94750879D01*
X176363889Y-94630000D01*
X176363889Y-94183203D01*
X176376199Y-94143436D01*
X176392780Y-93985674D01*
X176378403Y-93827696D01*
X176363889Y-93778382D01*
X176363889Y-93330000D01*
X176358406Y-93261237D01*
X176322288Y-93144609D01*
X176255108Y-93042660D01*
X176162186Y-92963463D01*
X176050879Y-92913289D01*
X175930000Y-92896111D01*
X175230000Y-92896111D01*
X175161237Y-92901594D01*
X175044609Y-92937712D01*
X174942660Y-93004892D01*
X174863463Y-93097814D01*
X174832186Y-93167200D01*
X173645480Y-93167200D01*
X173606047Y-93118155D01*
X173421886Y-92963625D01*
X173211218Y-92847809D01*
X172982066Y-92775118D01*
X172743159Y-92748320D01*
X172725960Y-92748200D01*
X172714040Y-92748200D01*
X172474782Y-92771659D01*
X172244638Y-92841144D01*
X172032372Y-92954008D01*
X171846072Y-93105951D01*
X171795402Y-93167200D01*
X170489555Y-93167200D01*
X170480879Y-93163289D01*
X170360000Y-93146111D01*
X169460000Y-93146111D01*
X169391237Y-93151594D01*
X169274609Y-93187712D01*
X169172660Y-93254892D01*
X169093463Y-93347814D01*
X169043289Y-93459121D01*
X169026111Y-93580000D01*
X168763584Y-93580000D01*
X168776711Y-93550879D01*
X168793889Y-93430000D01*
X168793889Y-92630000D01*
X168788406Y-92561237D01*
X168752288Y-92444609D01*
X168685108Y-92342660D01*
X168592186Y-92263463D01*
X168480879Y-92213289D01*
X168360000Y-92196111D01*
X167460000Y-92196111D01*
X167391237Y-92201594D01*
X167340844Y-92217200D01*
X163637000Y-92217200D01*
X163562276Y-92224527D01*
X163487485Y-92231070D01*
X163483379Y-92232263D01*
X163479126Y-92232680D01*
X163407238Y-92254384D01*
X163335153Y-92275327D01*
X163331361Y-92277293D01*
X163327266Y-92278529D01*
X163260968Y-92313781D01*
X163194318Y-92348328D01*
X163190976Y-92350996D01*
X163187203Y-92353002D01*
X163129028Y-92400448D01*
X163070344Y-92447295D01*
X163064395Y-92453161D01*
X163064273Y-92453261D01*
X163064179Y-92453374D01*
X163062264Y-92455263D01*
X162723053Y-92794475D01*
X162725850Y-92594119D01*
X162680834Y-92366770D01*
X162592516Y-92152494D01*
X162464261Y-91959454D01*
X162300952Y-91795002D01*
X162108812Y-91665401D01*
X161895159Y-91575590D01*
X161668129Y-91528987D01*
X161436372Y-91527369D01*
X161208714Y-91570797D01*
X160993828Y-91657617D01*
X160799897Y-91784522D01*
X160634308Y-91946678D01*
X160624707Y-91960700D01*
X160316996Y-91960700D01*
X160295065Y-91927691D01*
X160111029Y-91742365D01*
X159894501Y-91596316D01*
X159653730Y-91495104D01*
X159397885Y-91442587D01*
X159136711Y-91440764D01*
X158880158Y-91489704D01*
X158637997Y-91587543D01*
X158419451Y-91730556D01*
X158232846Y-91913293D01*
X158085288Y-92128796D01*
X157982398Y-92368855D01*
X157928096Y-92624327D01*
X157924449Y-92885481D01*
X157971597Y-93142370D01*
X158067744Y-93385209D01*
X158209227Y-93604747D01*
X158390657Y-93792624D01*
X158605125Y-93941683D01*
X158841940Y-94045145D01*
X158637997Y-94127543D01*
X158419451Y-94270556D01*
X158232846Y-94453293D01*
X158085288Y-94668796D01*
X157982398Y-94908855D01*
X157928096Y-95164327D01*
X157924449Y-95425481D01*
X157971597Y-95682370D01*
X158067744Y-95925209D01*
X158209227Y-96144747D01*
X158390657Y-96332624D01*
X158605125Y-96481683D01*
X158841940Y-96585145D01*
X158637997Y-96667543D01*
X158419451Y-96810556D01*
X158232846Y-96993293D01*
X158085288Y-97208796D01*
X157982398Y-97448855D01*
X157928096Y-97704327D01*
X157924449Y-97965481D01*
X157971597Y-98222370D01*
X158067744Y-98465209D01*
X158209227Y-98684747D01*
X158390657Y-98872624D01*
X158605125Y-99021683D01*
X158841940Y-99125145D01*
X158637997Y-99207543D01*
X158419451Y-99350556D01*
X158415701Y-99354228D01*
X157276800Y-98215328D01*
X157276800Y-90897750D01*
X163942000Y-90897750D01*
X163942000Y-91024542D01*
X163966403Y-91147223D01*
X164014270Y-91262785D01*
X164083763Y-91366789D01*
X164172211Y-91455237D01*
X164276215Y-91524730D01*
X164391777Y-91572597D01*
X164514458Y-91597000D01*
X164941250Y-91597000D01*
X165100000Y-91438250D01*
X165100000Y-90739000D01*
X165354000Y-90739000D01*
X165354000Y-91438250D01*
X165512750Y-91597000D01*
X165939542Y-91597000D01*
X166062223Y-91572597D01*
X166177785Y-91524730D01*
X166281789Y-91455237D01*
X166370237Y-91366789D01*
X166439730Y-91262785D01*
X166487597Y-91147223D01*
X166512000Y-91024542D01*
X166512000Y-90897750D01*
X166353250Y-90739000D01*
X165354000Y-90739000D01*
X165100000Y-90739000D01*
X164100750Y-90739000D01*
X163942000Y-90897750D01*
X157276800Y-90897750D01*
X157276800Y-90199458D01*
X163942000Y-90199458D01*
X163942000Y-90326250D01*
X164100750Y-90485000D01*
X165100000Y-90485000D01*
X165100000Y-89785750D01*
X165354000Y-89785750D01*
X165354000Y-90485000D01*
X166353250Y-90485000D01*
X166512000Y-90326250D01*
X166512000Y-90199458D01*
X166487597Y-90076777D01*
X166439730Y-89961215D01*
X166370237Y-89857211D01*
X166281789Y-89768763D01*
X166177785Y-89699270D01*
X166062223Y-89651403D01*
X165939542Y-89627000D01*
X165512750Y-89627000D01*
X165354000Y-89785750D01*
X165100000Y-89785750D01*
X164941250Y-89627000D01*
X164514458Y-89627000D01*
X164391777Y-89651403D01*
X164276215Y-89699270D01*
X164172211Y-89768763D01*
X164083763Y-89857211D01*
X164014270Y-89961215D01*
X163966403Y-90076777D01*
X163942000Y-90199458D01*
X157276800Y-90199458D01*
X157276800Y-88982672D01*
X158816737Y-87442736D01*
X158816742Y-87442730D01*
X159086673Y-87172800D01*
X161566853Y-87172800D01*
X161598853Y-87222455D01*
X161787095Y-87417385D01*
X162009614Y-87572040D01*
X162257934Y-87680529D01*
X162522598Y-87738719D01*
X162793523Y-87744394D01*
X163060391Y-87697338D01*
X163313037Y-87599343D01*
X163541837Y-87454142D01*
X163738077Y-87267265D01*
X163843111Y-87118370D01*
X163843111Y-87360000D01*
X163848594Y-87428763D01*
X163884712Y-87545391D01*
X163951892Y-87647340D01*
X164044814Y-87726537D01*
X164156121Y-87776711D01*
X164277000Y-87793889D01*
X164414200Y-87793889D01*
X164414200Y-87962716D01*
X164391609Y-87969712D01*
X164289660Y-88036892D01*
X164210463Y-88129814D01*
X164160289Y-88241121D01*
X164143111Y-88362000D01*
X164143111Y-89062000D01*
X164148594Y-89130763D01*
X164184712Y-89247391D01*
X164251892Y-89349340D01*
X164344814Y-89428537D01*
X164456121Y-89478711D01*
X164577000Y-89495889D01*
X165023797Y-89495889D01*
X165063564Y-89508199D01*
X165221326Y-89524780D01*
X165379304Y-89510403D01*
X165428618Y-89495889D01*
X165877000Y-89495889D01*
X165945763Y-89490406D01*
X166062391Y-89454288D01*
X166164340Y-89387108D01*
X166243537Y-89294186D01*
X166293711Y-89182879D01*
X166310889Y-89062000D01*
X166310889Y-88362000D01*
X166305406Y-88293237D01*
X166269288Y-88176609D01*
X166202108Y-88074660D01*
X166109186Y-87995463D01*
X166039800Y-87964186D01*
X166039800Y-87793889D01*
X166177000Y-87793889D01*
X166245763Y-87788406D01*
X166362391Y-87752288D01*
X166464340Y-87685108D01*
X166543537Y-87592186D01*
X166593711Y-87480879D01*
X166610889Y-87360000D01*
X166610889Y-85360000D01*
X166605406Y-85291237D01*
X166569288Y-85174609D01*
X166502108Y-85072660D01*
X166409186Y-84993463D01*
X166297879Y-84943289D01*
X166177000Y-84926111D01*
X164277000Y-84926111D01*
X164208237Y-84931594D01*
X164091609Y-84967712D01*
X163989660Y-85034892D01*
X163910463Y-85127814D01*
X163860289Y-85239121D01*
X163843111Y-85360000D01*
X163843111Y-85603013D01*
X163763000Y-85482436D01*
X163572054Y-85290153D01*
X163347398Y-85138620D01*
X163097586Y-85033609D01*
X162832136Y-84979120D01*
X162561158Y-84977228D01*
X162294973Y-85028006D01*
X162043720Y-85129519D01*
X161816969Y-85277900D01*
X161623358Y-85467498D01*
X161568785Y-85547200D01*
X158750000Y-85547200D01*
X158675234Y-85554531D01*
X158600484Y-85561071D01*
X158596382Y-85562263D01*
X158592126Y-85562680D01*
X158520222Y-85584389D01*
X158448152Y-85605327D01*
X158444358Y-85607293D01*
X158440266Y-85608529D01*
X158373947Y-85643792D01*
X158307318Y-85678329D01*
X158303980Y-85680994D01*
X158300203Y-85683002D01*
X158241995Y-85730475D01*
X158183343Y-85777296D01*
X158177395Y-85783161D01*
X158177273Y-85783261D01*
X158177179Y-85783374D01*
X158175263Y-85785264D01*
X157667336Y-86293192D01*
X157667264Y-86293263D01*
X155889264Y-88071264D01*
X155841606Y-88129283D01*
X155793348Y-88186795D01*
X155791289Y-88190540D01*
X155788576Y-88193843D01*
X155753098Y-88260009D01*
X155752800Y-88260551D01*
X155752800Y-86950672D01*
X158070673Y-84632800D01*
X167176328Y-84632800D01*
X168335263Y-85791736D01*
X168393308Y-85839414D01*
X168450795Y-85887652D01*
X168454540Y-85889711D01*
X168457843Y-85892424D01*
X168524009Y-85927902D01*
X168589804Y-85964073D01*
X168593879Y-85965366D01*
X168597645Y-85967385D01*
X168669433Y-85989333D01*
X168741009Y-86012038D01*
X168745257Y-86012515D01*
X168749344Y-86013764D01*
X168824023Y-86021350D01*
X168898652Y-86029721D01*
X168907007Y-86029779D01*
X168907163Y-86029795D01*
X168907308Y-86029781D01*
X168910000Y-86029800D01*
X173683111Y-86029800D01*
X173683111Y-86233000D01*
X173688594Y-86301763D01*
X173724712Y-86418391D01*
X173791892Y-86520340D01*
X173884814Y-86599537D01*
X173996121Y-86649711D01*
X174117000Y-86666889D01*
X176149000Y-86666889D01*
X176217763Y-86661406D01*
X176334391Y-86625288D01*
X176436340Y-86558108D01*
X176515537Y-86465186D01*
X176538521Y-86414198D01*
X176550431Y-86427642D01*
X176808185Y-86623382D01*
X177099174Y-86765076D01*
X177290056Y-86822975D01*
X177546000Y-86703836D01*
X177546000Y-85344000D01*
X177800000Y-85344000D01*
X177800000Y-86703836D01*
X178055944Y-86822975D01*
X178246826Y-86765076D01*
X178537815Y-86623382D01*
X178795569Y-86427642D01*
X179010184Y-86185377D01*
X179173411Y-85905898D01*
X179278978Y-85599945D01*
X179160362Y-85344000D01*
X177800000Y-85344000D01*
X177546000Y-85344000D01*
X177526000Y-85344000D01*
X177526000Y-85090000D01*
X177546000Y-85090000D01*
X177546000Y-83730164D01*
X177800000Y-83730164D01*
X177800000Y-85090000D01*
X179160362Y-85090000D01*
X179278978Y-84834055D01*
X179173411Y-84528102D01*
X179010184Y-84248623D01*
X178795569Y-84006358D01*
X178537815Y-83810618D01*
X178246826Y-83668924D01*
X178055944Y-83611025D01*
X177800000Y-83730164D01*
X177546000Y-83730164D01*
X177290056Y-83611025D01*
X177099174Y-83668924D01*
X176808185Y-83810618D01*
X176550431Y-84006358D01*
X176541534Y-84016402D01*
X176541288Y-84015609D01*
X176474108Y-83913660D01*
X176381186Y-83834463D01*
X176269879Y-83784289D01*
X176149000Y-83767111D01*
X174117000Y-83767111D01*
X174048237Y-83772594D01*
X173931609Y-83808712D01*
X173829660Y-83875892D01*
X173750463Y-83968814D01*
X173700289Y-84080121D01*
X173683111Y-84201000D01*
X173683111Y-84404200D01*
X169246673Y-84404200D01*
X168087736Y-83245264D01*
X168029717Y-83197606D01*
X167972205Y-83149348D01*
X167968460Y-83147289D01*
X167965157Y-83144576D01*
X167898991Y-83109098D01*
X167833196Y-83072927D01*
X167829121Y-83071634D01*
X167825355Y-83069615D01*
X167753580Y-83047671D01*
X167681991Y-83024962D01*
X167677741Y-83024485D01*
X167673655Y-83023236D01*
X167598983Y-83015651D01*
X167524348Y-83007279D01*
X167515993Y-83007221D01*
X167515837Y-83007205D01*
X167515692Y-83007219D01*
X167513000Y-83007200D01*
X157734000Y-83007200D01*
X157659276Y-83014527D01*
X157584485Y-83021070D01*
X157580379Y-83022263D01*
X157576126Y-83022680D01*
X157504238Y-83044384D01*
X157432153Y-83065327D01*
X157428361Y-83067293D01*
X157424266Y-83068529D01*
X157357968Y-83103781D01*
X157291318Y-83138328D01*
X157287976Y-83140996D01*
X157284203Y-83143002D01*
X157226028Y-83190448D01*
X157167344Y-83237295D01*
X157161395Y-83243161D01*
X157161273Y-83243261D01*
X157161179Y-83243374D01*
X157159264Y-83245263D01*
X154365264Y-86039264D01*
X154317606Y-86097283D01*
X154269348Y-86154795D01*
X154267289Y-86158540D01*
X154264576Y-86161843D01*
X154229098Y-86228009D01*
X154192927Y-86293804D01*
X154191634Y-86297879D01*
X154189615Y-86301645D01*
X154167671Y-86373420D01*
X154144962Y-86445009D01*
X154144485Y-86449259D01*
X154143236Y-86453345D01*
X154135651Y-86528017D01*
X154127279Y-86602652D01*
X154127221Y-86611007D01*
X154127205Y-86611163D01*
X154127219Y-86611308D01*
X154127200Y-86614000D01*
X128116800Y-86614000D01*
X128116800Y-80999800D01*
X212370200Y-80999800D01*
X212370200Y-91205727D01*
M02*
